<svg xmlns="http://www.w3.org/2000/svg" xmlns:xlink="http://www.w3.org/1999/xlink" width="1395" height="1397" viewBox="0 0 1395 1397">
  <defs>
    <clipPath id="clip-Pattern_Set_">
      <rect width="1395" height="1397"/>
    </clipPath>
  </defs>
  <g id="Pattern_Set_" data-name="Pattern Set " clip-path="url(#clip-Pattern_Set_)">
    <rect width="1395" height="1397" fill="#fff"/>
    <path id="Path_870" data-name="Path 870" d="M1543.341,298.029c-2.047-38.784-14.736-77.057-39.705-107.143A146.567,146.567,0,0,0,1410,139.822c-83.3-10.233-130.066,63.447-164.859,126.586-28.449,51.678-24.69,95.2-20.477,121.273s8.3,43.176,18.635,62.722c8.187,15.555,16.783,30.9,26.914,45.231,19.136,27.323,45.129,53.418,79.513,58.842,38.784,6.14,73.782-14.224,100.491-40.626,14.224-14.02,26.4-29.881,37.659-46.255a358.251,358.251,0,0,0,30.7-53.316C1535.461,378.054,1545.49,338.246,1543.341,298.029Z" transform="translate(54.153 -166.841) rotate(7)" fill="#fea81f"/>
    <path id="Path_315" data-name="Path 315" d="M89,454.4c-9.7,0-9.7,15,0,15C98.6,469.4,98.6,454.4,89,454.4Z" fill="#822b9e"/>
    <path id="Path_316" data-name="Path 316" d="M126.5,430.5c-9.7,0-9.7,15,0,15C136.1,445.5,136.1,430.5,126.5,430.5Z" fill="#822b9e"/>
    <path id="Path_317" data-name="Path 317" d="M85.5,393c-9.7,0-9.7,15,0,15S95.2,393,85.5,393Z" fill="#822b9e"/>
    <path id="Path_318" data-name="Path 318" d="M119.7,382.8c-9.7,0-9.7,15,0,15C129.3,397.8,129.3,382.8,119.7,382.8Z" fill="#822b9e"/>
    <path id="Path_319" data-name="Path 319" d="M133.3,471.5c-9.7,0-9.7,15,0,15S143,471.5,133.3,471.5Z" fill="#822b9e"/>
    <path id="Path_320" data-name="Path 320" d="M54.8,433.9c-9.7,0-9.7,15,0,15S64.5,433.9,54.8,433.9Z" fill="#822b9e"/>
    <path id="Path_321" data-name="Path 321" d="M140.1,872.3,85.8,841.1c-8.4-4.8-15.9,8.1-7.6,13l54.3,31.2C140.9,890.1,148.5,877.1,140.1,872.3Z" fill="#f0515e"/>
    <path id="Path_323" data-name="Path 323" d="M441.7,323.7c-11.9-46.7-63.6-56.8-104.1-43.5-43.3,14.2-96.8,25.9-130,58.5-8.6,8.5-17.1,17.5-29.1,21-25,7.2-53-5.9-75-16.7-24.5-12-48-26.2-73.3-36.7-40.3-16.7-93.3-22-128.2,9.4-36.9,33.1-33.9,91.8-13.9,132.9,20.4,42,60.4,73.2,106.2,82.5a173.37,173.37,0,0,0,74.5-1.5c24.9-6,46.2-17.9,67.1-32.1,10-6.8,20.3-13.8,32-17.2,13-3.8,25.2-.9,37.7,3,21.8,6.8,43.9,10.5,66.8,9.3a197.676,197.676,0,0,0,120.3-48.9C425.2,414.9,453.1,368.5,441.7,323.7Z" fill="#1f75fe"/>
    <path id="Path_324" data-name="Path 324" d="M1588.7,1114.3c-11.5-46.9-31.7-93-67-126.9-33.7-32.5-77.9-52.3-123.2-62.5-49.8-11.2-104.6-14-153.9,1.1-46.7,14.3-84.8,45.9-115.7,82.8-15.8,18.8-29.5,39-43.6,59.2-14.3,20.4-30.2,40.8-52.5,52.8-19.4,10.5-42.1,12.9-61.9,2.3-15.8-8.5-28-22.4-39.6-35.7-12.4-14.3-24.5-28.8-39.7-40.2-16.2-12.2-35.9-18.8-56.3-17.7-44.7,2.4-83.3,34.4-102.6,73.3a164.878,164.878,0,0,0-2.6,140c10.4,23.4,25.5,44.6,34.7,68.5,8,20.8,12.7,46.3,2.3,67.1-8.7,17.5-26.1,28.3-39.8,41.6-14.1,13.7-24.1,31.6-19.5,51.8,4.9,21.2,24.2,36.2,43.3,44.2,20.6,8.5,44.3,9.7,66.3,7.4,47.2-4.8,90.8-24.7,136.3-36.4,22-5.7,44.3-9.3,67.1-8a6.537,6.537,0,0,0,5.8-2.5c4.9,2.2,9.4,6.1,12.7,9.5,7.9,8.2,15,17.9,25.5,23.1,22,10.9,46.2-.3,62.8-15.7,16.5-15.4,26.3-37,44.3-50.8,18.6-14.3,42.5-13.5,63.8-6.3,46,15.5,75.7,58.1,119.9,76.9,44.1,18.8,92.9,6.9,131.3-19.2,77.2-52.4,110.8-149.1,115.3-238.7A477.977,477.977,0,0,0,1588.7,1114.3Z" fill="#1f75fe"/>
    <path id="Path_325" data-name="Path 325" d="M1199.2-293.8c-51.9,53.5-54.9,132.3-59.5,202.3-2.5,38.1-6,76.8-19.9,112.7-11.8,30.5-31.9,56-60.8,71.8-24.5,13.4-56,19.6-82.1,7-15.1-7.3-26.2-22.7-43-26.2-17.6-3.7-34.2,6.8-43.2,21.5-10.5,17.1-9.5,38.4-8.7,57.7.8,19.1,1.7,38.7-1.8,57.6-3,16.5-9.2,32.6-21.8,44.1-10.3,9.4-24.2,15.9-38.3,15.5-16.6-.5-26.3-12.1-34.5-25.2-9.1-14.6-19.9-31.1-38.3-34.6-19.1-3.6-32.9,11-39.6,27.3-5.9,14.4-6.1,30.3-4.4,45.5,1.8,16.2,5.6,32.2,7.4,48.4,1.7,15.3,2,31.7-4.9,45.8-8,16.3-22.9,29.3-38.3,38.3-14.9,8.8-32.8,14-50.1,9.8-16.2-4-29.1-14.8-33.2-31.3-2.3-9.3-2.4-19-3.3-28.6a110.6,110.6,0,0,0-5.7-27.3c-6-16.7-16.1-32.7-29.9-44.1-6.9-5.7-15.7-10.7-25-10.3s-16.6,6-21.4,13.6c-5.2,8.2-8.5,17.9-12.2,26.8-4.3,10-8.4,20.1-12.5,30.2-8.1,20.2-15.9,40.6-23.2,61.1s-14.2,41.2-20.8,61.9c-2.4,7.5-4.9,16.6-13,19.7-7.8,3-17.1.7-25-1.1q-33-7.5-65.9-15.2c-16.7-3.9-33.9-7.8-49.3-15.7-14.1-7.3-30.5-20-31.9-37.2-.7-9,4.7-15.9,10.8-21.9a137.293,137.293,0,0,1,21.4-17.3,145,145,0,0,1,50.1-20.7c15.4-3.2,35.5-1.2,46.8-14.4,12.1-14.1,5.5-34.8-7.9-45.3-15.5-12.1-37.8-15-56.6-18a378.345,378.345,0,0,0-56.2-4.8c2.7-35,38.1-58.2,66.7-73.1,16.9-8.8,34.4-17.1,49.9-28.3,15-10.7,29.7-24.6,36.1-42.4,5.4-14.9,4.2-35.7-11.7-43.6-10.4-5.2-22.4-2.6-33.3-.6a330.771,330.771,0,0,0-34,8.4,316.2,316.2,0,0,0-32.9,12.2c-9.6,4.1-18.9,9-29.1,11.3-8,1.8-17.3,1.3-22.5-6-4.4-6.1-4.2-14.8-2.9-21.9,1.9-10.6,6.3-20.5,10.9-30.2,5.3-11.2,11.1-22.2,17.5-32.9A354.045,354.045,0,0,1,313-20.3c6.6-7-4-17.7-10.6-10.6C271.8,1.6,246.2,40.1,230,81.8c-6,15.4-10,36,.5,50.5,13.6,18.9,37.5,13.7,55.8,5.9,21.8-9.2,43.1-18,66.2-23.3,5.4-1.2,10.8-2.3,16.3-3.3,5.3-.9,11.4-2.3,16.7-.7,7.2,2.1,8.9,9.4,8.6,16-.7,17.2-15,31.7-27.8,41.7-15.3,12-33.2,20.5-50.4,29.4-36.4,18.8-80.2,48.9-77.5,95.3a7.621,7.621,0,0,0,7.5,7.5,351.992,351.992,0,0,1,65.6,5.3,245.6,245.6,0,0,1,30.3,6.9c7.8,2.4,16.4,6.1,20.8,13.4,3.5,5.7,4.9,14-.8,18.9-5.5,4.7-13.8,5.2-20.6,6a165.381,165.381,0,0,0-54.3,15.2c-16.5,7.9-32.5,19-44.8,32.7-6.3,7-11,15-11.8,24.5-.8,9.1,2.3,18.4,6.9,26.1,19.3,32.1,60.3,40.2,93.9,47.9,21.3,4.9,42.6,10.7,64.1,14.6,8.8,1.6,18.2,2.5,26.7-.7,8.8-3.3,14.9-10,18.6-18.5,4.1-9.2,6.6-19.2,9.7-28.8,3.4-10.3,6.9-20.7,10.4-30.9q10.95-31.35,23-62.2c7.8-19.9,15.7-40,24.8-59.4,3.1-6.7,7.2-14.3,15.8-12.3,8.4,1.9,15.2,9.3,20.6,15.5a88.889,88.889,0,0,1,20.8,48.2c2.1,18.7,1.1,38.6,13,54.5,10.3,13.8,26.3,21.8,43.2,23.9,18.5,2.3,37.3-3.5,53.2-12.8s30.9-22.3,40.6-38.1c8.8-14.3,11.6-31.1,11-47.7-.7-16.5-4.2-32.8-6.8-49.1-2.3-14.7-4.3-30.3-.2-44.8,2-7.1,5.4-14.3,10.7-19.5,6.1-5.9,13.8-6,21-1.9,15.7,8.9,21.4,28.1,33.1,41,22.7,25.2,59.8,18.1,83.2-2.1,28.6-24.8,30.9-66.5,29.9-101.7-.6-19-4.3-41.2,4.4-58.9,3.4-6.9,9-13.2,16.2-16.3,7.6-3.3,15-1.4,21.8,2.8,7.4,4.6,13.6,10.8,20.9,15.5a84.6,84.6,0,0,0,20.4,9.6c14.3,4.6,29.5,5,44.2,2.7,30.4-4.7,59.1-22,79.4-44.8,24.3-27.4,36.4-63.7,42.6-99.2,12.6-72.1,2.1-150.4,34.2-218.3a152.738,152.738,0,0,1,28.1-41.2C1216.6-290.1,1206-300.8,1199.2-293.8Z" fill="#5cdfff"/>
    <path id="Path_326" data-name="Path 326" d="M971,1343.1c-9.7-24-29.1-43-52.9-53.1-26.5-11.3-56.1-12-84-6.6-13,2.5-25.7,6.5-38.9,7.4-8.4.6-17.9.2-25-4.6,14.1-13.2,17.3-34.7,12.1-53.4-7.2-25.7-28.8-41.7-53.7-48.5-14.1-3.8-28.9-5-43.5-5-7.3,0-15,1.1-22.2.3-4.8-.5-9.2-2.7-11-7.4-3.5-9.5,1.6-22,5.7-30.6,6.7-13.9,14.5-26.9,20.2-41.3,11.4-28.7,17-61.5,7.1-91.5-8.3-25.1-26.8-46.4-49.9-59.2-23.4-12.9-51-16.6-76.7-8.9a109.58,109.58,0,0,0-61,46.7c-16.9,27.2-17.1,58.9-12.3,89.6,4.5,29.2,11.6,57.5,11.2,87.3-.4,25.1-4.7,50.9-15.1,73.9-10,22.1-26.2,43.8-48.2,55.1-8.5,4.4-16.2,3.1-23-2.8-7-6.2-12-14.3-17.3-21.9-6.1-8.6-12.5-17.2-21.1-23.5a41.628,41.628,0,0,0-35.5-6.6c-14.3,3.7-26.7,13.4-36.8,23.9-9.4,9.8-17.7,21-28.6,29.3a48.957,48.957,0,0,1-16.9,8.5c-6.7,1.7-11.1.5-13.1-6.4-4.4-15.8-1.9-33.2-3-49.4-1-15.3-4.5-29.9-13.9-42.3-8-10.5-19.5-18.6-33-19.2-32.1-1.5-45.9,37.2-56.2,60.9-5.9,13.6-12.2,27.7-22.3,38.8-8.6,9.4-20.3,17.9-33.4,18.7-23.9,1.6-41.6-20.9-61.7-30.2-10.3-4.8-21.2-6.8-32.2-3.2-9.1,3-5.2,17.5,4,14.5,9.7-3.2,18.7.2,27.2,5.1,10.2,5.9,19.3,13.5,29.5,19.4,10.5,6.1,22.4,10.5,34.7,9.3,13.8-1.3,26.2-7.9,36.5-17,23.2-20.6,30.2-51.6,44.6-77.9,5.8-10.5,14.5-23.4,27.9-23.4,12,0,21.5,10.2,26.7,20,7.3,13.5,6.9,29.6,7,44.4a217.782,217.782,0,0,0,1.3,25.5c.9,6.8,2,13.8,6.1,19.5,9.3,12.8,26.9,9,39,2.8,11.8-6.1,21.3-16,30-25.8,14.8-16.5,40.1-44.6,63.9-26.5,15.1,11.5,21.7,30.8,35.8,43.3,7,6.2,15.6,10.4,25.2,9.9,13.5-.8,25.3-9.8,35.2-18.3,18.9-16.2,32-38.2,40.2-61.5,8.4-23.8,11.7-49.5,11.3-74.7-.5-30.2-8.6-59-12.5-88.8-3.7-28.6-1.2-57.7,17.5-80.9,15.5-19.3,38.9-33,63.8-34.8,24.8-1.8,49.4,8.1,67.4,25.1,20.2,19.2,29.4,45.2,27.6,72.9-1,15.4-5.2,30.5-10.8,44.8-5.3,13.8-13,26.1-19.4,39.4-5.1,10.5-9.6,22.8-8.6,34.7,1.1,12.3,8.8,22.6,21.4,25.1,7.5,1.5,15.3.6,22.9.5,6.9-.1,13.8,0,20.7.5,13.3,1,27,3.6,39,9.7,10.7,5.4,19.4,13,24.7,23.8a49.423,49.423,0,0,1,4.6,28.6c-1.4,9.2-6.1,17.2-14.2,21.9-3.2,1.9-5.1,7-2.7,10.3,14.1,19,37.4,18.5,58.6,14.6,11.3-2.1,22.3-5.3,33.7-7a143.282,143.282,0,0,1,38.7-.6c24.1,3,46.7,13.8,62.1,32.8,13.8,17.2,20.9,41.2,12.8,62.5-8.1,21.2-31.1,38.9-54.5,34.7-9.4-1.7-13.5,12.8-4,14.5,24.8,4.4,48.5-7.5,63.3-27.3C978.3,1392.9,980.4,1366.4,971,1343.1Z" fill="#5cdfff"/>
    <path id="Path_327" data-name="Path 327" d="M600.7,201.9c-9.7,0-9.7,15,0,15S610.4,201.9,600.7,201.9Z" fill="#fea81f"/>
    <path id="Path_328" data-name="Path 328" d="M621.2,242.9c-9.7,0-9.7,15,0,15C630.8,257.9,630.9,242.9,621.2,242.9Z" fill="#fea81f"/>
    <path id="Path_329" data-name="Path 329" d="M645.1,191.7c-9.7,0-9.7,15,0,15C654.7,206.7,654.7,191.7,645.1,191.7Z" fill="#fea81f"/>
    <path id="Path_330" data-name="Path 330" d="M607.5,154.2c-9.7,0-9.7,15,0,15S617.2,154.2,607.5,154.2Z" fill="#fea81f"/>
    <path id="Path_331" data-name="Path 331" d="M556.4,212.2c-9.7,0-9.7,15,0,15C566,227.2,566,212.2,556.4,212.2Z" fill="#fea81f"/>
    <path id="Path_332" data-name="Path 332" d="M587.1,246.3c-9.7,0-9.7,15,0,15C596.7,261.3,596.7,246.3,587.1,246.3Z" fill="#fea81f"/>
    <path id="Path_333" data-name="Path 333" d="M570,167.8c-9.7,0-9.7,15,0,15S579.7,167.8,570,167.8Z" fill="#fea81f"/>
    <path id="Path_334" data-name="Path 334" d="M665.5,140.5c-9.7,0-9.7,15,0,15S675.2,140.5,665.5,140.5Z" fill="#fea81f"/>
    <path id="Path_335" data-name="Path 335" d="M662.1,215.6c-9.7,0-9.7,15,0,15S671.8,215.6,662.1,215.6Z" fill="#fea81f"/>
    <path id="Path_336" data-name="Path 336" d="M614.4,103c-9.7,0-9.7,15,0,15C624,118,624,103,614.4,103Z" fill="#fea81f"/>
    <path id="Path_337" data-name="Path 337" d="M549.5,140.5c-9.7,0-9.7,15,0,15S559.2,140.5,549.5,140.5Z" fill="#fea81f"/>
    <path id="Path_338" data-name="Path 338" d="M515.4,215.6c-9.7,0-9.7,15,0,15S525.1,215.6,515.4,215.6Z" fill="#fea81f"/>
    <path id="Path_339" data-name="Path 339" d="M972.6,1021.5c-9.7,0-9.7,15,0,15S982.3,1021.5,972.6,1021.5Z" fill="#5cdfff"/>
    <path id="Path_340" data-name="Path 340" d="M1027.2,1059c-9.7,0-9.7,15,0,15C1036.8,1074,1036.9,1059,1027.2,1059Z" fill="#5cdfff"/>
    <path id="Path_341" data-name="Path 341" d="M1044.3,987.3c-9.7,0-9.7,15,0,15C1053.9,1002.3,1053.9,987.3,1044.3,987.3Z" fill="#5cdfff"/>
    <path id="Path_342" data-name="Path 342" d="M972.6,953.2c-9.7,0-9.7,15,0,15S982.3,953.2,972.6,953.2Z" fill="#5cdfff"/>
    <path id="Path_343" data-name="Path 343" d="M1006.7,1001c-9.7,0-9.7,15,0,15S1016.4,1001,1006.7,1001Z" fill="#5cdfff"/>
    <path id="Path_344" data-name="Path 344" d="M1017,943c-9.7,0-9.7,15,0,15C1026.6,958,1026.6,943,1017,943Z" fill="#5cdfff"/>
    <path id="Path_345" data-name="Path 345" d="M945.3,1001c-9.7,0-9.7,15,0,15S955,1001,945.3,1001Z" fill="#5cdfff"/>
    <path id="Path_346" data-name="Path 346" d="M972.6,1072.6c-9.7,0-9.7,15,0,15S982.3,1072.6,972.6,1072.6Z" fill="#5cdfff"/>
    <path id="Path_348" data-name="Path 348" d="M938.5,1038.5c-9.7,0-9.7,15,0,15C948.1,1053.5,948.2,1038.5,938.5,1038.5Z" fill="#5cdfff"/>
    <path id="Path_349" data-name="Path 349" d="M99.2,1140.9c-9.7,0-9.7,15,0,15C108.8,1155.9,108.9,1140.9,99.2,1140.9Z" fill="#1f75fe"/>
    <path id="Path_350" data-name="Path 350" d="M102.6,1093.1c-9.7,0-9.7,15,0,15S112.3,1093.1,102.6,1093.1Z" fill="#1f75fe"/>
    <path id="Path_351" data-name="Path 351" d="M51.4,1110.2c-9.7,0-9.7,15,0,15S61.1,1110.2,51.4,1110.2Z" fill="#1f75fe"/>
    <path id="Path_352" data-name="Path 352" d="M133.3,1117c-9.7,0-9.7,15,0,15S143,1117,133.3,1117Z" fill="#1f75fe"/>
    <path id="Path_353" data-name="Path 353" d="M133.3,1041.9c-9.7,0-9.7,15,0,15S143,1041.9,133.3,1041.9Z" fill="#1f75fe"/>
    <path id="Path_354" data-name="Path 354" d="M71.9,1055.6c-9.7,0-9.7,15,0,15C81.5,1070.6,81.6,1055.6,71.9,1055.6Z" fill="#1f75fe"/>
    <path id="Path_356" data-name="Path 356" d="M133.3,1079.5c-9.7,0-9.7,15,0,15S143,1079.5,133.3,1079.5Z" fill="#1f75fe"/>
    <path id="Path_357" data-name="Path 357" d="M27.5,1079.5c-9.7,0-9.7,15,0,15S37.2,1079.5,27.5,1079.5Z" fill="#1f75fe"/>
    <path id="Path_358" data-name="Path 358" d="M78.7,1014.6c-9.7,0-9.7,15,0,15S88.4,1014.6,78.7,1014.6Z" fill="#1f75fe"/>
    <path id="Path_359" data-name="Path 359" d="M143.5,1157.9c-9.7,0-9.7,15,0,15S153.2,1157.9,143.5,1157.9Z" fill="#1f75fe"/>
    <path id="Path_360" data-name="Path 360" d="M1509.3,989c-3.8-2.3-7.9-.5-10.3,2.7a329.427,329.427,0,0,1-90.7,83.4,321.011,321.011,0,0,1-55,27.5c-17.7,6.8-35.9,12.2-53.9,18-34.5,11-70.6,23.5-97.4,49-28.8,27.4-38.1,65.4-41.5,103.7-3.6,40.6-1.1,84.7-20.4,121.7-6.5-89.5-9.8-189.2,51.2-261.7a162.56,162.56,0,0,1,46.2-38.4c20.8-11.3,43.9-17,66.7-22.9,23.2-6,46.4-12.5,67.6-23.9,18.3-9.9,34.9-23,49.6-37.6,34.2-34.2,58.8-76.6,82.4-118.5,4.8-8.4-8.2-16-13-7.6-21.3,37.7-43.1,75.8-72.6,107.7-14.2,15.3-30,29-48,39.6-20.2,11.9-42.4,18.6-64.9,24.5-23.7,6.2-47.7,12-69.8,22.9a170.009,170.009,0,0,0-49.9,38c-28.4,31.1-46.6,71-55.5,112-12.8,59.1-8.5,119.8-4,179.6.6,8.5,12.7,9.5,14.7,2.7a7.1,7.1,0,0,0,9-3c20.6-34.5,21.8-75.4,24.2-114.4,2.2-37.4,5.8-77.7,31.9-106.9,24.2-27.1,59.7-39.8,93.3-50.7,37.6-12.1,74.8-23.6,109.1-43.8a349.212,349.212,0,0,0,103.6-93.4C1514.4,996,1512.5,990.9,1509.3,989Z" fill="#fff"/>
    <path id="Path_361" data-name="Path 361" d="M1496.6,1072c-1.8-3.2-7-5.1-10.3-2.7a956.069,956.069,0,0,1-170.2,102.1c-15,7-30.3,13.6-45.7,19.8-15.2,6.1-30.8,11.3-46.1,17.2-6.7,2.6-13.2,5.8-17.8,11.5-4.5,5.5-6.9,12.2-7.9,19.2-2.3,15.9-.8,32.4-1.8,48.4a458.436,458.436,0,0,1-22.6,116c-3,9.2,11.4,13.1,14.5,4a478.287,478.287,0,0,0,21.5-100.3,486.778,486.778,0,0,0,2.5-51.3c0-6.5,0-13,1.8-19.3,1.9-6.4,6.1-10.4,12.1-13,7.1-3.2,14.8-5.3,22.1-8,7.5-2.8,15-5.6,22.5-8.6,15.2-6,30.3-12.5,45.3-19.3a949.844,949.844,0,0,0,86.2-44.7,962.449,962.449,0,0,0,91.2-60.7C1497.2,1079.8,1498.8,1075.8,1496.6,1072Z" fill="#fff"/>
    <path id="Path_362" data-name="Path 362" d="M1416.1,895.2c-13.4,37.5-55.4,54.4-86.9,73.6a246.771,246.771,0,0,0-25.5,17.7c-8.6,6.9-15.9,15-23.8,22.7-7.6,7.4-16.1,14-27,15.2-10.5,1.2-21.3-.8-31.8-2-9.8-1.1-20.3-2-29.7,1.3-10.9,3.8-17.6,12.2-21.6,22.8-2,5.4-3.5,10.8-6.1,16a126.523,126.523,0,0,1-10.5,17.3c-7.3,10.5-15.4,20.4-22.5,31-27.4,40.7-45.5,87.7-53.3,136.1-8.9,54.5-5.3,110.8,11.9,163.3,3,9.1,17.5,5.2,14.5-4-30.1-92-17.3-196.3,33.9-278.5,13.3-21.3,31.8-39.9,41.5-63.2,3.9-9.3,5.4-21.9,15.9-26.3,8.4-3.5,18.7-1.7,27.5-.7,10.5,1.3,21.1,3,31.7,1.7,11.4-1.4,20.8-6.2,29.6-13.4s16-16.2,24.5-23.7a185.346,185.346,0,0,1,23.9-17.5c36.6-23.2,82.6-41.3,98.3-85.4C1433.8,890,1419.3,886.1,1416.1,895.2Z" fill="#fff"/>
    <path id="Path_363" data-name="Path 363" d="M732.5,1415.5a109.47,109.47,0,0,0-3.4-12.8,53.308,53.308,0,0,0-3.2-8.7c-16.5-39.6-53.9-68.5-95.5-79.3-27-7-55.6-7.3-83-2.3-24.9,4.5-49.8,14.6-66.5,34.3-29.4,34.9-31.7,87.9-2.8,123.6,35.4,43.7,96.9,48.5,147.9,35.9,28.9-7.1,61-18,82.7-39.2,12-11.8,20.4-28.1,21.9-44.8A7.469,7.469,0,0,0,732.5,1415.5Zm-33.1,39.7c-16.7,17-40.4,25.7-62.7,32.5-45.7,14-101,16.6-138.6-18.1-14.5-13.4-23.8-31.1-25.4-50.9a88.075,88.075,0,0,1,13.7-54.5c11.9-18.3,30.9-28.9,51.6-34.5a177.2,177.2,0,0,1,73.2-3.8c41.7,6.7,80.7,31.3,98.7,69.1a8.72,8.72,0,0,0,1,2.5c.3.5.6,1.1.9,1.6a88.872,88.872,0,0,1,3.2,8.6C718.9,1424.6,711.3,1443,699.4,1455.2Z" fill="#f0515e"/>
    <path id="Path_364" data-name="Path 364" d="M1135,47.8a312.6,312.6,0,0,0-37.4-69.2c-28.7-40-67.2-73.9-113.8-91.2a182.25,182.25,0,0,0-34.1-9,8.021,8.021,0,0,0-5.4,1c-58.5-9.7-118.1-18.1-177.2-8.6-48.8,7.9-97.8,29.7-131.1,67.1-17.5,19.8-31.5,44.2-35.2,70.7-3.6,26,3.9,53.6,25,70.5,10.3,8.3,22.2,12.2,35.3,13.1,13.5,1,27.2-.4,40,4.9,21.2,8.9,35.2,30.4,43.2,51.1,9.9,25.4,12.3,52.9,18.8,79.2,6.2,25.4,16.7,49.2,35.2,68,32.2,32.8,80.8,47.2,126,43.5,51.7-4.3,98.5-32,135.5-67.1a375.867,375.867,0,0,0,51.2-60.7c15.9-23.3,29.3-49.4,34.4-77.4C1150.6,104.3,1145.7,75.3,1135,47.8Zm-61.8,187.8c-32.3,37.6-73,70.1-121.5,83.3-41.3,11.2-87.6,5.4-123.6-18.3A112.884,112.884,0,0,1,787,252.5c-11.2-25-14-52.9-19.9-79.4-5.2-23.3-13.5-45.9-28.5-64.8s-35.3-29.5-59.5-30.6c-12.6-.5-25.8.5-37.2-5.8C632,66.5,624.6,57.5,620,47.4c-10.9-23.9-3.5-52,8.8-73.8,23.3-41.4,65.8-68,110.5-81.2,55.8-16.4,115.2-11.7,171.9-3.3,14.8,2.2,29.6,4.7,44.4,7.2a7.439,7.439,0,0,0,4.5-.5c40.4,10.3,75.8,34.2,104,65a292.579,292.579,0,0,1,40.5,57.1c12.8,23.4,23.9,49,27.2,75.6C1138.3,147.2,1106.7,196.6,1073.2,235.6Z" fill="#faff6e"/>
    <path id="Path_365" data-name="Path 365" d="M390.9,1038.9c-9.6-.9-11.2,14-1.5,14.9l173.2,16.9c9.6.9,11.2-14,1.5-14.9Z" fill="#f0515e"/>
    <path id="Path_366" data-name="Path 366" d="M969.4,249.6A1053.322,1053.322,0,0,0,862.2,118.5c-6.7-7-17.3,3.6-10.6,10.6A1021.914,1021.914,0,0,1,956.4,257.2C961.9,265.1,974.9,257.6,969.4,249.6Z" fill="#f0515e"/>
    <path id="Path_367" data-name="Path 367" d="M1314.9,854.9c-1.8-3.2-7-5.1-10.3-2.7-7.4,5.5-18.7,5.1-27.5,6.2-11.2,1.4-22.5,2.9-33.7,4.3-22.1,2.8-44.2,5.7-66.4,8.5-4,.5-7.5,3.1-7.5,7.5,0,3.7,3.5,8,7.5,7.5,23.4-3,46.9-6,70.3-9,11.6-1.5,23.1-3,34.7-4.4,10-1.3,21.7-1.4,30.2-7.6C1315.5,862.7,1317,858.7,1314.9,854.9Z" fill="#f0515e"/>
    <path id="Path_368" data-name="Path 368" d="M158.6,1310q-32.25-36-64.5-71.9c-6.5-7.2-17,3.4-10.6,10.6q32.25,36,64.5,71.9C154.5,1327.8,165.1,1317.1,158.6,1310Z" fill="#f0515e"/>
    <path id="Path_369" data-name="Path 369" d="M1330.8,1321.8a254.8,254.8,0,0,1-72.8-18c-3.8-1.5-8.2,1.7-9.2,5.2-1.2,4.3,1.5,7.7,5.2,9.2a271.143,271.143,0,0,0,76.8,18.5C1340.4,1337.7,1340.3,1322.7,1330.8,1321.8Z" fill="#f0515e"/>
    <path id="Path_370" data-name="Path 370" d="M1303.8,84.7l-47.9,27c-8.4,4.7-.9,17.7,7.6,13,16-9,31.9-18,47.9-27C1319.8,92.9,1312.3,80,1303.8,84.7Z" fill="#f0515e"/>
    <path id="Path_371" data-name="Path 371" d="M177.9,995.8c-5.6,16-11.2,31.9-16.7,47.9-3.2,9.1,11.3,13.1,14.5,4,5.6-16,11.2-31.9,16.7-47.9C195.6,990.7,181.1,986.7,177.9,995.8Z" fill="#f0515e"/>
    <path id="Path_372" data-name="Path 372" d="M1294,655.8a222.933,222.933,0,0,1-34.8-40.9c-5.3-8-18.3-.5-13,7.6a237.031,237.031,0,0,0,37.2,44C1290.5,673,1301.1,662.4,1294,655.8Z" fill="#f0515e"/>
    <path id="Path_373" data-name="Path 373" d="M774.7,982.9a159.174,159.174,0,0,0-51.9,14.3c-8.7,4.1-1.1,17,7.6,13a139.221,139.221,0,0,1,44.3-12.3c4-.4,7.5-3.2,7.5-7.5C782.2,986.6,778.7,982.4,774.7,982.9Z" fill="#f0515e"/>
    <path id="Path_374" data-name="Path 374" d="M594.7,1203.1l-36.9,38.1c-6.7,6.9,3.9,17.6,10.6,10.6l36.9-38.1C612.1,1206.8,601.5,1196.2,594.7,1203.1Z" fill="#f0515e"/>
    <path id="Path_375" data-name="Path 375" d="M808.1,27.8c-3.1-3.2-7.4-2.5-10.6,0a484.011,484.011,0,0,1-50.9,34.5c-8.3,4.9-.8,17.9,7.6,13a494.907,494.907,0,0,0,54-36.9C811.3,35.9,810.7,30.4,808.1,27.8Z" fill="#f0515e"/>
    <path id="Path_376" data-name="Path 376" d="M288.8,608.2c-12.8-12.2-25.5-24.5-38.3-36.7-7-6.7-17.6,3.9-10.6,10.6,12.8,12.2,25.5,24.5,38.3,36.7C285.2,625.5,295.8,614.9,288.8,608.2Z" fill="#f0515e"/>
    <path id="Path_377" data-name="Path 377" d="M444.3,205.8a124.053,124.053,0,0,0-14.7,42.6c-.6,4,1,8,5.2,9.2,3.5,1,8.6-1.2,9.2-5.2a111.936,111.936,0,0,1,13.2-39C462,204.9,449,197.3,444.3,205.8Z" fill="#f0515e"/>
    <path id="Path_378" data-name="Path 378" d="M412.3,1132a110.277,110.277,0,0,0-31.4-41.1c-12.8-10.4-27.3-18.1-41.6-26.2-13.6-7.7-27.2-15.9-37.5-27.9-12.7-14.8-16.1-34.5-16.8-53.4-1.6-43.9,11.2-86.6,13.7-130.2,2.1-37.5-3.6-76.9-28.1-106.7-22.3-27.2-57.8-42.2-92.6-43-37.5-.8-74,14.9-102.4,38.8-30.4,25.6-48.3,64-81.4,86.6-8.9,6.1-19,11.2-29.6,13.6a10.871,10.871,0,0,0-1.8.1c-3.2.5-6.4.9-9.6,1.4a54.864,54.864,0,0,1-9.9-.6c-3.4-.5-6.9.6-8.5,3.6-30,5.3-59.7,13.3-85.5,29.8-29.9,19.1-53.8,51.2-55.8,87.4-1.1,19.6,5.9,37.6,13.9,55,8.6,18.9,15.9,37.4,18,58.3,4.2,41-4,82.2-3.9,123.3.2,74.2,19.7,151.6,72.9,205.9,48.1,49,117,74.6,185,76.1,72.4,1.6,143-25.6,200.9-67.9a441.47,441.47,0,0,0,79.7-75.4c24.8-30.2,47-63.9,57.8-101.8C428,1202.9,427.2,1165.2,412.3,1132Zm-27.1,145.3c-17.8,32.1-41.6,61-67.7,86.6-50.2,49.2-113.1,86.6-182.7,99.5-64.3,11.9-133.6,0-189.1-34.9a214.054,214.054,0,0,1-69.3-69.5c-19.1-31.2-30.2-66.5-35.7-102.5-5.7-37.7-4-75.4-1.1-113.3,1.6-20.7,3-41.4,1.3-62.1a172.611,172.611,0,0,0-14.7-56.9c-7.6-17-17-34.2-17.7-53.2-.6-16.5,4.8-32.5,13.5-46.4,19.9-31.8,54.4-48.4,89.7-57.4,14.7-3.7,29.6-6.3,44.6-8.6,31.8-2.2,58.8-24.3,79.2-48.4,13-15.4,24.6-31.9,38.7-46.2A159.447,159.447,0,0,1,117,732.7c31.2-15.6,67.4-19,100.2-6.3a102.852,102.852,0,0,1,40.7,28.4c11.4,13.1,18.4,29.4,22.2,46.3,8.6,38.4.9,77.8-4.8,115.9-3.3,21.6-6.2,43.5-5.5,65.4.6,19.3,3.6,39.4,14.3,55.9,17.6,27,48.9,38.6,75,55.4,13.7,8.9,25.4,19.9,33.9,34a119.811,119.811,0,0,1,15.5,45.7C413.5,1209.7,402.7,1245.7,385.2,1277.3Z" fill="#faff6e"/>
    <path id="Path_379" data-name="Path 379" d="M1586.5,462.8c-34.3,8.7-69.5,16.8-104.2,5.4-29.8-9.8-55-30.1-78-50.8-23.5-21.1-50-44.4-56.2-77-2.8-14.7-.4-30.3,8.8-42.4,9.1-12,22.6-19.9,35.2-27.6l109.8-66.9c8.2-5,.7-18-7.6-13q-52.8,32.1-105.5,64.3c-13.9,8.5-28.6,16.9-39.7,29.1A65.9,65.9,0,0,0,1332,330c.9,36.5,25.8,64.6,51.1,88.1,24.9,23.1,51.3,46.2,82.9,59.6a135.178,135.178,0,0,0,58.5,11c22.4-.8,44.4-6.2,66-11.7C1599.9,475,1595.9,460.5,1586.5,462.8Z" transform="translate(1.239 35.111)" fill="#fff"/>
    <path id="Path_380" data-name="Path 380" d="M1589.5,548.4c-46.9,5.2-93.7-6-136.4-25.1a467.39,467.39,0,0,1-59.9-32.4c-17.6-11.3-34.3-24-48.3-39.5-27.1-29.9-39.4-70.2-32.3-110.1a127.394,127.394,0,0,1,23.4-54.6c11.4-15.2,26.3-27.6,41.8-38.4,35.8-24.9,76.6-43.4,107.2-75.2,6.7-7-3.9-17.6-10.6-10.6-28.3,29.4-65.8,47-99.3,69.5-16.7,11.2-32.8,23.8-45.8,39.2a141.567,141.567,0,0,0-28.8,55.6c-10.7,41.4-3,86.8,22.6,121.3,27,36.4,67.7,61.4,107.8,81.2,49,24.2,103.6,40.1,158.7,34.1,4-.4,7.5-3.1,7.5-7.5C1597,552.2,1593.6,548,1589.5,548.4Z" fill="#fff"/>
    <path id="Path_381" data-name="Path 381" d="M1539.8,615.2c-94.3-21.3-180.7-76.1-239.4-153-16.2-21.2-30.3-44.4-30.4-71.9-.1-26.3,9.3-52.7,20-76.4,19.7-44,49-82.7,82.1-117.3,38.4-40.2,81.7-75.3,125-109.9,3.2-2.5,2.6-7.9,0-10.6-3.1-3.2-7.5-2.5-10.6,0-78,62.3-160.1,128.8-204.8,220.4-11.5,23.6-21.5,49.1-25.2,75.1-2.1,14.8-2.1,29.8,1.8,44.3,3.5,13.3,9.9,25.8,17.3,37.2C1303,495.5,1341,531.9,1382,561a430.1,430.1,0,0,0,153.8,68.7C1545.2,631.8,1549.2,617.3,1539.8,615.2Z" fill="#fff"/>
    <path id="Path_382" data-name="Path 382" d="M1151.9,366.7c-9.7,0-9.7,15,0,15S1161.6,366.7,1151.9,366.7Z" fill="#1f75fe"/>
    <path id="Path_383" data-name="Path 383" d="M1090.5,387.2c-9.7,0-9.7,15,0,15S1100.2,387.2,1090.5,387.2Z" fill="#1f75fe"/>
    <path id="Path_384" data-name="Path 384" d="M1117.8,329.2c-9.7,0-9.7,15,0,15C1127.4,344.2,1127.5,329.2,1117.8,329.2Z" fill="#1f75fe"/>
    <path id="Path_385" data-name="Path 385" d="M1138.3,424.7c-9.7,0-9.7,15,0,15C1147.9,439.7,1147.9,424.7,1138.3,424.7Z" fill="#1f75fe"/>
    <path id="Path_386" data-name="Path 386" d="M1179.2,312.1c-9.7,0-9.7,15,0,15S1188.9,312.1,1179.2,312.1Z" fill="#1f75fe"/>
    <path id="Path_387" data-name="Path 387" d="M1090.5,428.1c-9.7,0-9.7,15,0,15S1100.2,428.1,1090.5,428.1Z" fill="#1f75fe"/>
    <path id="Path_388" data-name="Path 388" d="M1186,390.6c-9.7,0-9.7,15,0,15S1195.7,390.6,1186,390.6Z" fill="#1f75fe"/>
    <path id="Path_389" data-name="Path 389" d="M1076.9,342.9c-9.7,0-9.7,15,0,15C1086.5,357.9,1086.5,342.9,1076.9,342.9Z" fill="#1f75fe"/>
    <path id="Path_390" data-name="Path 390" d="M1131.4,291.7c-9.7,0-9.7,15,0,15S1141.1,291.7,1131.4,291.7Z" fill="#1f75fe"/>
    <path id="Path_392" data-name="Path 392" d="M1199.7,346.3c-9.7,0-9.7,15,0,15C1209.3,361.3,1209.3,346.3,1199.7,346.3Z" fill="#1f75fe"/>
    <path id="Path_394" data-name="Path 394" d="M1070,291.7c-9.7,0-9.7,15,0,15S1079.7,291.7,1070,291.7Z" fill="#1f75fe"/>
    <path id="Path_396" data-name="Path 396" d="M142.4,236.8q-26.85-46.35-53.6-92.7c-4.8-8.4-17.8-.8-13,7.6q26.85,46.35,53.6,92.7C134.3,252.7,147.3,245.2,142.4,236.8Z" fill="#f0515e"/>
    <path id="Path_397" data-name="Path 397" d="M121.4,402.9c-1-12.4-6.4-23.8-16.2-31.6-9.5-7.6-21.4-11.1-33.2-13.1-16.4-2.9-33.1-4.6-49.7-6.8-17.7-2.4-35.4-4.7-53.1-7.1-4-.5-7.5,3.8-7.5,7.5,0,4.5,3.5,7,7.5,7.5,28.9,3.9,57.7,7.7,86.6,11.6,19.2,2.6,44.8,5.7,50,28.2,5.3,23-12.7,42.8-29.8,55.3a233.12,233.12,0,0,1-65.7,33.5A245.063,245.063,0,0,1-72.1,500c-9.7-.2-9.7,14.8,0,15,55.2,1.4,111.8-15.3,156.4-48.2C104.7,451.7,123.6,430.1,121.4,402.9Z" fill="#fff"/>
    <path id="Path_398" data-name="Path 398" d="M56.8,408.4c-4.2-12.7-17.5-18.7-29.7-20.8-19.6-3.3-40.1-2-59.6,1.4-9.5,1.6-5.5,16.1,4,14.5,17.3-3,36.9-4.6,54.2-.9,5.2,1.1,11.2,2.8,14.8,7,4,4.6,2.7,10.3-.7,14.9-4.3,5.7-10.7,9.6-17,12.8A221.636,221.636,0,0,1-.7,447.4a243.251,243.251,0,0,1-53.2,13c-4,.5-7.5,3.1-7.5,7.5,0,3.7,3.5,8,7.5,7.5A267.837,267.837,0,0,0-3.7,464.3c15-5,31.4-10.8,44.2-20.2C51.7,435.8,61.6,423,56.8,408.4Z" fill="#fff"/>
    <path id="Path_399" data-name="Path 399" d="M880.5,1222.1c-9.7,0-9.7,15,0,15C890.1,1237.1,890.2,1222.1,880.5,1222.1Z" fill="#fff"/>
    <path id="Path_400" data-name="Path 400" d="M931.7,1232.3c-9.7,0-9.7,15,0,15C941.3,1247.3,941.3,1232.3,931.7,1232.3Z" fill="#fff"/>
    <path id="Path_401" data-name="Path 401" d="M935.1,1191.4c-9.7,0-9.7,15,0,15C944.7,1206.4,944.7,1191.4,935.1,1191.4Z" fill="#fff"/>
    <path id="Path_402" data-name="Path 402" d="M904.4,1191.4c-9.7,0-9.7,15,0,15C914,1206.4,914,1191.4,904.4,1191.4Z" fill="#fff"/>
    <path id="Path_403" data-name="Path 403" d="M887.3,1153.8c-9.7,0-9.7,15,0,15S897,1153.8,887.3,1153.8Z" fill="#fff"/>
    <path id="Path_404" data-name="Path 404" d="M856.6,1184.5c-9.7,0-9.7,15,0,15S866.3,1184.5,856.6,1184.5Z" fill="#fff"/>
    <path id="Path_405" data-name="Path 405" d="M928.3,1160.7c-9.7,0-9.7,15,0,15C937.9,1175.7,937.9,1160.7,928.3,1160.7Z" fill="#fff"/>
    <path id="Path_406" data-name="Path 406" d="M976,1215.2c-9.7,0-9.7,15,0,15S985.7,1215.2,976,1215.2Z" fill="#fff"/>
    <path id="Path_407" data-name="Path 407" d="M321,410.1c-9.7,0-9.7,15,0,15C330.6,425.1,330.6,410.1,321,410.1Z" fill="#fff"/>
    <path id="Path_408" data-name="Path 408" d="M293.7,416.9c-9.7,0-9.7,15,0,15C303.3,431.9,303.3,416.9,293.7,416.9Z" fill="#fff"/>
    <path id="Path_409" data-name="Path 409" d="M309.2,388.4a8.144,8.144,0,0,0-5.3-2.2h-3.4a7.671,7.671,0,0,0-5.3,2.2,7.484,7.484,0,0,0,0,10.6,8.144,8.144,0,0,0,5.3,2.2h3.4a7.671,7.671,0,0,0,5.3-2.2,7.493,7.493,0,0,0,2.2-5.3A7.322,7.322,0,0,0,309.2,388.4Z" fill="#fff"/>
    <path id="Path_410" data-name="Path 410" d="M348.2,386.2c-9.7,0-9.7,15,0,15S357.9,386.2,348.2,386.2Z" fill="#fff"/>
    <path id="Path_411" data-name="Path 411" d="M348.2,420.3c-9.7,0-9.7,15,0,15S357.9,420.3,348.2,420.3Z" fill="#fff"/>
    <path id="Path_412" data-name="Path 412" d="M317.5,441.4c-9.7,0-9.7,15,0,15S327.2,441.4,317.5,441.4Z" fill="#fff"/>
    <path id="Path_871" data-name="Path 871" d="M1044.3,987.3c-9.7,0-9.7,15,0,15C1053.9,1002.3,1053.9,987.3,1044.3,987.3Z" transform="translate(21.196 36.2)" fill="#5cdfff"/>
    <path id="Path_872" data-name="Path 872" d="M99.2,1140.9c-9.7,0-9.7,15,0,15C108.8,1155.9,108.9,1140.9,99.2,1140.9Z" transform="translate(-40.506 28)" fill="#1f75fe"/>
    <path id="Path_873" data-name="Path 873" d="M1076.9,342.9c-9.7,0-9.7,15,0,15C1086.5,357.9,1086.5,342.9,1076.9,342.9Z" transform="translate(-31 70.2)" fill="#1f75fe"/>
    <text id="T" transform="translate(403 751)" fill="#1f75fe" font-size="147" font-family="Kefa-Regular, Kefa"><tspan x="0" y="0">T</tspan></text>
    <text id="O" transform="translate(505 751)" fill="#fea81f" font-size="147" font-family="Kefa-Regular, Kefa"><tspan x="0" y="0">O</tspan></text>
    <text id="M" transform="translate(618 751)" fill="#1f75fe" font-size="147" font-family="Kefa-Regular, Kefa"><tspan x="0" y="0">M</tspan></text>
    <text id="O-2" data-name="O" transform="translate(755 751)" fill="#fea81f" font-size="147" font-family="Kefa-Regular, Kefa"><tspan x="0" y="0">O</tspan></text>
    <text id="J" transform="translate(871 751)" fill="#1f75fe" font-size="147" font-family="Kefa-Regular, Kefa"><tspan x="0" y="0">J</tspan></text>
    <text id="O-3" data-name="O" transform="translate(934 751)" fill="#fea81f" font-size="147" font-family="Kefa-Regular, Kefa"><tspan x="0" y="0">O</tspan></text>
    <path id="Path_874" data-name="Path 874" d="M1138.3,424.7c-9.7,0-9.7,15,0,15C1147.9,439.7,1147.9,424.7,1138.3,424.7Z" transform="translate(55.45 23)" fill="#1f75fe"/>
    <path id="Path_875" data-name="Path 875" d="M1138.3,424.7c-9.7,0-9.7,15,0,15C1147.9,439.7,1147.9,424.7,1138.3,424.7Z" transform="translate(-5.988 46)" fill="#1f75fe"/>
  </g>
</svg>
