<svg xmlns="http://www.w3.org/2000/svg" width="83.411" height="261.657" viewBox="0 0 83.411 261.657">
  <g id="Group_122" data-name="Group 122" transform="translate(-201 -685.665)">
    <path id="Path_1294" data-name="Path 1294" d="M6.88,0c-9.174,0-9.174,14.187,0,14.187S16.055,0,6.88,0Z" transform="matrix(-0.819, 0.574, -0.574, -0.819, 252.352, 697.286)" fill="#1f75fe" opacity="0.2"/>
    <path id="Path_1295" data-name="Path 1295" d="M6.88,0c-9.174,0-9.174,14.186,0,14.186S16.054,0,6.88,0Z" transform="matrix(-0.819, 0.574, -0.574, -0.819, 252.409, 805.702)" fill="#1f75fe" opacity="0.2"/>
    <path id="Path_1296" data-name="Path 1296" d="M6.88,0c-9.174,0-9.174,14.187,0,14.187C15.961,14.187,16.054,0,6.88,0Z" transform="matrix(-0.819, 0.574, -0.574, -0.819, 220.38, 874.132)" fill="#1f75fe" opacity="0.2"/>
    <path id="Path_1297" data-name="Path 1297" d="M6.88,0c-9.174,0-9.174,14.187,0,14.187C15.959,14.187,15.959,0,6.88,0Z" transform="matrix(-0.819, 0.574, -0.574, -0.819, 284.352, 773.683)" fill="#1f75fe" opacity="0.2"/>
    <path id="Path_1298" data-name="Path 1298" d="M6.88,0c-9.174,0-9.174,14.187,0,14.187S16.055,0,6.88,0Z" transform="matrix(-0.819, 0.574, -0.574, -0.819, 284.41, 901.584)" fill="#1f75fe" opacity="0.2"/>
    <path id="Path_1299" data-name="Path 1299" d="M6.88,0c-9.174,0-9.174,14.187,0,14.187S16.054,0,6.88,0Z" transform="matrix(-0.819, 0.574, -0.574, -0.819, 220.409, 732.138)" fill="#1f75fe" opacity="0.2"/>
    <path id="Path_1300" data-name="Path 1300" d="M6.881,0c-9.175,0-9.175,14.187,0,14.187S16.055,0,6.881,0Z" transform="matrix(-0.819, 0.574, -0.574, -0.819, 284.41, 825.978)" fill="#1f75fe" opacity="0.2"/>
    <path id="Path_1301" data-name="Path 1301" d="M6.881,0c-9.175,0-9.175,14.187,0,14.187C15.96,14.187,15.96,0,6.881,0Z" transform="matrix(-0.819, 0.574, -0.574, -0.819, 252.352, 744.299)" fill="#1f75fe" opacity="0.2"/>
    <path id="Path_1302" data-name="Path 1302" d="M6.88,0c-9.174,0-9.174,14.187,0,14.187S16.055,0,6.88,0Z" transform="matrix(-0.819, 0.574, -0.574, -0.819, 252.41, 939.429)" fill="#1f75fe" opacity="0.2"/>
    <path id="Path_1303" data-name="Path 1303" d="M6.88,0c-9.174,0-9.174,14.187,0,14.187C15.961,14.187,15.961,0,6.88,0Z" transform="matrix(-0.819, 0.574, -0.574, -0.819, 284.353, 859.58)" fill="#1f75fe" opacity="0.2"/>
    <path id="Path_1304" data-name="Path 1304" d="M6.88,0c-9.174,0-9.174,14.187,0,14.187S16.054,0,6.88,0Z" transform="matrix(-0.819, 0.574, -0.574, -0.819, 220.409, 922.495)" fill="#1f75fe" opacity="0.2"/>
    <path id="Path_1305" data-name="Path 1305" d="M6.881,0c-9.175,0-9.175,14.187,0,14.187S16.055,0,6.881,0Z" transform="matrix(-0.819, 0.574, -0.574, -0.819, 220.41, 770.458)" fill="#1f75fe" opacity="0.2"/>
    <path id="Path_1306" data-name="Path 1306" d="M6.881,0c-9.175,0-9.175,14.187,0,14.187S16.055,0,6.881,0Z" transform="matrix(-0.819, 0.574, -0.574, -0.819, 252.41, 861.815)" fill="#1f75fe" opacity="0.2"/>
    <path id="Path_1307" data-name="Path 1307" d="M6.881,0c-9.175,0-9.175,14.187,0,14.187S16.055,0,6.881,0Z" transform="matrix(-0.819, 0.574, -0.574, -0.819, 252.41, 898.414)" fill="#1f75fe" opacity="0.2"/>
    <path id="Path_1308" data-name="Path 1308" d="M6.88,0c-9.174,0-9.174,14.187,0,14.187C15.961,14.187,16.054,0,6.88,0Z" transform="matrix(-0.819, 0.574, -0.574, -0.819, 284.381, 930.454)" fill="#1f75fe" opacity="0.2"/>
    <path id="Path_1309" data-name="Path 1309" d="M6.88,0c-9.174,0-9.174,14.187,0,14.187C15.961,14.187,16.054,0,6.88,0Z" transform="matrix(-0.819, 0.574, -0.574, -0.819, 220.38, 818.842)" fill="#1f75fe" opacity="0.2"/>
  </g>
</svg>
