<svg xmlns="http://www.w3.org/2000/svg" xmlns:xlink="http://www.w3.org/1999/xlink" width="264.71" height="385.762" viewBox="0 0 264.71 385.762">
  <defs>
    <clipPath id="clip-path">
      <path id="Path_1349" data-name="Path 1349" d="M1314.29,0H1511a68,68,0,0,1,68,68V385.763l-255.466-1.254Z" transform="translate(171 194)" fill="#1551b1"/>
    </clipPath>
  </defs>
  <g id="Mask_Group_17" data-name="Mask Group 17" transform="translate(-1485.29 -194)" clip-path="url(#clip-path)">
    <path id="Path_934" data-name="Path 934" d="M403.839,90.985c-5.265-21.473-14.514-42.58-30.676-58.1C357.734,18,337.5,8.939,316.756,4.268c-22.8-5.128-47.891-6.41-70.463.5-21.382,6.547-38.826,21.015-52.973,37.91-7.234,8.608-13.507,17.856-19.962,27.1-6.547,9.34-13.827,18.68-24.037,24.175-8.882,4.807-19.276,5.906-28.341,1.053-7.234-3.892-12.82-10.256-18.131-16.345-5.677-6.547-11.217-13.186-18.177-18.406a39.309,39.309,0,0,0-25.777-8.1c-20.466,1.1-38.139,15.75-46.976,33.561a75.489,75.489,0,0,0-1.19,64.1c4.762,10.714,11.675,20.42,15.887,31.363,3.663,9.523,5.815,21.2,1.053,30.722-3.983,8.012-11.95,12.957-18.222,19.047C2.991,237.223-1.588,245.419.518,254.667c2.243,9.706,11.08,16.574,19.825,20.237,9.432,3.892,20.283,4.441,30.356,3.388,21.611-2.2,41.573-11.309,62.405-16.666,10.073-2.61,20.283-4.258,30.722-3.663a2.993,2.993,0,0,0,2.656-1.145,20.152,20.152,0,0,1,5.815,4.35c3.617,3.754,6.868,8.2,11.675,10.576,10.073,4.991,21.153-.137,28.753-7.188,7.555-7.051,12.042-16.94,20.283-23.259,8.516-6.547,19.459-6.181,29.211-2.884,21.061,7.1,34.659,26.6,54.9,35.209,20.191,8.608,42.534,3.159,60.116-8.791,35.346-23.991,50.73-68.266,52.79-109.289A218.84,218.84,0,0,0,403.839,90.985Z" transform="translate(1948.516 437.517) rotate(-163)" fill="#1f75fe" opacity="0.2"/>
  </g>
</svg>
