<svg xmlns="http://www.w3.org/2000/svg" xmlns:xlink="http://www.w3.org/1999/xlink" width="220" height="795" viewBox="0 0 220 795">
  <defs>
    <clipPath id="clip-path">
      <rect id="Rectangle_138" data-name="Rectangle 138" width="220" height="795" rx="68" transform="translate(171 194)" fill="#1551b1"/>
    </clipPath>
  </defs>
  <g id="Mask_Group_12" data-name="Mask Group 12" transform="translate(-171 -194)" clip-path="url(#clip-path)">
    <g id="Group_121" data-name="Group 121">
      <path id="Path_415" data-name="Path 415" d="M1339.583,411.44c27.857,7.066,56.445,13.644,84.628,4.386,24.2-7.959,44.669-24.446,63.349-41.258,19.086-17.137,40.608-36.06,45.644-62.536,2.274-11.939.325-24.608-7.148-34.436-7.391-9.746-18.354-16.162-28.588-22.416l-89.176-54.334c-6.66-4.061-.568-14.619,6.173-10.558q42.882,26.07,85.683,52.222c11.289,6.9,23.228,13.726,32.243,23.634a53.521,53.521,0,0,1,13.888,37.441c-.731,29.644-20.954,52.466-41.5,71.551-20.223,18.761-41.664,37.522-67.328,48.4a109.784,109.784,0,0,1-47.511,8.934c-18.193-.65-36.06-5.035-53.6-9.5C1328.7,421.349,1331.949,409.572,1339.583,411.44Z" transform="translate(-1273.379 160.813)" fill="#1f75fe" opacity="0.2"/>
      <path id="Path_416" data-name="Path 416" d="M1301.993,475.482c38.09,4.223,76.1-4.873,110.779-20.385a379.607,379.607,0,0,0,48.648-26.314c14.294-9.177,27.857-19.492,39.228-32.08,22.01-24.284,32-57.014,26.233-89.419a103.46,103.46,0,0,0-19-44.344c-9.259-12.345-21.36-22.416-33.948-31.187-29.075-20.223-62.212-35.248-87.064-61.075-5.441-5.685,3.167-14.294,8.609-8.609,22.984,23.878,53.44,38.172,80.648,56.445,13.563,9.1,26.639,19.329,37.2,31.837a114.973,114.973,0,0,1,23.39,45.156c8.69,33.624,2.437,70.5-18.355,98.515-21.928,29.563-54.983,49.867-87.551,65.948-39.8,19.654-84.14,32.568-128.89,27.695-3.249-.325-6.091-2.518-6.091-6.091C1295.9,478.568,1298.663,475.157,1301.993,475.482Z" transform="translate(-1238.225 154.082)" fill="#1f75fe" opacity="0.2"/>
      <path id="Path_417" data-name="Path 417" d="M1259.452,513.533c76.587-17.3,146.758-61.806,194.431-124.261,13.157-17.218,24.609-36.06,24.69-58.394.081-21.36-7.553-42.8-16.243-62.049-16-35.735-39.8-67.166-66.678-95.267-31.187-32.649-66.353-61.156-101.52-89.257-2.6-2.03-2.112-6.416,0-8.609,2.518-2.6,6.091-2.03,8.609,0,63.349,50.6,130.027,104.606,166.331,179,9.34,19.167,17.462,39.877,20.466,60.993,1.706,12.02,1.706,24.2-1.462,35.979-2.843,10.8-8.04,20.954-14.05,30.212-22.253,34.436-53.115,64-86.414,87.632a349.3,349.3,0,0,1-124.91,55.8C1255.066,527.015,1251.818,515.239,1259.452,513.533Z" transform="translate(-1155.319 170.284)" fill="#1f75fe" opacity="0.2"/>
    </g>
  </g>
</svg>
