<svg xmlns="http://www.w3.org/2000/svg" xmlns:xlink="http://www.w3.org/1999/xlink" width="200" height="200" viewBox="0 0 200 200">
  <defs>
    <clipPath id="clip-Corner_1">
      <rect width="200" height="200"/>
    </clipPath>
  </defs>
  <g id="Corner_1" data-name="Corner 1" clip-path="url(#clip-Corner_1)">
    <path id="Path_364" data-name="Path 364" d="M158.865,53.791a92.819,92.819,0,0,0-11.1-20.546C139.24,21.368,127.809,11.3,113.973,6.167a54.112,54.112,0,0,0-10.125-2.672,2.381,2.381,0,0,0-1.6.3C84.876.911,67.18-1.583,49.633,1.238,35.144,3.583,20.6,10.056,10.708,21.16,5.512,27.039,1.356,34.284.257,42.152-.812,49.871,1.415,58.066,7.68,63.084a18.175,18.175,0,0,0,10.481,3.889c4.008.3,8.076-.119,11.876,1.455,6.294,2.643,10.451,9.026,12.826,15.172,2.94,7.542,3.652,15.706,5.582,23.515,1.841,7.542,4.958,14.608,10.451,20.19,9.561,9.739,23.99,14.014,37.41,12.916,15.35-1.277,29.246-9.5,40.231-19.923a111.6,111.6,0,0,0,15.2-18.022c4.721-6.918,8.7-14.667,10.214-22.981C163.5,70.566,162.042,61.956,158.865,53.791Zm-18.349,55.76c-9.59,11.164-21.674,20.813-36.074,24.733-12.262,3.325-26.009,1.6-36.7-5.433a33.518,33.518,0,0,1-12.2-14.281c-3.325-7.423-4.157-15.706-5.909-23.575-1.544-6.918-4.008-13.628-8.462-19.24A23.226,23.226,0,0,0,23.5,62.668c-3.741-.148-7.66.148-11.045-1.722a15.482,15.482,0,0,1-6.5-7.274C2.721,46.576,4.918,38.233,8.57,31.76,15.488,19.468,28.107,11.57,41.379,7.651c16.567-4.869,34.2-3.474,51.039-.98,4.394.653,8.788,1.4,13.183,2.138a2.209,2.209,0,0,0,1.336-.148c12,3.058,22.505,10.154,30.878,19.3a86.887,86.887,0,0,1,12.025,16.954c3.8,6.948,7.1,14.549,8.076,22.446C159.845,83.3,150.463,97.971,140.516,109.55Z" transform="translate(136.213 97.929) rotate(180)" fill="#5cdfff"/>
    <g id="Group_36" data-name="Group 36" transform="translate(-65.062 -6.199)">
      <path id="Path_322" data-name="Path 322" d="M103.539,50.883c-.654-12.4-4.711-24.634-12.693-34.252A46.857,46.857,0,0,0,60.913.306c-26.63-3.271-41.58,20.283-52.7,40.468C-.885,57.3-.012,68.523.049,74.639S4.317,93.347,7.621,99.6a128.471,128.471,0,0,0,8.6,14.46c6.117,8.735,14.427,17.077,25.419,18.811,12.4,1.963,23.587-4.547,32.126-12.988a100.359,100.359,0,0,0,12.039-14.787,114.529,114.529,0,0,0,9.814-17.044C101.021,76.466,104.227,63.74,103.539,50.883Z" transform="translate(123.103 160.643) rotate(180)" fill="#1f75fe"/>
      <path id="Path_379" data-name="Path 379" d="M83.264,89.45c-11.221,2.846-22.737,5.5-34.088,1.767C39.427,88.01,31.183,81.369,23.658,74.6,15.971,67.694,7.3,60.072,5.273,49.407A17.41,17.41,0,0,1,8.152,35.536c2.977-3.926,7.394-6.51,11.515-9.029L55.588,4.621C58.27,2.985,55.817-1.268,53.1.368Q35.828,10.869,18.588,21.4c-4.547,2.781-9.356,5.529-12.987,9.52A21.557,21.557,0,0,0,.006,46C.3,57.945,8.446,67.138,16.723,74.826c8.146,7.557,16.783,15.114,27.12,19.5a44.224,44.224,0,0,0,19.138,3.6c7.328-.262,14.525-2.028,21.592-3.828C87.648,93.441,86.339,88.7,83.264,89.45Z" transform="translate(86.731 144.118) rotate(180)" fill="#fff"/>
      <path id="Path_380" data-name="Path 380" d="M96.075,127c-15.343,1.7-30.653-1.963-44.622-8.211a152.9,152.9,0,0,1-19.6-10.6,77.1,77.1,0,0,1-15.8-12.922A42.477,42.477,0,0,1,5.489,59.244a41.676,41.676,0,0,1,7.655-17.862A58.787,58.787,0,0,1,26.819,28.82c11.712-8.146,25.059-14.2,35.07-24.6,2.192-2.29-1.276-5.758-3.468-3.468-9.259,9.618-21.526,15.376-32.486,22.737A71.164,71.164,0,0,0,10.952,36.311,46.314,46.314,0,0,0,1.53,54.5,47.2,47.2,0,0,0,8.924,94.183c8.833,11.908,22.147,20.087,35.266,26.564,16.03,7.917,33.892,13.119,51.917,11.156A2.454,2.454,0,1,0,96.075,127Z" transform="translate(98.561 153.661) rotate(180)" fill="#fff"/>
      <path id="Path_381" data-name="Path 381" d="M93.138,177.066A137.38,137.38,0,0,1,14.82,127.013c-5.3-6.935-9.913-14.525-9.945-23.522-.033-8.6,3.042-17.241,6.543-24.994C17.863,64.1,27.448,51.442,38.276,40.123,50.839,26.972,65,15.489,79.169,4.17a2.468,2.468,0,0,0,0-3.468A2.5,2.5,0,0,0,75.7.7C50.185,21.083,23.326,42.838,8.7,72.8,4.94,80.525,1.669,88.867.459,97.373a36.043,36.043,0,0,0,.589,14.493,42.573,42.573,0,0,0,5.66,12.17c8.964,13.871,21.4,25.779,34.808,35.3A140.7,140.7,0,0,0,91.83,181.809C94.9,182.5,96.213,177.753,93.138,177.066Z" transform="translate(111.883 181.877) rotate(180)" fill="#fff"/>
    </g>
    <path id="Path_382" data-name="Path 382" d="M2.014,0c-2.685,0-2.685,4.153,0,4.153S4.7,0,2.014,0Z" transform="matrix(-0.819, 0.574, -0.574, -0.819, 83.475, 40.336)" fill="#fea81f"/>
    <path id="Path_383" data-name="Path 383" d="M2.014,0c-2.685,0-2.685,4.152,0,4.152S4.7,0,2.014,0Z" transform="matrix(-0.819, 0.574, -0.574, -0.819, 90.259, 30.044)" fill="#fea81f"/>
    <path id="Path_384" data-name="Path 384" d="M2.014,0c-2.685,0-2.685,4.153,0,4.153C4.672,4.153,4.7,0,2.014,0Z" transform="matrix(-0.819, 0.574, -0.574, -0.819, 97.164, 43.425)" fill="#fea81f"/>
    <path id="Path_385" data-name="Path 385" d="M2.014,0c-2.685,0-2.685,4.153,0,4.153C4.671,4.153,4.671,0,2.014,0Z" transform="matrix(-0.819, 0.574, -0.574, -0.819, 77.35, 25.024)" fill="#fea81f"/>
    <path id="Path_386" data-name="Path 386" d="M2.014,0c-2.685,0-2.685,4.153,0,4.153S4.7,0,2.014,0Z" transform="matrix(-0.819, 0.574, -0.574, -0.819, 85.956, 57.052)" fill="#fea81f"/>
    <path id="Path_387" data-name="Path 387" d="M2.014,0c-2.685,0-2.685,4.153,0,4.153S4.7,0,2.014,0Z" transform="matrix(-0.819, 0.574, -0.574, -0.819, 51.439, 15.193)" fill="#fea81f"/>
    <path id="Path_388" data-name="Path 388" d="M2.014,0c-2.686,0-2.686,4.153,0,4.153S4.7,0,2.014,0Z" transform="matrix(-0.819, 0.574, -0.574, -0.819, 71.948, 40.332)" fill="#fea81f"/>
    <path id="Path_389" data-name="Path 389" d="M2.014,0c-2.686,0-2.686,4.153,0,4.153C4.672,4.153,4.672,0,2.014,0Z" transform="matrix(-0.819, 0.574, -0.574, -0.819, 67.782, 16.647)" fill="#fea81f"/>
    <path id="Path_390" data-name="Path 390" d="M2.014,0c-2.685,0-2.685,4.153,0,4.153S4.7,0,2.014,0Z" transform="matrix(-0.819, 0.574, -0.574, -0.819, 84.578, 73.769)" fill="#fea81f"/>
    <path id="Path_392" data-name="Path 392" d="M2.014,0c-2.685,0-2.685,4.153,0,4.153C4.672,4.153,4.672,0,2.014,0Z" transform="matrix(-0.819, 0.574, -0.574, -0.819, 75.875, 52.552)" fill="#fea81f"/>
    <path id="Path_394" data-name="Path 394" d="M2.014,0c-2.685,0-2.685,4.153,0,4.153S4.7,0,2.014,0Z" transform="matrix(-0.819, 0.574, -0.574, -0.819, 74.139, 79.429)" fill="#fea81f"/>
    <path id="Path_418" data-name="Path 418" d="M2.014,0c-2.686,0-2.686,4.153,0,4.153S4.7,0,2.014,0Z" transform="matrix(-0.819, 0.574, -0.574, -0.819, 61.235, 30.592)" fill="#fea81f"/>
    <path id="Path_419" data-name="Path 419" d="M2.014,0c-2.686,0-2.686,4.153,0,4.153S4.7,0,2.014,0Z" transform="matrix(-0.819, 0.574, -0.574, -0.819, 64.156, 51.044)" fill="#fea81f"/>
    <path id="Path_420" data-name="Path 420" d="M2.014,0c-2.686,0-2.686,4.153,0,4.153S4.7,0,2.014,0Z" transform="matrix(-0.819, 0.574, -0.574, -0.819, 70.974, 63.705)" fill="#fea81f"/>
    <path id="Path_421" data-name="Path 421" d="M2.014,0c-2.685,0-2.685,4.153,0,4.153C4.672,4.153,4.7,0,2.014,0Z" transform="matrix(-0.819, 0.574, -0.574, -0.819, 95.932, 63.711)" fill="#fea81f"/>
    <path id="Path_422" data-name="Path 422" d="M2.014,0c-2.685,0-2.685,4.153,0,4.153C4.672,4.153,4.7,0,2.014,0Z" transform="matrix(-0.819, 0.574, -0.574, -0.819, 100, 52.552)" fill="#fea81f"/>
  </g>
</svg>
