<svg xmlns="http://www.w3.org/2000/svg" xmlns:xlink="http://www.w3.org/1999/xlink" width="223" height="200" viewBox="0 0 223 200">
  <defs>
    <clipPath id="clip-Corner_2">
      <rect width="223" height="200"/>
    </clipPath>
  </defs>
  <g id="Corner_2" data-name="Corner 2" clip-path="url(#clip-Corner_2)">
    <g id="Group_37" data-name="Group 37" transform="translate(-259 -83.176)">
      <path id="Path_324" data-name="Path 324" d="M134.124,30.218c-1.749-7.132-4.82-14.142-10.188-19.3-5.125-4.942-11.846-7.953-18.734-9.5C97.629-.285,89.3-.711,81.8,1.585,74.7,3.759,68.9,8.565,64.206,14.176c-2.4,2.859-4.486,5.93-6.63,9-2.174,3.1-4.592,6.2-7.983,8.029a9.819,9.819,0,0,1-9.413.35,22.778,22.778,0,0,1-6.022-5.429,40.255,40.255,0,0,0-6.037-6.113,13.055,13.055,0,0,0-8.561-2.692c-6.8.365-12.667,5.231-15.6,11.146a25.072,25.072,0,0,0-.4,21.289C5.145,53.317,7.441,56.54,8.84,60.175c1.216,3.163,1.931,7.041.35,10.2-1.323,2.661-3.969,4.3-6.052,6.326C.993,78.787-.527,81.509.172,84.581c.745,3.224,3.68,5.5,6.584,6.721a21.026,21.026,0,0,0,10.082,1.125c7.177-.73,13.807-3.756,20.726-5.535a33.053,33.053,0,0,1,10.2-1.216.994.994,0,0,0,.882-.38,6.692,6.692,0,0,1,1.931,1.445c1.2,1.247,2.281,2.722,3.878,3.512,3.345,1.658,7.025-.046,9.55-2.387,2.509-2.342,4-5.626,6.736-7.725,2.828-2.174,6.463-2.053,9.7-.958,6.995,2.357,11.511,8.835,18.232,11.694,6.706,2.859,14.127,1.049,19.966-2.92,11.739-7.968,16.849-22.673,17.533-36.3A72.683,72.683,0,0,0,134.124,30.218Z" transform="matrix(1, 0.017, -0.017, 1, 393.344, 210.228)" fill="#1f75fe"/>
      <path id="Path_326" data-name="Path 326" d="M150.736,61.8a14.948,14.948,0,0,0-8.044-8.075,21.951,21.951,0,0,0-12.773-1A49.433,49.433,0,0,1,124,53.844a6.063,6.063,0,0,1-3.8-.7c2.144-2.007,2.631-5.276,1.84-8.12-1.095-3.908-4.379-6.341-8.166-7.375a25.47,25.47,0,0,0-6.615-.76,31.336,31.336,0,0,1-3.376.046,1.874,1.874,0,0,1-1.673-1.125c-.532-1.445.243-3.345.867-4.653,1.019-2.114,2.2-4.09,3.072-6.28,1.734-4.364,2.585-9.352,1.08-13.914a16.338,16.338,0,0,0-7.588-9A15.17,15.17,0,0,0,87.98.607a16.663,16.663,0,0,0-9.276,7.1c-2.57,4.136-2.6,8.957-1.87,13.625.684,4.44,1.764,8.744,1.7,13.275a28.513,28.513,0,0,1-2.3,11.237c-1.521,3.361-3.984,6.66-7.329,8.379a2.906,2.906,0,0,1-3.5-.426,18,18,0,0,1-2.631-3.33,14.982,14.982,0,0,0-3.209-3.574,6.33,6.33,0,0,0-5.4-1,12.441,12.441,0,0,0-5.6,3.634,40.112,40.112,0,0,1-4.349,4.455,7.442,7.442,0,0,1-2.57,1.293c-1.019.259-1.688.076-1.992-.973-.669-2.4-.289-5.048-.456-7.512A11.563,11.563,0,0,0,37.1,40.356a6.848,6.848,0,0,0-5.018-2.92c-4.881-.228-6.98,5.657-8.546,9.261a20.911,20.911,0,0,1-3.391,5.9,7.931,7.931,0,0,1-5.079,2.844c-3.634.243-6.326-3.178-9.382-4.592a6.537,6.537,0,0,0-4.9-.487c-1.384.456-.791,2.661.608,2.2a4.978,4.978,0,0,1,4.136.775c1.551.9,2.935,2.053,4.486,2.95a8.917,8.917,0,0,0,5.277,1.414,9.857,9.857,0,0,0,5.55-2.585c3.528-3.132,4.592-7.846,6.782-11.846.882-1.6,2.2-3.558,4.243-3.558,1.825,0,3.269,1.551,4.06,3.041,1.11,2.053,1.049,4.5,1.064,6.752a33.116,33.116,0,0,0,.2,3.878,6.352,6.352,0,0,0,.928,2.965c1.414,1.946,4.09,1.369,5.93.426a16.577,16.577,0,0,0,4.562-3.923c2.251-2.509,6.1-6.782,9.717-4.03,2.3,1.749,3.3,4.683,5.444,6.584A5.375,5.375,0,0,0,67.6,56.916c2.053-.122,3.847-1.49,5.353-2.783a21.675,21.675,0,0,0,6.113-9.352,32.723,32.723,0,0,0,1.718-11.359c-.076-4.592-1.308-8.972-1.9-13.5-.563-4.349-.182-8.774,2.661-12.3a14.043,14.043,0,0,1,9.7-5.292,13.784,13.784,0,0,1,14.446,14.9,22.9,22.9,0,0,1-1.642,6.812c-.806,2.1-1.977,3.969-2.95,5.991a10.531,10.531,0,0,0-1.308,5.277,4.081,4.081,0,0,0,3.254,3.817,16.654,16.654,0,0,0,3.482.076c1.049-.015,2.1,0,3.148.076a15.706,15.706,0,0,1,5.93,1.475,8.028,8.028,0,0,1,3.756,3.619,7.515,7.515,0,0,1,.7,4.349,4.509,4.509,0,0,1-2.159,3.33,1.16,1.16,0,0,0-.411,1.566c2.144,2.889,5.687,2.813,8.911,2.22,1.718-.319,3.391-.806,5.125-1.065a21.786,21.786,0,0,1,5.885-.091,14.248,14.248,0,0,1,9.443,4.988c2.1,2.616,3.178,6.265,1.946,9.5-1.232,3.224-4.729,5.915-8.287,5.277-1.429-.259-2.053,1.946-.608,2.2a9.946,9.946,0,0,0,9.626-4.151A10.985,10.985,0,0,0,150.736,61.8Z" transform="matrix(1, 0.017, -0.017, 1, 282.764, 211.511)" fill="#5cdfff"/>
      <path id="Path_360" data-name="Path 360" d="M58.953,16.461a1.174,1.174,0,0,0-1.566.411A50.094,50.094,0,0,1,43.595,29.554a48.8,48.8,0,0,1-8.364,4.182c-2.691,1.034-5.459,1.855-8.2,2.737-5.246,1.673-10.736,3.573-14.811,7.451C7.845,48.09,6.43,53.869,5.914,59.693c-.548,6.174-.167,12.88-3.1,18.506C1.823,64.589,1.321,49.428,10.6,38.4a24.722,24.722,0,0,1,7.026-5.839,43.962,43.962,0,0,1,10.142-3.482,45.413,45.413,0,0,0,10.279-3.634,33.334,33.334,0,0,0,7.542-5.718c5.2-5.2,8.941-11.648,12.53-18.019A1.146,1.146,0,0,0,56.14.555C52.9,6.288,49.586,12.082,45.1,16.933a32.648,32.648,0,0,1-7.3,6.022,38.144,38.144,0,0,1-9.869,3.726,55.231,55.231,0,0,0-10.614,3.482A25.855,25.855,0,0,0,9.73,35.941a36.84,36.84,0,0,0-8.44,17.031C-.656,61.959,0,71.189.682,80.282a1.175,1.175,0,0,0,2.235.411,1.079,1.079,0,0,0,1.369-.456C7.419,74.99,7.6,68.771,7.966,62.84c.334-5.687.882-11.815,4.851-16.256C16.5,42.464,21.9,40.533,27,38.875c5.718-1.84,11.375-3.589,16.59-6.66a53.1,53.1,0,0,0,15.754-14.2A1.127,1.127,0,0,0,58.953,16.461Z" transform="matrix(1, 0.017, -0.017, 1, 456.524, 206.033)" fill="#fff"/>
      <path id="Path_361" data-name="Path 361" d="M49.087.575a1.157,1.157,0,0,0-1.566-.41A145.376,145.376,0,0,1,21.64,15.69c-2.281,1.065-4.608,2.068-6.949,3.011-2.311.928-4.684,1.718-7.01,2.615a6.188,6.188,0,0,0-2.707,1.749,5.846,5.846,0,0,0-1.2,2.92c-.35,2.418-.122,4.927-.274,7.36A69.709,69.709,0,0,1,.062,50.984c-.456,1.4,1.733,1.992,2.2.608A72.733,72.733,0,0,0,5.536,36.34a74.025,74.025,0,0,0,.38-7.8A10.568,10.568,0,0,1,6.19,25.6a3.019,3.019,0,0,1,1.84-1.977c1.08-.487,2.251-.806,3.361-1.217,1.141-.426,2.281-.851,3.421-1.308,2.311-.912,4.607-1.9,6.888-2.935a144.472,144.472,0,0,0,13.108-6.8,146.34,146.34,0,0,0,13.868-9.23A1.178,1.178,0,0,0,49.087.575Z" transform="matrix(1, 0.017, -0.017, 1, 463.961, 234.675)" fill="#fff"/>
      <path id="Path_362" data-name="Path 362" d="M52.219.787C50.181,6.489,43.795,9.059,39,11.979a37.513,37.513,0,0,0-3.878,2.692c-1.308,1.049-2.418,2.281-3.619,3.452A7.13,7.13,0,0,1,27.4,20.433a21.557,21.557,0,0,1-4.836-.3,10.273,10.273,0,0,0-4.516.2,5.438,5.438,0,0,0-3.284,3.467,23.569,23.569,0,0,1-.928,2.433,19.261,19.261,0,0,1-1.6,2.631c-1.11,1.6-2.342,3.1-3.421,4.714a52.022,52.022,0,0,0-8.1,20.7A52.656,52.656,0,0,0,2.525,79.1c.456,1.384,2.661.791,2.2-.608a51.056,51.056,0,0,1,5.155-42.35c2.023-3.239,4.836-6.067,6.311-9.61.593-1.414.821-3.33,2.418-4a8.635,8.635,0,0,1,4.182-.106,19.709,19.709,0,0,0,4.82.258,8.6,8.6,0,0,0,4.5-2.038c1.338-1.095,2.433-2.463,3.726-3.6a28.174,28.174,0,0,1,3.634-2.661c5.565-3.528,12.56-6.28,14.948-12.986C54.911,0,52.706-.6,52.219.787Z" transform="matrix(1, 0.017, -0.017, 1, 449.063, 207.314)" fill="#fff"/>
      <path id="Path_340" data-name="Path 340" d="M2.151,0c-2.868,0-2.868,4.435,0,4.435C4.989,4.435,5.019,0,2.151,0Z" transform="translate(446.103 222.645) rotate(-31)" fill="#fea81f"/>
      <path id="Path_346" data-name="Path 346" d="M2.151,0c-2.868,0-2.868,4.435,0,4.435S5.019,0,2.151,0Z" transform="translate(434.337 234.405) rotate(-31)" fill="#fea81f"/>
      <path id="Path_399" data-name="Path 399" d="M2.151,0c-2.868,0-2.868,4.435,0,4.435C4.989,4.435,5.019,0,2.151,0Z" transform="matrix(1, 0.017, -0.017, 1, 412.358, 235.199)" fill="#fff"/>
      <path id="Path_400" data-name="Path 400" d="M2.151,0c-2.868,0-2.868,4.435,0,4.435C4.989,4.435,4.989,0,2.151,0Z" transform="matrix(1, 0.017, -0.017, 1, 403.124, 243.218)" fill="#fff"/>
      <path id="Path_401" data-name="Path 401" d="M2.151,0c-2.868,0-2.868,4.435,0,4.435C4.989,4.435,4.989,0,2.151,0Z" transform="matrix(1, 0.017, -0.017, 1, 432.236, 261.29)" fill="#fff"/>
      <path id="Path_402" data-name="Path 402" d="M2.151,0c-2.868,0-2.868,4.435,0,4.435C4.989,4.435,4.989,0,2.151,0Z" transform="matrix(1, 0.017, -0.017, 1, 419.397, 258.116)" fill="#fff"/>
      <path id="Path_403" data-name="Path 403" d="M2.151,0c-2.868,0-2.868,4.435,0,4.435S5.019,0,2.151,0Z" transform="matrix(1, 0.017, -0.017, 1, 414.536, 246.912)" fill="#fff"/>
      <path id="Path_404" data-name="Path 404" d="M2.151,0c-2.868,0-2.868,4.435,0,4.435S5.019,0,2.151,0Z" transform="matrix(1, 0.017, -0.017, 1, 405.302, 255.829)" fill="#fff"/>
      <path id="Path_405" data-name="Path 405" d="M2.151,0c-2.868,0-2.868,4.435,0,4.435C4.989,4.435,4.989,0,2.151,0Z" transform="matrix(1, 0.017, -0.017, 1, 426.62, 249.164)" fill="#fff"/>
      <path id="Path_406" data-name="Path 406" d="M2.151,0c-2.868,0-2.868,4.435,0,4.435S5.019,0,2.151,0Z" transform="matrix(1, 0.017, -0.017, 1, 438.197, 270.419)" fill="#fff"/>
      <path id="Path_363" data-name="Path 363" d="M41.8,16.2a16.653,16.653,0,0,0-.517-1.946,8.105,8.105,0,0,0-.487-1.323C38.29,6.9,32.6,2.51,26.277.867A29.445,29.445,0,0,0,13.656.518C9.87,1.2,6.083,2.737,3.544,5.733a14.95,14.95,0,0,0-.426,18.795C8.5,31.173,17.853,31.9,25.608,29.987c4.395-1.08,9.276-2.737,12.576-5.961a11.209,11.209,0,0,0,3.33-6.812A1.136,1.136,0,0,0,41.8,16.2ZM36.77,22.232c-2.539,2.585-6.143,3.908-9.534,4.942C20.286,29.3,11.877,29.7,6.159,24.422A11.8,11.8,0,0,1,2.3,16.682,13.393,13.393,0,0,1,4.38,8.394a13.081,13.081,0,0,1,7.846-5.246A26.947,26.947,0,0,1,23.358,2.57C29.7,3.589,35.629,7.33,38.366,13.078a1.324,1.324,0,0,0,.152.38c.046.076.091.167.137.243a13.5,13.5,0,0,1,.487,1.308A8.159,8.159,0,0,1,36.77,22.232Z" transform="matrix(1, 0.017, -0.017, 1, 354.431, 269.382)" fill="#fea81f"/>
    </g>
  </g>
</svg>
