<svg xmlns="http://www.w3.org/2000/svg" xmlns:xlink="http://www.w3.org/1999/xlink" width="200" height="200" viewBox="0 0 200 200">
  <defs>
    <clipPath id="clip-BG_element_6">
      <rect width="200" height="200"/>
    </clipPath>
  </defs>
  <g id="BG_element_6" data-name="BG element 6" clip-path="url(#clip-BG_element_6)">
    <g id="Group_65" data-name="Group 65" transform="translate(-0.194 -0.136)" opacity="0.2">
      <path id="Path_968" data-name="Path 968" d="M277.928-435.138a2.571,2.571,0,0,1,.324.241c.212.161.511.423.929.735a33.969,33.969,0,0,0,3.78,2.525,31.49,31.49,0,0,0,6.579,2.855,29.126,29.126,0,0,0,9.379,1.234,95.611,95.611,0,0,0,11.466-1.383,48.146,48.146,0,0,1,13.291-.425,44.328,44.328,0,0,1,14.107,4.1,40.521,40.521,0,0,1,12.577,9.488,40.788,40.788,0,0,1,7.995,13.576,38.417,38.417,0,0,1,2.156,14.519c-.172,4.7-.83,9.1-.946,13.254a31.643,31.643,0,0,0,1.478,11.356,30.522,30.522,0,0,0,4.324,8.419,30.547,30.547,0,0,0,4.852,5.277c.728.667,1.457,1.161,2.052,1.632.631.422,1.154.8,1.6,1.072s.768.463,1.015.612a2.892,2.892,0,0,1,.338.222,2.349,2.349,0,0,1-.361-.179c-.254-.141-.6-.331-1.041-.573-.452-.261-.984-.627-1.627-1.039-.608-.46-1.348-.947-2.091-1.607a30.015,30.015,0,0,1-4.944-5.261,30.467,30.467,0,0,1-4.429-8.469,31.861,31.861,0,0,1-1.552-11.471c.1-4.178.744-8.595.9-13.256a38.1,38.1,0,0,0-2.157-14.352,40.487,40.487,0,0,0-7.912-13.418,40.147,40.147,0,0,0-12.428-9.384,44.031,44.031,0,0,0-13.954-4.083,48.021,48.021,0,0,0-13.185.38,94.43,94.43,0,0,1-11.514,1.329,29.148,29.148,0,0,1-9.466-1.315,31.068,31.068,0,0,1-6.593-2.947,31.05,31.05,0,0,1-3.745-2.609c-.409-.324-.7-.6-.9-.772A2.39,2.39,0,0,1,277.928-435.138Z" transform="translate(-237.734 505.693)" fill="none" stroke="#1f64ff" stroke-linecap="round" stroke-width="2"/>
      <path id="Path_969" data-name="Path 969" d="M295.035-457.206a51.439,51.439,0,0,1,4.392,4.466,48.728,48.728,0,0,1,4.481,5.832,27.874,27.874,0,0,1,3.959,8.885,19.234,19.234,0,0,1,.423,2.757c.054.954.059,1.922.039,2.9q-.056,2.953-.114,6.134c-.092,4.236-.227,8.764-.15,13.52a43.391,43.391,0,0,0,2.808,14.533,38.514,38.514,0,0,0,8.5,13.369,35.226,35.226,0,0,0,13.364,8.454,31.36,31.36,0,0,0,14.632,1.54c4.7-.634,9.04-2.032,13.232-2.764a32.668,32.668,0,0,1,6.13-.584,29.316,29.316,0,0,1,5.649.623,30.352,30.352,0,0,1,9.055,3.563,28.229,28.229,0,0,1,5.789,4.532,27,27,0,0,1,2.977,3.567c.28.431.5.768.659,1.013.146.23.211.354.211.354s-.092-.107-.251-.328l-.695-.984a29.156,29.156,0,0,0-3.031-3.493,28.535,28.535,0,0,0-5.794-4.436,30.307,30.307,0,0,0-8.99-3.464,29.175,29.175,0,0,0-5.581-.586,32.409,32.409,0,0,0-6.058.605c-4.159.742-8.49,2.154-13.246,2.811a31.739,31.739,0,0,1-14.84-1.534,35.6,35.6,0,0,1-13.547-8.559,38.869,38.869,0,0,1-8.59-13.536,43.622,43.622,0,0,1-2.811-14.689c-.066-4.773.084-9.3.193-13.538q.074-3.176.142-6.129c.026-.986.025-1.946-.023-2.874a18.652,18.652,0,0,0-.4-2.709,27.8,27.8,0,0,0-3.855-8.817,50.006,50.006,0,0,0-4.4-5.854c-1.314-1.525-2.4-2.653-3.133-3.417l-.844-.864C295.125-457.1,295.035-457.206,295.035-457.206Z" transform="translate(-231.26 497.342)" fill="none" stroke="#1f64ff" stroke-linecap="round" stroke-width="2"/>
      <path id="Path_970" data-name="Path 970" d="M308.044-440.325c.1.084-2.659,3.547-6.16,7.734s-6.421,7.517-6.521,7.434,2.659-3.545,6.16-7.736S307.944-440.407,308.044-440.325Z" transform="translate(-231.137 503.73)" fill="none" stroke="#1f64ff" stroke-linecap="round" stroke-width="2"/>
      <path id="Path_971" data-name="Path 971" d="M308.838-446.695c.092.091-4.718,5.12-10.745,11.23s-10.989,10.992-11.081,10.9,4.718-5.118,10.746-11.232S308.745-446.786,308.838-446.695Z" transform="translate(-234.297 501.319)" fill="none" stroke="#1f64ff" stroke-linecap="round" stroke-width="2"/>
      <path id="Path_972" data-name="Path 972" d="M306.528-452.607c.092.092-5.747,6.08-13.039,13.375s-13.28,13.135-13.374,13.043,5.747-6.079,13.041-13.375S306.437-452.7,306.528-452.607Z" transform="translate(-236.906 499.082)" fill="none" stroke="#1f64ff" stroke-linecap="round" stroke-width="2"/>
      <path id="Path_973" data-name="Path 973" d="M341-406.848c.081.095-3.213,3.069-7.358,6.641s-7.574,6.391-7.657,6.3,3.213-3.069,7.36-6.642S340.922-406.943,341-406.848Z" transform="translate(-219.043 516.398)" fill="none" stroke="#1f64ff" stroke-linecap="round" stroke-width="2"/>
      <path id="Path_974" data-name="Path 974" d="M340.172-415.6a5.766,5.766,0,0,1-.791.888c-.532.55-1.315,1.332-2.3,2.283-1.96,1.9-4.723,4.48-7.853,7.234s-6.046,5.159-8.187,6.859c-1.07.849-1.945,1.526-2.558,1.981a5.829,5.829,0,0,1-.981.671,5.736,5.736,0,0,1,.867-.813l2.462-2.1c2.086-1.763,4.957-4.206,8.086-6.954s5.92-5.284,7.937-7.122l2.394-2.174A5.8,5.8,0,0,1,340.172-415.6Z" transform="translate(-222.756 513.087)" fill="none" stroke="#1f64ff" stroke-linecap="round" stroke-width="2"/>
      <path id="Path_975" data-name="Path 975" d="M335.316-422.328a7.069,7.069,0,0,1-.977.843l-2.746,2.187c-2.317,1.846-5.495,4.425-8.918,7.369s-6.445,5.7-8.612,7.711c-1.038.961-1.9,1.763-2.569,2.384a7.238,7.238,0,0,1-.977.84,6.633,6.633,0,0,1,.852-.964c.567-.6,1.41-1.451,2.468-2.488,2.112-2.073,5.1-4.869,8.535-7.821s6.649-5.5,9.02-7.281c1.186-.893,2.158-1.6,2.839-2.076A7.138,7.138,0,0,1,335.316-422.328Z" transform="translate(-224.868 510.541)" fill="none" stroke="#1f64ff" stroke-linecap="round" stroke-width="2"/>
      <path id="Path_976" data-name="Path 976" d="M325.689-426.88a4.371,4.371,0,0,1-.717.739q-.837.771-2.051,1.893c-1.737,1.591-4.128,3.8-6.727,6.279s-4.909,4.776-6.577,6.44l-1.981,1.966a4.34,4.34,0,0,1-.771.681,4.492,4.492,0,0,1,.637-.808c.431-.5,1.071-1.208,1.876-2.069,1.609-1.726,3.887-4.06,6.49-6.55s5.037-4.658,6.833-6.188c.9-.765,1.632-1.373,2.152-1.782A4.336,4.336,0,0,1,325.689-426.88Z" transform="translate(-226.783 508.818)" fill="none" stroke="#1f64ff" stroke-linecap="round" stroke-width="2"/>
      <path id="Path_977" data-name="Path 977" d="M317.574-430.468A82.345,82.345,0,0,1,311.3-424.3a82.418,82.418,0,0,1-6.6,5.821,82.658,82.658,0,0,1,6.279-6.166A82.423,82.423,0,0,1,317.574-430.468Z" transform="translate(-227.604 507.46)" fill="none" stroke="#1f64ff" stroke-linecap="round" stroke-width="2"/>
      <path id="Path_978" data-name="Path 978" d="M354.445-399.713a3.427,3.427,0,0,1-.633.674l-1.839,1.716-6.091,5.62c-2.317,2.172-4.414,4.137-6.049,5.671l-1.843,1.709a3.536,3.536,0,0,1-.718.584,3.432,3.432,0,0,1,.589-.714c.4-.438,1-1.06,1.741-1.817,1.489-1.515,3.585-3.569,5.959-5.777s4.574-4.15,6.192-5.526c.809-.688,1.472-1.236,1.939-1.6A3.622,3.622,0,0,1,354.445-399.713Z" transform="translate(-215.276 519.099)" fill="none" stroke="#1f64ff" stroke-linecap="round" stroke-width="2"/>
      <path id="Path_979" data-name="Path 979" d="M364.89-396.639c.087.1-5.545,5.49-12.581,12.049s-12.813,11.8-12.9,11.7,5.544-5.488,12.581-12.049S364.8-396.734,364.89-396.639Z" transform="translate(-214.468 520.263)" fill="none" stroke="#1f64ff" stroke-linecap="round" stroke-width="2"/>
      <path id="Path_980" data-name="Path 980" d="M369.839-392.817c.085.088-5.715,6.02-12.956,13.247S343.7-366.557,343.61-366.646s5.712-6.02,12.956-13.248S369.751-392.906,369.839-392.817Z" transform="translate(-212.877 521.709)" fill="none" stroke="#1f64ff" stroke-linecap="round" stroke-width="2"/>
    </g>
  </g>
</svg>
