<svg xmlns="http://www.w3.org/2000/svg" xmlns:xlink="http://www.w3.org/1999/xlink" width="200" height="200" viewBox="0 0 200 200">
  <defs>
    <clipPath id="clip-BG_element_7">
      <rect width="200" height="200"/>
    </clipPath>
  </defs>
  <g id="BG_element_7" data-name="BG element 7" clip-path="url(#clip-BG_element_7)">
    <g id="Group_66" data-name="Group 66" transform="translate(2925.377 -2318.83) rotate(149)" opacity="0.2">
      <path id="Path_662" data-name="Path 662" d="M150.867-177.77l.975-1-23.414-22.822,43.95-.248-22.511,23.095,1,.975.975-1-.975,1,1,.972,24.838-25.48a1.394,1.394,0,0,0,.284-1.52,1.391,1.391,0,0,0-1.292-.851l-50.686.286a1.4,1.4,0,0,0-1.286.873,1.394,1.394,0,0,0,.319,1.52l25.851,25.2a1.394,1.394,0,0,0,.991.394,1.391,1.391,0,0,0,.98-.421ZM82-220.728l-.972,1,68.4,66.673a1.408,1.408,0,0,0,.991.4,1.413,1.413,0,0,0,.98-.421L217.113-220.5a1.389,1.389,0,0,0,.286-1.517,1.393,1.393,0,0,0-1.292-.851l-134.118.749a1.4,1.4,0,0,0-1.286.873,1.394,1.394,0,0,0,.319,1.52l.972-1,.008,1.4,130.785-.73-62.418,64.035-67.4-65.7-.975,1,.008,1.4Z" transform="translate(3518.941 -430.574)" fill="#1f75fe"/>
      <path id="Path_663" data-name="Path 663" d="M122.607-216.939,124.7-214.9a1.4,1.4,0,0,0,1.972-.025,1.4,1.4,0,0,0-.025-1.975l-2.09-2.038a1.4,1.4,0,0,0-1.975.025A1.4,1.4,0,0,0,122.607-216.939Z" transform="translate(3591.876 -424.369)" fill="#1f75fe"/>
      <path id="Path_664" data-name="Path 664" d="M119.7-215.707l4.508,4.4a1.4,1.4,0,0,0,1.975-.025,1.4,1.4,0,0,0-.025-1.975l-4.511-4.4a1.4,1.4,0,0,0-1.975.028A1.393,1.393,0,0,0,119.7-215.707Z" transform="translate(3586.765 -422.208)" fill="#1f75fe"/>
      <path id="Path_665" data-name="Path 665" d="M118.721-212.953l2.093,2.038a1.4,1.4,0,0,0,1.972-.025,1.4,1.4,0,0,0-.025-1.972l-2.09-2.041a1.4,1.4,0,0,0-1.975.028A1.4,1.4,0,0,0,118.721-212.953Z" transform="translate(3585.06 -417.378)" fill="#1f75fe"/>
      <path id="Path_666" data-name="Path 666" d="M115.808-211.722l4.511,4.4a1.4,1.4,0,0,0,1.972-.025,1.4,1.4,0,0,0-.025-1.972l-4.508-4.4a1.4,1.4,0,0,0-1.975.025A1.4,1.4,0,0,0,115.808-211.722Z" transform="translate(3579.951 -415.216)" fill="#1f75fe"/>
      <path id="Path_667" data-name="Path 667" d="M114.837-208.968l2.09,2.038a1.391,1.391,0,0,0,1.972-.025,1.391,1.391,0,0,0-.025-1.972l-2.09-2.038a1.393,1.393,0,0,0-1.972.025A1.39,1.39,0,0,0,114.837-208.968Z" transform="translate(3578.245 -410.386)" fill="#1f75fe"/>
      <path id="Path_668" data-name="Path 668" d="M111.924-207.734l4.508,4.393a1.391,1.391,0,0,0,1.972-.025,1.393,1.393,0,0,0-.025-1.972l-4.508-4.4a1.4,1.4,0,0,0-1.972.025A1.394,1.394,0,0,0,111.924-207.734Z" transform="translate(3573.135 -408.224)" fill="#1f75fe"/>
      <path id="Path_669" data-name="Path 669" d="M110.95-204.98l2.09,2.038a1.4,1.4,0,0,0,1.975-.025,1.4,1.4,0,0,0-.025-1.975l-2.093-2.038a1.4,1.4,0,0,0-1.972.025A1.4,1.4,0,0,0,110.95-204.98Z" transform="translate(3571.43 -403.394)" fill="#1f75fe"/>
      <path id="Path_670" data-name="Path 670" d="M108.037-203.748l4.508,4.4a1.4,1.4,0,0,0,1.975-.025,1.4,1.4,0,0,0-.028-1.975l-4.508-4.4a1.393,1.393,0,0,0-1.972.028A1.393,1.393,0,0,0,108.037-203.748Z" transform="translate(3566.32 -401.233)" fill="#1f75fe"/>
      <path id="Path_671" data-name="Path 671" d="M107.064-200.994l2.093,2.038a1.4,1.4,0,0,0,1.972-.025,1.4,1.4,0,0,0-.025-1.972l-2.09-2.041a1.4,1.4,0,0,0-1.975.028A1.4,1.4,0,0,0,107.064-200.994Z" transform="translate(3564.614 -396.402)" fill="#1f75fe"/>
    </g>
  </g>
</svg>
