<svg xmlns="http://www.w3.org/2000/svg" xmlns:xlink="http://www.w3.org/1999/xlink" width="200" height="200" viewBox="0 0 200 200">
  <defs>
    <clipPath id="clip-BG_element_3">
      <rect width="200" height="200"/>
    </clipPath>
  </defs>
  <g id="BG_element_3" data-name="BG element 3" clip-path="url(#clip-BG_element_3)">
    <g id="Group_62" data-name="Group 62" transform="translate(-10.246 -174.634)" opacity="0.2">
      <path id="Path_1022" data-name="Path 1022" d="M103.89-240.247s.325.079.94.275c.61.212,1.543.47,2.72.925a54.763,54.763,0,0,1,9.82,4.933A53.345,53.345,0,0,1,130.253-222.7a45.538,45.538,0,0,1,9.641,20.224,43.654,43.654,0,0,1-3.579,26.644,41.689,41.689,0,0,1-8.98,12.422,40.7,40.7,0,0,1-6.43,5c-1.211.67-2.4,1.395-3.671,2.006-1.287.564-2.543,1.23-3.9,1.678-10.739,4.113-23.1,4.283-35.37,3.15-6.172-.577-12.407-1.436-18.724-2.382a117.552,117.552,0,0,1-18.97-4.238,48.6,48.6,0,0,1-16.976-9.19,36.52,36.52,0,0,1-6.2-7.066,37.481,37.481,0,0,1-3.957-8.261,41.831,41.831,0,0,1-1.813-17.5,45.512,45.512,0,0,1,4.986-16.173c5.4-9.806,13.959-16.99,22.842-21.651a77.914,77.914,0,0,1,26.752-8.225,107.261,107.261,0,0,1,23.213-.137,156.033,156.033,0,0,1,17.3,2.725c4.7,1,8.3,1.946,10.742,2.6l2.764.775c.619.18.933.3.933.3s-.329-.056-.958-.208l-2.787-.693c-2.453-.6-6.069-1.481-10.769-2.433a161.483,161.483,0,0,0-17.273-2.569,107.78,107.78,0,0,0-23.081.266A77.523,77.523,0,0,0,39.52-237.4c-8.768,4.635-17.178,11.753-22.457,21.383A44.745,44.745,0,0,0,12.2-200.127a41.056,41.056,0,0,0,1.8,17.149,36.533,36.533,0,0,0,3.869,8.06,35.687,35.687,0,0,0,6.046,6.882,47.709,47.709,0,0,0,16.66,9.006,117.035,117.035,0,0,0,18.816,4.208c6.3.946,12.531,1.807,18.666,2.386,12.208,1.144,24.428.974,34.974-3.049a40.314,40.314,0,0,0,22.6-20.649,43.094,43.094,0,0,0,3.632-26.226,45.189,45.189,0,0,0-9.406-20.033,53.569,53.569,0,0,0-12.678-11.435,57.905,57.905,0,0,0-9.691-5.055c-1.163-.479-2.079-.766-2.681-1S103.89-240.247,103.89-240.247Z" transform="translate(34.388 473.603)" fill="none" stroke="#1f64ff" stroke-linecap="round" stroke-linejoin="round" stroke-width="3"/>
      <path id="Path_1023" data-name="Path 1023" d="M30.142-201.825a7.1,7.1,0,0,1-1.749.206c-1.129.077-2.762.163-4.779.247q-.766.029-1.584.064a6.11,6.11,0,0,1-1.824-.075,1.53,1.53,0,0,1-.9-.71,2.647,2.647,0,0,1-.288-1.043q-.064-.959-.131-1.959c-.157-2.691-.324-5.607-.5-8.671-.144-3.09-.367-5.978-.384-8.7a7.923,7.923,0,0,1,.9-3.83,5.313,5.313,0,0,1,2.629-2.238,10.725,10.725,0,0,1,4.824-.532,5.5,5.5,0,0,1,1.74.313,9.582,9.582,0,0,1-1.755.019,11.519,11.519,0,0,0-4.571.753,4.757,4.757,0,0,0-2.251,2.034,7.332,7.332,0,0,0-.732,3.491c.058,2.614.307,5.581.448,8.648s.3,5.985.436,8.673c.133,1.268-.146,2.869.749,3.079a5.843,5.843,0,0,0,1.592.092l1.584-.011c2.021-.009,3.654,0,4.785.026A6.954,6.954,0,0,1,30.142-201.825Z" transform="translate(42.293 494.034)" fill="none" stroke="#1f64ff" stroke-linecap="round" stroke-linejoin="round" stroke-width="3"/>
      <path id="Path_1024" data-name="Path 1024" d="M27.3-222.775c.006.234-1.991.468-4.457.519s-4.472-.1-4.478-.335,1.991-.468,4.459-.519S27.3-223.011,27.3-222.775Z" transform="translate(42.713 500.922)" fill="none" stroke="#1f64ff" stroke-linecap="round" stroke-linejoin="round" stroke-width="3"/>
      <path id="Path_1025" data-name="Path 1025" d="M40.2-224.526c-.015.245-3.056.221-6.789.341s-6.768.318-6.8.077,2.989-.82,6.774-.931S40.221-224.752,40.2-224.526Z" transform="translate(52.157 498.698)" fill="none" stroke="#1f64ff" stroke-linecap="round" stroke-linejoin="round" stroke-width="3"/>
      <path id="Path_1026" data-name="Path 1026" d="M40.709-219.776c.013.23-3,.56-6.716.466s-6.712-.566-6.688-.8,3.019-.144,6.71-.056S40.7-220.018,40.709-219.776Z" transform="translate(52.95 504.202)" fill="none" stroke="#1f64ff" stroke-linecap="round" stroke-linejoin="round" stroke-width="3"/>
      <path id="Path_1027" data-name="Path 1027" d="M61.376-208.407c-.062,0,.015-.931-.062-2.618a26.121,26.121,0,0,0-1.29-7.058c-.5-1.4-1.036-3.171-2.478-4.056a2.174,2.174,0,0,0-2.352.165,5.714,5.714,0,0,0-1.77,2.217c-1.9,3.669-2.154,8.386-2.18,13.317l-.833-.041a56.59,56.59,0,0,0-.122-9.864,37.674,37.674,0,0,0-.571-3.97,5.073,5.073,0,0,0-1.8-3.1,2.685,2.685,0,0,0-3.137-.088,4.744,4.744,0,0,0-1.957,2.708,18.373,18.373,0,0,0-.616,3.408c-.129,1.139-.221,2.255-.277,3.341a56.894,56.894,0,0,0,0,6.113l-.65.043c-.187-4.813-.339-8.77-.451-11.656-.03-1.3-.054-2.354-.075-3.187a4.987,4.987,0,0,1,.039-1.116,4.782,4.782,0,0,1,.152,1.109c.067.83.148,1.882.249,3.178.182,2.878.431,6.826.736,11.628l-.65.043a55.739,55.739,0,0,1-.088-6.193c.047-1.1.129-2.232.249-3.386a18.539,18.539,0,0,1,.62-3.568,5.547,5.547,0,0,1,2.285-3.167,3.794,3.794,0,0,1,2.026-.6,3.538,3.538,0,0,1,2.038.708,5.891,5.891,0,0,1,2.131,3.586,36.844,36.844,0,0,1,.594,4.079,55.983,55.983,0,0,1,.1,10.014l-.833-.036c.051-4.931.335-9.8,2.371-13.637a6.325,6.325,0,0,1,2.039-2.451,2.833,2.833,0,0,1,3.041-.152c1.753,1.154,2.174,3.023,2.676,4.448a24.259,24.259,0,0,1,1.069,7.212,19.152,19.152,0,0,1-.105,1.955A2.356,2.356,0,0,1,61.376-208.407Z" transform="translate(68.362 498.993)" fill="none" stroke="#1f64ff" stroke-linecap="round" stroke-linejoin="round" stroke-width="3"/>
      <path id="Path_1028" data-name="Path 1028" d="M66.127-209.569c.024.034-.3.352-1.026.725a8.07,8.07,0,0,1-3.332.82,8.728,8.728,0,0,1-4.935-1.345,8.477,8.477,0,0,1-3.566-5.146,8.47,8.47,0,0,1,.818-6.208,8.732,8.732,0,0,1,3.772-3.457,8.058,8.058,0,0,1,3.341-.794,2.633,2.633,0,0,1,1.242.176,11.936,11.936,0,0,0-4.309,1.157,8.465,8.465,0,0,0-3.36,3.3,7.872,7.872,0,0,0-.674,5.624,7.888,7.888,0,0,0,3.169,4.689,8.46,8.46,0,0,0,4.5,1.4A11.91,11.91,0,0,0,66.127-209.569Z" transform="translate(82.412 498.798)" fill="none" stroke="#1f64ff" stroke-linecap="round" stroke-linejoin="round" stroke-width="3"/>
      <path id="Path_1029" data-name="Path 1029" d="M67.574-221.342c.019.225-4.023-.105-9.547,1.661l-1.448.463,1.071-1.092a28.99,28.99,0,0,0,5.328-6.489,9.657,9.657,0,0,0,1.122-6.6c-.23-.993-.828-1.8-1.665-1.824a5.377,5.377,0,0,0-2.418.661,9.023,9.023,0,0,0-2.957,2.38,11.8,11.8,0,0,1-.88,1.135,3.055,3.055,0,0,1,.612-1.332,8.354,8.354,0,0,1,2.946-2.717,5.715,5.715,0,0,1,2.742-.833,2.23,2.23,0,0,1,1.579.757,3.792,3.792,0,0,1,.8,1.575,10.191,10.191,0,0,1-1.127,7.2,27.439,27.439,0,0,1-5.555,6.628L57.8-220.4a26.991,26.991,0,0,1,7.055-1.131A8.632,8.632,0,0,1,67.574-221.342Z" transform="translate(86.027 486.245)" fill="none" stroke="#1f64ff" stroke-linecap="round" stroke-linejoin="round" stroke-width="3"/>
    </g>
  </g>
</svg>
