<svg xmlns="http://www.w3.org/2000/svg" xmlns:xlink="http://www.w3.org/1999/xlink" width="200" height="200" viewBox="0 0 200 200">
  <defs>
    <clipPath id="clip-BG_element_5">
      <rect width="200" height="200"/>
    </clipPath>
  </defs>
  <g id="BG_element_5" data-name="BG element 5" clip-path="url(#clip-BG_element_5)">
    <path id="Path_981" data-name="Path 981" d="M417.3-69.913s.108-.234.327-.684l.184-.378c.059-.143.106-.307.167-.482a7.066,7.066,0,0,0,.339-1.237c.042-.239.1-.491.142-.759.02-.271.04-.558.062-.858a5.824,5.824,0,0,0,.008-.942c-.024-.327,0-.671-.059-1.023a19.3,19.3,0,0,0-1.175-4.761,44.038,44.038,0,0,0-6.877-11.552,99.13,99.13,0,0,0-12.4-12.858,153.921,153.921,0,0,0-17.28-13.069,176.065,176.065,0,0,0-21.692-12.155c-3.969-1.858-8.111-3.6-12.423-5.164a107.9,107.9,0,0,0-13.446-3.97,58.06,58.06,0,0,0-14.4-1.561,24.459,24.459,0,0,0-7.263,1.258,13.89,13.89,0,0,0-3.291,1.7,10.054,10.054,0,0,0-2.505,2.724,10.067,10.067,0,0,0-1.175,3.512,13.711,13.711,0,0,0,.1,3.706,24.266,24.266,0,0,0,2.418,6.964,57.985,57.985,0,0,0,8.338,11.843,107.914,107.914,0,0,0,9.989,9.844c3.456,3.016,6.988,5.8,10.537,8.369a176.247,176.247,0,0,0,21.144,13.089,153.6,153.6,0,0,0,19.806,8.787,99.068,99.068,0,0,0,17.253,4.619,44.079,44.079,0,0,0,13.436.421,19.232,19.232,0,0,0,4.732-1.281,9.247,9.247,0,0,0,.926-.445,5.873,5.873,0,0,0,.821-.462c.25-.165.491-.322.716-.47.218-.164.41-.337.6-.492a6.778,6.778,0,0,0,.919-.9l.342-.378.241-.344c.285-.41.438-.615.438-.615s-.135.216-.415.632l-.236.349-.339.386a6.718,6.718,0,0,1-.912.912c-.187.157-.379.332-.6.5l-.72.479a5.972,5.972,0,0,1-.821.47,9.676,9.676,0,0,1-.927.454,19.208,19.208,0,0,1-4.749,1.313,43.894,43.894,0,0,1-13.479-.373,98.518,98.518,0,0,1-17.3-4.586,153.506,153.506,0,0,1-19.849-8.767,175.877,175.877,0,0,1-21.188-13.086c-3.555-2.574-7.1-5.356-10.564-8.377a108.459,108.459,0,0,1-10.019-9.866,58.2,58.2,0,0,1-8.384-11.9,24.664,24.664,0,0,1-2.446-7.05,14.166,14.166,0,0,1-.1-3.788,10.346,10.346,0,0,1,1.212-3.62,10.39,10.39,0,0,1,2.584-2.812,14.057,14.057,0,0,1,3.365-1.743,24.712,24.712,0,0,1,7.349-1.269,58.117,58.117,0,0,1,14.47,1.57,108.038,108.038,0,0,1,13.48,3.987c4.321,1.568,8.47,3.318,12.442,5.182a175.85,175.85,0,0,1,21.712,12.2A153.37,153.37,0,0,1,398.156-105.6a98.524,98.524,0,0,1,12.391,12.912A43.909,43.909,0,0,1,417.4-81.076a19.152,19.152,0,0,1,1.151,4.791,9.475,9.475,0,0,1,.054,1.03,5.887,5.887,0,0,1-.015.949c-.025.3-.047.587-.071.861-.04.27-.1.523-.148.764a6.825,6.825,0,0,1-.356,1.239c-.062.175-.111.339-.172.482l-.194.376C417.427-70.138,417.3-69.913,417.3-69.913Z" transform="translate(-262.788 206.191)" fill="#1f75fe" stroke="#1f75fe" stroke-linecap="round" stroke-linejoin="round" stroke-width="2" opacity="0.2"/>
    <path id="Path_982" data-name="Path 982" d="M428.565-120.632s-.078-.244-.214-.725l-.113-.406c-.051-.143-.125-.3-.2-.469a6.82,6.82,0,0,0-.57-1.15c-.126-.209-.251-.435-.4-.661l-.523-.681a5.829,5.829,0,0,0-.62-.708,9.817,9.817,0,0,0-.727-.725,19.254,19.254,0,0,0-4.044-2.773,44.087,44.087,0,0,0-12.823-4.041,98.951,98.951,0,0,0-17.811-1.342,153.844,153.844,0,0,0-21.6,1.75,175.831,175.831,0,0,0-24.278,5.369c-4.2,1.254-8.451,2.709-12.708,4.415a107.923,107.923,0,0,0-12.679,5.99,57.933,57.933,0,0,0-11.781,8.418A24.43,24.43,0,0,0,302.9-102.6a13.8,13.8,0,0,0-1.322,3.461,10.049,10.049,0,0,0-.056,3.7,10.058,10.058,0,0,0,1.458,3.4,13.888,13.888,0,0,0,2.542,2.7,24.392,24.392,0,0,0,6.44,3.589,58.142,58.142,0,0,0,14.106,3.287,108.092,108.092,0,0,0,14.01.695c4.587-.047,9.073-.325,13.433-.769A176.017,176.017,0,0,0,378-86.839a153.818,153.818,0,0,0,20.627-6.625,98.957,98.957,0,0,0,15.952-8.04,44.051,44.051,0,0,0,10.307-8.63,19.12,19.12,0,0,0,2.679-4.107,9.6,9.6,0,0,0,.4-.946,6.315,6.315,0,0,0,.3-.89c.076-.29.152-.566.222-.831.052-.266.079-.523.118-.764a6.985,6.985,0,0,0,.088-1.28c0-.185.012-.356,0-.509s-.034-.293-.049-.418c-.059-.5-.081-.754-.081-.754s.042.255.111.75c.015.125.034.265.056.418s0,.327.005.511a6.71,6.71,0,0,1-.076,1.29c-.035.243-.061.5-.111.769q-.1.4-.217.836a6.033,6.033,0,0,1-.3.9,10.1,10.1,0,0,1-.391.956,19.139,19.139,0,0,1-2.672,4.142,43.869,43.869,0,0,1-10.306,8.694A98.545,98.545,0,0,1,398.7-93.275,153.086,153.086,0,0,1,378.058-86.6a175.742,175.742,0,0,1-24.526,4.338c-4.365.448-8.861.73-13.457.781a107.746,107.746,0,0,1-14.043-.691,58.127,58.127,0,0,1-14.178-3.3,24.7,24.7,0,0,1-6.519-3.631,14.178,14.178,0,0,1-2.6-2.76,10.379,10.379,0,0,1-1.5-3.51,10.382,10.382,0,0,1,.056-3.818,14.05,14.05,0,0,1,1.352-3.539,24.638,24.638,0,0,1,4.638-5.842,58.188,58.188,0,0,1,11.843-8.46,107.994,107.994,0,0,1,12.713-6c4.267-1.706,8.531-3.161,12.735-4.415a175.57,175.57,0,0,1,24.322-5.349,153.234,153.234,0,0,1,21.628-1.716,98.574,98.574,0,0,1,17.842,1.384,43.982,43.982,0,0,1,12.846,4.1,19.088,19.088,0,0,1,4.049,2.809,9.9,9.9,0,0,1,.727.733,6,6,0,0,1,.62.717c.182.243.356.474.521.69.148.229.271.46.4.671a6.659,6.659,0,0,1,.56,1.162c.069.172.143.327.192.475l.108.408C428.508-120.88,428.565-120.632,428.565-120.632Z" transform="translate(-264.911 211.103)" fill="#1f75fe" stroke="#1f75fe" stroke-linecap="round" stroke-linejoin="round" stroke-width="2" opacity="0.2"/>
    <path id="Path_983" data-name="Path 983" d="M383.173-154.4s-.241-.091-.7-.276l-.389-.16c-.147-.047-.314-.083-.492-.132a6.721,6.721,0,0,0-1.258-.253c-.241-.027-.5-.069-.769-.089-.271,0-.558,0-.86,0a5.862,5.862,0,0,0-.939.057,9.406,9.406,0,0,0-1.018.13,19.168,19.168,0,0,0-4.668,1.5,44.008,44.008,0,0,0-11.051,7.656,99.24,99.24,0,0,0-11.973,13.256,154.048,154.048,0,0,0-11.848,18.14,175.822,175.822,0,0,0-10.629,22.478c-1.581,4.087-3.036,8.338-4.3,12.749a107.992,107.992,0,0,0-3.035,13.691,58.056,58.056,0,0,0-.565,14.468,24.435,24.435,0,0,0,1.753,7.16,13.9,13.9,0,0,0,1.927,3.166,10.1,10.1,0,0,0,2.888,2.311,10.047,10.047,0,0,0,3.584.929,13.782,13.782,0,0,0,3.69-.356,24.446,24.446,0,0,0,6.782-2.89A57.979,57.979,0,0,0,350.541-50a107.563,107.563,0,0,0,9.132-10.646c2.773-3.655,5.3-7.371,7.624-11.086a176.458,176.458,0,0,0,11.6-22,153.675,153.675,0,0,0,7.4-20.362,99.018,99.018,0,0,0,3.421-17.531,44.041,44.041,0,0,0-.506-13.433,19.2,19.2,0,0,0-1.6-4.634,9.248,9.248,0,0,0-.507-.89,5.686,5.686,0,0,0-.519-.787c-.18-.239-.354-.469-.516-.686-.18-.2-.366-.383-.533-.56a6.767,6.767,0,0,0-.958-.853l-.4-.315-.357-.217c-.428-.258-.646-.4-.646-.4s.226.12.659.373l.366.211.406.309a6.96,6.96,0,0,1,.974.848c.169.179.357.356.539.56.167.217.342.447.526.684a5.928,5.928,0,0,1,.529.787c.16.288.371.566.514.893a19.125,19.125,0,0,1,1.637,4.65,43.916,43.916,0,0,1,.558,13.472,98.425,98.425,0,0,1-3.385,17.572,152.913,152.913,0,0,1-7.377,20.406,176.016,176.016,0,0,1-11.6,22.041c-2.321,3.724-4.854,7.448-7.629,11.113A107.811,107.811,0,0,1,350.743-49.8a58.121,58.121,0,0,1-11.3,9.183,24.586,24.586,0,0,1-6.863,2.925,14.15,14.15,0,0,1-3.773.364,10.39,10.39,0,0,1-3.7-.961,10.413,10.413,0,0,1-2.981-2.384,14.075,14.075,0,0,1-1.971-3.237,24.687,24.687,0,0,1-1.775-7.246A58.206,58.206,0,0,1,318.96-65.7a108.335,108.335,0,0,1,3.048-13.725c1.266-4.417,2.728-8.675,4.314-12.769a175.949,175.949,0,0,1,10.672-22.5,153.155,153.155,0,0,1,11.9-18.147,98.639,98.639,0,0,1,12.027-13.251,43.988,43.988,0,0,1,11.112-7.64,19.192,19.192,0,0,1,4.7-1.48,9.914,9.914,0,0,1,1.025-.123,5.9,5.9,0,0,1,.946-.051l.865.01c.271.022.529.067.772.1a6.783,6.783,0,0,1,1.261.27c.18.051.346.088.492.14l.389.165C382.94-154.5,383.173-154.4,383.173-154.4Z" transform="translate(-253.203 196.79)" fill="#1f75fe" stroke="#1f75fe" stroke-linecap="round" stroke-linejoin="round" stroke-width="2" opacity="0.2"/>
    <path id="Path_984" data-name="Path 984" d="M305.46-95.5a2.408,2.408,0,0,1,.661,3.34,2.408,2.408,0,0,1-3.338.664,2.409,2.409,0,0,1-.664-3.341A2.408,2.408,0,0,1,305.46-95.5Z" transform="translate(-264.479 237.585)" fill="#1f75fe" stroke="#1f75fe" stroke-linecap="round" stroke-linejoin="round" stroke-width="0.5" opacity="0.2"/>
    <path id="Path_985" data-name="Path 985" d="M376.307-153.966a2.406,2.406,0,0,1-1.893,2.829,2.407,2.407,0,0,1-2.831-1.893,2.4,2.4,0,0,1,1.895-2.829A2.4,2.4,0,0,1,376.307-153.966Z" transform="translate(-216.588 196.434)" fill="#1f75fe" stroke="#1f75fe" stroke-linecap="round" stroke-linejoin="round" stroke-width="0.5" opacity="0.2"/>
    <path id="Path_986" data-name="Path 986" d="M314.188-92.612a.612.612,0,0,1-.48.718.611.611,0,0,1-.72-.48.612.612,0,0,1,.482-.72A.612.612,0,0,1,314.188-92.612Z" transform="translate(-256.753 239.506)" fill="#1f75fe" stroke="#1f75fe" stroke-linecap="round" stroke-linejoin="round" stroke-width="0.5" opacity="0.2"/>
    <path id="Path_987" data-name="Path 987" d="M314-133.378a.612.612,0,0,1-.48.72.612.612,0,0,1-.72-.48.613.613,0,0,1,.48-.72A.613.613,0,0,1,314-133.378Z" transform="translate(-256.882 211.547)" fill="#1f75fe" stroke="#1f75fe" stroke-linecap="round" stroke-linejoin="round" stroke-width="0.5" opacity="0.2"/>
    <path id="Path_988" data-name="Path 988" d="M373.345-125.317a.612.612,0,0,1-.482.72.611.611,0,0,1-.718-.48.612.612,0,0,1,.48-.72A.613.613,0,0,1,373.345-125.317Z" transform="translate(-216.179 217.076)" fill="#1f75fe" stroke="#1f75fe" stroke-linecap="round" stroke-linejoin="round" stroke-width="0.5" opacity="0.2"/>
    <path id="Path_989" data-name="Path 989" d="M375-142.9a.613.613,0,0,1-.48.72.613.613,0,0,1-.72-.482.612.612,0,0,1,.48-.72A.613.613,0,0,1,375-142.9Z" transform="translate(-215.044 205.019)" fill="#1f75fe" stroke="#1f75fe" stroke-linecap="round" stroke-linejoin="round" stroke-width="0.5" opacity="0.2"/>
    <path id="Path_990" data-name="Path 990" d="M355.2-116.332a11.723,11.723,0,0,1-9.218,13.779,11.723,11.723,0,0,1-13.78-9.217,11.724,11.724,0,0,1,9.218-13.78A11.725,11.725,0,0,1,355.2-116.332Z" transform="translate(-243.723 217.099)" fill="#1f75fe" stroke="#1f75fe" stroke-linecap="round" stroke-linejoin="round" stroke-width="0.5" opacity="0.2"/>
  </g>
</svg>
