<svg xmlns="http://www.w3.org/2000/svg" xmlns:xlink="http://www.w3.org/1999/xlink" width="200" height="200" viewBox="0 0 200 200">
  <defs>
    <clipPath id="clip-BG_element_1">
      <rect width="200" height="200"/>
    </clipPath>
  </defs>
  <g id="BG_element_1" data-name="BG element 1" clip-path="url(#clip-BG_element_1)">
    <g id="Group_60" data-name="Group 60" transform="translate(-3862.156 1166.134)" opacity="0.2">
      <path id="Path_575" data-name="Path 575" d="M315.557-347.944c0-.014-.276-6.558-.568-13.476s-.6-14.2-.658-15.633v0l-.008-.315c-.008-2.212,1.006-5.026,3.483-8.52,2.75-3.928,9.788-15.7,9.827-28.753,0-.482-.008-.97-.031-1.457a29.493,29.493,0,0,0-3.3-11.543A46.1,46.1,0,0,0,309-444.949a48.116,48.116,0,0,0-27.379-8.163q-1.174,0-2.377.05c-14.975.6-24.136,6.99-29.257,14.357a36.608,36.608,0,0,0-6.411,20.01c0,.309.006.6.017.88a45.642,45.642,0,0,0,1.117,7.615,29.65,29.65,0,0,1,.869,5.737,6.176,6.176,0,0,1-.933,3.5c-1.427,2.223-3.355,4.678-4.962,6.89a35.1,35.1,0,0,0-2.092,3.151,6.639,6.639,0,0,0-1.039,3.1l.006.153v-.014a2.867,2.867,0,0,0,.939,1.989,5.765,5.765,0,0,0,2.533,1.2c1.257.315,2.6.5,3.544.766a3.558,3.558,0,0,1,.919.354l.042.028.251-.287-.32.2.07.089.251-.287-.32.2.591-.365-.683.128.092.237.591-.365-.683.128c.231,1.234.914,4.447,1.6,7.77.688,3.3,1.385,6.731,1.6,8.141v0a7.5,7.5,0,0,0,.861,2.594,6.116,6.116,0,0,0,3.237,2.683,14.062,14.062,0,0,0,5,.738h.237l.49,0a38.353,38.353,0,0,1,8.826.892,9.442,9.442,0,0,1,3.21,1.343,1.824,1.824,0,0,1,.911,1.435c.209,4.909.585,13.878.585,13.878a1.873,1.873,0,0,0,1.948,1.789,1.869,1.869,0,0,0,1.786-1.948c0-.014-.376-8.969-.585-13.878a5.568,5.568,0,0,0-2.421-4.277,16.315,16.315,0,0,0-7.049-2.474,48.679,48.679,0,0,0-7.21-.5l-.521,0h-.206a8.194,8.194,0,0,1-4.288-.8,2.07,2.07,0,0,1-.71-.741,3.832,3.832,0,0,1-.412-1.31c-.248-1.619-.942-5-1.635-8.336-.691-3.315-1.382-6.572-1.588-7.692a3.173,3.173,0,0,0-1.075-1.819,6.367,6.367,0,0,0-2.591-1.2c-1.3-.334-2.658-.521-3.561-.772a3.132,3.132,0,0,1-.8-.3h0l-.379.482.524-.3-.145-.178-.379.482.524-.3-.811.471.936-.039-.125-.432-.811.471.936-.039v-.014l-.591.031h.593l0-.031-.591.031h.538l.056.006v-.006h-.056l.056.006a5.156,5.156,0,0,1,.68-1.491c.691-1.173,1.836-2.73,3.081-4.4s2.6-3.469,3.736-5.244a9.926,9.926,0,0,0,1.527-5.519,32.434,32.434,0,0,0-.95-6.506,42.111,42.111,0,0,1-1.039-7v0c-.008-.22-.014-.462-.014-.722a32.941,32.941,0,0,1,5.737-17.867c4.578-6.478,12.354-12.142,26.351-12.766q1.124-.046,2.221-.047a43.753,43.753,0,0,1,31.227,12.382,41.328,41.328,0,0,1,8.1,11.016,25.833,25.833,0,0,1,2.917,10.035c.02.432.028.867.028,1.3.042,11.66-6.645,23.111-9.141,26.6h0c-2.719,3.845-4.162,7.328-4.171,10.676l.011.476v0c.12,2.878,1.226,29.109,1.226,29.109A1.868,1.868,0,0,0,313.769-346,1.868,1.868,0,0,0,315.557-347.944Z" transform="translate(3678.191 -656.375)" fill="#1f75fe"/>
      <path id="Path_576" data-name="Path 576" d="M235.007-448.415l11,7.5a1.868,1.868,0,0,0,2.6-.49,1.868,1.868,0,0,0-.49-2.6l-11-7.5a1.868,1.868,0,0,0-2.6.49A1.868,1.868,0,0,0,235.007-448.415Z" transform="translate(3673.965 -654.081)" fill="#1f75fe"/>
      <path id="Path_577" data-name="Path 577" d="M238.9-453.292l7.84,8.994a1.869,1.869,0,0,0,2.636.181,1.869,1.869,0,0,0,.181-2.636l-7.84-8.994a1.864,1.864,0,0,0-2.636-.181A1.869,1.869,0,0,0,238.9-453.292Z" transform="translate(3681.556 -662.227)" fill="#1f75fe"/>
      <path id="Path_578" data-name="Path 578" d="M245.1-457.673l5.372,10.8a1.869,1.869,0,0,0,2.5.839,1.867,1.867,0,0,0,.841-2.5l-5.372-10.793a1.867,1.867,0,0,0-2.5-.841A1.867,1.867,0,0,0,245.1-457.673Z" transform="translate(3693.103 -669.345)" fill="#1f75fe"/>
      <path id="Path_579" data-name="Path 579" d="M252.344-459.6l.864,12.51a1.869,1.869,0,0,0,1.995,1.733,1.864,1.864,0,0,0,1.733-1.992l-.864-12.51a1.873,1.873,0,0,0-1.995-1.736A1.868,1.868,0,0,0,252.344-459.6Z" transform="translate(3706.38 -671.535)" fill="#1f75fe"/>
      <path id="Path_580" data-name="Path 580" d="M262.66-459.275l-4.09,11.532a1.868,1.868,0,0,0,1.137,2.385,1.869,1.869,0,0,0,2.385-1.137l4.09-11.532a1.872,1.872,0,0,0-1.137-2.385A1.867,1.867,0,0,0,262.66-459.275Z" transform="translate(3717.316 -669.606)" fill="#1f75fe"/>
      <path id="Path_581" data-name="Path 581" d="M271.438-456.408l-6.871,9.952a1.869,1.869,0,0,0,.476,2.6,1.867,1.867,0,0,0,2.6-.476l6.871-9.952a1.87,1.87,0,0,0-.476-2.6A1.87,1.87,0,0,0,271.438-456.408Z" transform="translate(3727.629 -663.703)" fill="#1f75fe"/>
      <path id="Path_582" data-name="Path 582" d="M278.13-451.655l-9.052,6.486a1.869,1.869,0,0,0-.429,2.608,1.865,1.865,0,0,0,2.605.429l9.052-6.483a1.869,1.869,0,0,0,.432-2.608A1.872,1.872,0,0,0,278.13-451.655Z" transform="translate(3734.885 -654.394)" fill="#1f75fe"/>
      <path id="Path_583" data-name="Path 583" d="M253.776-402.98l1.858-.206A6.2,6.2,0,0,0,254-406.755a18.076,18.076,0,0,0-3.483-2.6,3.925,3.925,0,0,1-.866-.73l-.134-.354.011-.148v0a6.739,6.739,0,0,0,.072-.992,12.732,12.732,0,0,0-1.271-4.876,9.513,9.513,0,0,1-.981-3.079l.092-.482a6.1,6.1,0,0,0,.46-2.5c-.02-1.917-.474-3.853-.457-5.31a3.866,3.866,0,0,1,.234-1.51,1.361,1.361,0,0,1,.68-.719,5.516,5.516,0,0,0,2.627-3.034c.577-1.652.577-3.09.872-3.825a1.4,1.4,0,0,1,.437-.694,2.668,2.668,0,0,1,1.36-.465,8.628,8.628,0,0,0,3.909-1.432,19.14,19.14,0,0,0,2.814-2.825,3.229,3.229,0,0,1,.981-.7,4.621,4.621,0,0,1,1.736-.351,15.867,15.867,0,0,0,5.516-1.357,9.178,9.178,0,0,1,2.981-.953,2.164,2.164,0,0,1,1.507.694,6.111,6.111,0,0,0,2.407,1.29,8.8,8.8,0,0,0,2.374.293c1.474-.008,2.792-.229,3.719-.22a2.31,2.31,0,0,1,1.2.215c.137.1.334.231.541,1.05a5.516,5.516,0,0,0,2.4,3.667,5.6,5.6,0,0,0,2.455.741c1.078.075,1.956.025,2.212.1l.058.017.192-.421-.373.259.181.161.192-.421-.373.259.167-.114-.192.067.025.047.167-.114-.192.067.028.139v0a7.534,7.534,0,0,0,1.46,3.251c1,1.407,2.226,2.711,3.146,4.009a6.359,6.359,0,0,1,1.465,3.55,3.482,3.482,0,0,1-.195,1.145,9.392,9.392,0,0,0-.5,3.02,12.439,12.439,0,0,0,.741,3.956,8.752,8.752,0,0,1,.557,2.078l-.047.212a1.566,1.566,0,0,1-.529.454,4.679,4.679,0,0,0-1.8,1.959,5.157,5.157,0,0,0-.468,2.246,14.349,14.349,0,0,0,.262,2.332,11,11,0,0,1,.209,1.772,1.907,1.907,0,0,1-.22,1.017,2.41,2.41,0,0,1-1.112.894,9.57,9.57,0,0,0-3.483,2.861c-1.187,1.585-1.752,3.109-2.332,3.92a2.428,2.428,0,0,1-.783.794,2.565,2.565,0,0,1-1.321.279l-.451-.017c-.251-.019-.5-.031-.747-.031a12.529,12.529,0,0,0-6.391,2.034c-.8.462-1.5.88-2.081,1.148a3.313,3.313,0,0,1-1.393.384,2.119,2.119,0,0,1-1.145-.365,9.708,9.708,0,0,0-5.193-1.3c-1.245,0-2.34.123-3.168.12a3.639,3.639,0,0,1-1.337-.178,1.161,1.161,0,0,1-.616-.571,5.105,5.105,0,0,0-2.928-2.354,15.468,15.468,0,0,0-1.92-.429,4.726,4.726,0,0,1-.9-.24,1.4,1.4,0,0,1-.73-.635,6.331,6.331,0,0,1-.7-2.591l-1.858.206-1.856.206a8.979,8.979,0,0,0,1.613,4.686,5.158,5.158,0,0,0,2.3,1.658,24.838,24.838,0,0,0,2.711.638,2,2,0,0,1,.621.256,1.333,1.333,0,0,1,.412.468,4.932,4.932,0,0,0,2.446,2.165,7.241,7.241,0,0,0,2.742.451c1.126,0,2.184-.123,3.168-.12a5.98,5.98,0,0,1,3.251.755,5.9,5.9,0,0,0,3.087.911,7.077,7.077,0,0,0,2.964-.73c1.284-.6,2.377-1.357,3.485-1.911a7.413,7.413,0,0,1,3.416-.928l.471.019.727.028a5.957,5.957,0,0,0,4-1.349,7.671,7.671,0,0,0,1.624-2.042c.591-1.034,1.025-2,1.6-2.811a5.834,5.834,0,0,1,2.34-2.031,6.135,6.135,0,0,0,2.7-2.363,5.651,5.651,0,0,0,.73-2.906,14.593,14.593,0,0,0-.259-2.393,10.472,10.472,0,0,1-.209-1.711,1.518,1.518,0,0,1,.1-.638.921.921,0,0,1,.4-.393l0,0a5.2,5.2,0,0,0,1.747-1.686,4.086,4.086,0,0,0,.591-2.151,10.736,10.736,0,0,0-.741-3.237,8.9,8.9,0,0,1-.557-2.8,5.568,5.568,0,0,1,.306-1.819,7.208,7.208,0,0,0,.393-2.346,8.532,8.532,0,0,0-1.112-4.054,29.32,29.32,0,0,0-3.276-4.483,7.266,7.266,0,0,1-1.716-2.783,3.767,3.767,0,0,0-.808-1.934,3.291,3.291,0,0,0-1.41-.986,6.419,6.419,0,0,0-2.145-.307,5.153,5.153,0,0,1-1.85-.192l-.362-.3a2.793,2.793,0,0,1-.432-1.073,5.2,5.2,0,0,0-2.162-3.349,5.858,5.858,0,0,0-3.221-.808c-1.382.008-2.664.226-3.719.22a5.136,5.136,0,0,1-1.368-.156,2.343,2.343,0,0,1-.956-.5,5.928,5.928,0,0,0-3.965-1.616,11.763,11.763,0,0,0-4.394,1.231,12.241,12.241,0,0,1-4.26,1.081,7.773,7.773,0,0,0-3.917,1.106,15.05,15.05,0,0,0-2.9,2.831,4.444,4.444,0,0,1-2.962,1.4,5.815,5.815,0,0,0-3.948,2,6,6,0,0,0-1.112,2.416c-.262,1.14-.34,2.117-.552,2.769a1.8,1.8,0,0,1-.944,1.237,5.152,5.152,0,0,0-2.36,2.541,7.518,7.518,0,0,0-.538,2.99c.017,2.056.474,4.051.457,5.31a2.554,2.554,0,0,1-.134.97,4.884,4.884,0,0,0-.418,2.012,12.132,12.132,0,0,0,1.27,4.522,9.539,9.539,0,0,1,.981,3.432l-.033.449v0l-.05.7a4.209,4.209,0,0,0,.44,1.889,5.87,5.87,0,0,0,1.9,2.078c1.022.724,2.026,1.256,2.7,1.836a2.683,2.683,0,0,1,1.1,1.861Z" transform="translate(3690.792 -649.79)" fill="#1f75fe"/>
      <path id="Path_584" data-name="Path 584" d="M248.81-415.383l.708.011a11.905,11.905,0,0,0,3.733-.521,6.605,6.605,0,0,0,3.77-2.992,10.9,10.9,0,0,0,1.256-4.6,9.96,9.96,0,0,1,.872-4.132,3.191,3.191,0,0,1,1.028-1.034,9.362,9.362,0,0,1,2.332-1.036c2.229-.713,4.6-1.19,6.848-2a10.788,10.788,0,0,0,5.87-4.394h0c1.061-1.755,2.5-3.795,3.658-5.377.58-.791,1.095-1.474,1.463-1.953s.582-.755.582-.758a1.869,1.869,0,0,0-.318-2.622,1.872,1.872,0,0,0-2.625.318c-.02.031-3.633,4.628-5.957,8.453v0a7.076,7.076,0,0,1-3.962,2.825c-1.861.685-4.221,1.17-6.7,1.956a12.848,12.848,0,0,0-3.265,1.482,6.93,6.93,0,0,0-2.786,3.547,17.823,17.823,0,0,0-.769,4.413,5.758,5.758,0,0,1-1.179,3.591,3.071,3.071,0,0,1-1.3.769,8.251,8.251,0,0,1-2.563.331l-.571-.011a1.868,1.868,0,0,0-1.934,1.8A1.868,1.868,0,0,0,248.81-415.383Z" transform="translate(3696.864 -645.793)" fill="#1f75fe"/>
      <path id="Path_585" data-name="Path 585" d="M251.591-444.439a7.766,7.766,0,0,0,2.5,3.363c1.571,1.351,3.463,2.5,4.873,3.58a10,10,0,0,1,1.6,1.429l.3.457.042.137v.02a1.87,1.87,0,0,0,1.844,1.895,1.869,1.869,0,0,0,1.892-1.842l0-.072a4.232,4.232,0,0,0-.613-2.134,9.606,9.606,0,0,0-2.407-2.555c-1.388-1.095-2.981-2.1-4.252-3.068A12.109,12.109,0,0,1,255.8-444.6a2.834,2.834,0,0,1-.652-.975,1.872,1.872,0,0,0-2.349-1.215A1.873,1.873,0,0,0,251.591-444.439Z" transform="translate(3704.887 -645.236)" fill="#1f75fe"/>
      <path id="Path_586" data-name="Path 586" d="M248.736-443.56l-.011.368a8.728,8.728,0,0,0,1.148,4.082,23.337,23.337,0,0,0,5.491,6.313,1.869,1.869,0,0,0,2.622-.318,1.868,1.868,0,0,0-.318-2.625l-.045-.036a22.848,22.848,0,0,1-2.914-2.875c-1.284-1.488-2.293-3.357-2.248-4.541l.006-.151a1.867,1.867,0,0,0-1.758-1.972A1.865,1.865,0,0,0,248.736-443.56Z" transform="translate(3699.924 -642.454)" fill="#1f75fe"/>
      <path id="Path_587" data-name="Path 587" d="M246.787-439.441a7.054,7.054,0,0,0,1.357,2.847,11.932,11.932,0,0,0,3.1,2.547,22.648,22.648,0,0,1,3.02,2.123,1.868,1.868,0,0,0,2.636-.161,1.869,1.869,0,0,0-.162-2.639,40.883,40.883,0,0,0-4.408-3.081,5.866,5.866,0,0,1-1.257-1.112,3.328,3.328,0,0,1-.644-1.368,1.866,1.866,0,0,0-2.24-1.4A1.868,1.868,0,0,0,246.787-439.441Z" transform="translate(3696.376 -636.049)" fill="#1f75fe"/>
      <path id="Path_588" data-name="Path 588" d="M257.031-417.611a12.855,12.855,0,0,1-.34-2.942,11.519,11.519,0,0,1,2.354-7.166,7.72,7.72,0,0,1,6.23-3,11.226,11.226,0,0,1,3.293.532,14.1,14.1,0,0,0,4.168.674,9.632,9.632,0,0,0,5.333-1.521,11.5,11.5,0,0,0,4.073-4.917,13.559,13.559,0,0,0,.975-2.911,1.868,1.868,0,0,0-1.491-2.181,1.868,1.868,0,0,0-2.181,1.491l.234.044-.234-.047v0l.234.044-.234-.047a10.508,10.508,0,0,1-1.46,3.407,6.739,6.739,0,0,1-2.028,2.028,5.873,5.873,0,0,1-3.221.872,10.451,10.451,0,0,1-3.073-.51,14.854,14.854,0,0,0-4.388-.7,11.5,11.5,0,0,0-9.144,4.391,15.246,15.246,0,0,0-3.179,9.506,16.521,16.521,0,0,0,.443,3.8,1.865,1.865,0,0,0,2.248,1.387A1.868,1.868,0,0,0,257.031-417.611Z" transform="translate(3707.474 -634.869)" fill="#1f75fe"/>
      <path id="Path_589" data-name="Path 589" d="M252-437.184a10.772,10.772,0,0,1,2.471.666,15.6,15.6,0,0,1,4.572,2.633A6.868,6.868,0,0,1,260.5-432.2a3.124,3.124,0,0,1,.471,1.583v.045a1.866,1.866,0,0,0,1.9,1.836,1.867,1.867,0,0,0,1.836-1.9l-1.407.022h1.407v-.022l-1.407.022h1.407v-.005a7.254,7.254,0,0,0-1.624-4.424,15.511,15.511,0,0,0-5.358-4.132,16.847,16.847,0,0,0-5.355-1.73,1.869,1.869,0,0,0-2.045,1.674A1.865,1.865,0,0,0,252-437.184Z" transform="translate(3702.763 -634.581)" fill="#1f75fe"/>
      <path id="Path_590" data-name="Path 590" d="M263.575-434.929a9.623,9.623,0,0,0-3.093-.468,18.146,18.146,0,0,0-11.392,4.525,1.868,1.868,0,0,0-.145,2.639,1.871,1.871,0,0,0,2.638.142,14.57,14.57,0,0,1,8.9-3.569,5.967,5.967,0,0,1,1.892.27,1.87,1.87,0,0,0,2.371-1.167A1.87,1.87,0,0,0,263.575-434.929Z" transform="translate(3699.465 -624.734)" fill="#1f75fe"/>
      <path id="Path_591" data-name="Path 591" d="M268.605-444.765a14.3,14.3,0,0,0-7.314,4.162,16.629,16.629,0,0,0-4.135,9.322,1.868,1.868,0,0,0,1.6,2.1,1.87,1.87,0,0,0,2.1-1.6,12.909,12.909,0,0,1,3.159-7.277,10.6,10.6,0,0,1,5.422-3.07,1.865,1.865,0,0,0,1.4-2.237A1.866,1.866,0,0,0,268.605-444.765Z" transform="translate(3714.954 -641.552)" fill="#1f75fe"/>
      <path id="Path_592" data-name="Path 592" d="M262.535-422.978c-1.722-2.318-2.822-4.809-2.781-6.263a2.111,2.111,0,0,1,.435-1.407,3.6,3.6,0,0,1,1.92-1.05,1.872,1.872,0,0,0,1.315-2.293,1.871,1.871,0,0,0-2.293-1.312,7.235,7.235,0,0,0-3.828,2.287,5.847,5.847,0,0,0-1.284,3.775c.039,2.934,1.574,5.784,3.5,8.467a1.87,1.87,0,0,0,2.613.407A1.869,1.869,0,0,0,262.535-422.978Z" transform="translate(3712.951 -624.685)" fill="#1f75fe"/>
    </g>
  </g>
</svg>
