<svg xmlns="http://www.w3.org/2000/svg" width="1579" height="795"><defs><clipPath id="a"><rect data-name="Rectangle 138" width="1579" height="795" rx="68" transform="translate(171 194)" fill="#1551b1"/></clipPath></defs><g data-name="Group 125" fill="#1f75fe"><g data-name="Group 122"><path data-name="Path 1294" d="M75.717 507.235c7.514-5.266-.63-16.885-8.143-11.619s.629 16.886 8.143 11.62z" opacity=".2"/><path data-name="Path 1295" d="M75.774 615.651c7.514-5.266-.629-16.884-8.142-11.618s.629 16.884 8.142 11.618z" opacity=".2"/><path data-name="Path 1296" d="M43.745 684.081c7.514-5.266-.63-16.885-8.143-11.619-7.437 5.212.63 16.885 8.143 11.62z" opacity=".2"/><path data-name="Path 1297" d="M107.717 583.632c7.514-5.266-.63-16.885-8.143-11.619-7.436 5.211.708 16.83 8.143 11.62z" opacity=".2"/><path data-name="Path 1298" d="M107.775 711.533c7.514-5.266-.63-16.885-8.143-11.619s.629 16.886 8.143 11.62z" opacity=".2"/><path data-name="Path 1299" d="M43.774 542.087c7.514-5.266-.63-16.885-8.143-11.619s.63 16.885 8.143 11.62z" opacity=".2"/><path data-name="Path 1300" d="M107.774 635.928c7.515-5.267-.629-16.886-8.143-11.62s.63 16.886 8.143 11.62z" opacity=".2"/><path data-name="Path 1301" d="M75.716 554.249c7.515-5.267-.629-16.886-8.143-11.62-7.436 5.212.708 16.831 8.143 11.62z" opacity=".2"/><path data-name="Path 1302" d="M75.775 749.378c7.514-5.266-.63-16.885-8.143-11.619s.629 16.886 8.143 11.62z" opacity=".2"/><path data-name="Path 1303" d="M107.718 669.53c7.514-5.267-.63-16.886-8.143-11.62-7.437 5.212.706 16.832 8.143 11.62z" opacity=".2"/><path data-name="Path 1304" d="M43.774 732.444c7.514-5.266-.63-16.885-8.143-11.619s.63 16.885 8.143 11.62z" opacity=".2"/><path data-name="Path 1305" d="M43.774 580.408c7.515-5.267-.629-16.886-8.143-11.62s.63 16.886 8.143 11.62z" opacity=".2"/><path data-name="Path 1306" d="M75.774 671.765c7.515-5.267-.629-16.886-8.143-11.62s.63 16.886 8.143 11.62z" opacity=".2"/><path data-name="Path 1307" d="M75.774 708.364c7.515-5.267-.629-16.886-8.143-11.62s.63 16.886 8.143 11.62z" opacity=".2"/><path data-name="Path 1308" d="M107.746 740.403c7.514-5.266-.63-16.885-8.143-11.619-7.437 5.212.63 16.885 8.143 11.62z" opacity=".2"/><path data-name="Path 1309" d="M43.745 628.791c7.514-5.266-.63-16.885-8.143-11.619-7.437 5.212.63 16.885 8.143 11.62z" opacity=".2"/></g><g data-name="Mask Group 12" clip-path="url(#a)" transform="translate(-171 -194)"><g data-name="Group 121"><path data-name="Path 415" d="M66.204 572.253c27.857 7.066 56.445 13.644 84.628 4.386 24.2-7.959 44.669-24.446 63.349-41.258 19.086-17.137 40.608-36.06 45.644-62.536 2.274-11.939.325-24.608-7.148-34.436-7.391-9.746-18.354-16.162-28.588-22.416l-89.176-54.334c-6.66-4.061-.568-14.619 6.173-10.558q42.882 26.07 85.683 52.222c11.289 6.9 23.228 13.726 32.243 23.634a53.521 53.521 0 0 1 13.888 37.441c-.731 29.644-20.954 52.466-41.5 71.551-20.223 18.761-41.664 37.522-67.328 48.4a109.784 109.784 0 0 1-47.511 8.934c-18.193-.65-36.06-5.035-53.6-9.5-7.64-1.621-4.391-13.398 3.243-11.53z" opacity=".2"/><path data-name="Path 416" d="M63.768 629.564c38.09 4.223 76.1-4.873 110.779-20.385a379.607 379.607 0 0 0 48.648-26.314c14.294-9.177 27.857-19.492 39.228-32.08 22.01-24.284 32-57.014 26.233-89.419a103.46 103.46 0 0 0-19-44.344c-9.259-12.345-21.36-22.416-33.948-31.187-29.075-20.223-62.212-35.248-87.064-61.075-5.441-5.685 3.167-14.294 8.609-8.609 22.984 23.878 53.44 38.172 80.648 56.445 13.563 9.1 26.639 19.329 37.2 31.837a114.973 114.973 0 0 1 23.39 45.156c8.69 33.624 2.437 70.5-18.355 98.515-21.928 29.563-54.983 49.867-87.551 65.948-39.8 19.654-84.14 32.568-128.89 27.695-3.249-.325-6.091-2.518-6.091-6.091.071-3.006 2.834-6.417 6.164-6.092z" opacity=".2"/><path data-name="Path 417" d="M104.133 683.817c76.587-17.3 146.758-61.806 194.431-124.261 13.157-17.218 24.609-36.06 24.69-58.394.081-21.36-7.553-42.8-16.243-62.049-16-35.735-39.8-67.166-66.678-95.267-31.187-32.649-66.353-61.156-101.52-89.257-2.6-2.03-2.112-6.416 0-8.609 2.518-2.6 6.091-2.03 8.609 0 63.349 50.6 130.027 104.606 166.331 179 9.34 19.167 17.462 39.877 20.466 60.993 1.706 12.02 1.706 24.2-1.462 35.979-2.843 10.8-8.04 20.954-14.05 30.212-22.253 34.436-53.115 64-86.414 87.632a349.3 349.3 0 0 1-124.91 55.8c-7.636 1.703-10.884-10.073-3.25-11.779z" opacity=".2"/></g><path data-name="Path 934" d="M1588.924 232.437c-1.243 22.074 1.43 44.962 12.35 64.53 10.402 18.745 27.103 33.326 45.575 43.858 20.304 11.57 43.924 20.132 67.53 20.123 22.362-.01 43.274-8.745 61.742-20.765 9.435-6.117 18.137-13.127 27.013-20.08 8.992-7.018 18.684-13.821 30.055-16.09 9.9-2.001 20.16-.013 27.41 7.278 5.78 5.837 9.262 13.556 12.56 20.932 3.515 7.92 6.872 15.89 12.002 22.916a39.309 39.309 0 0 0 22.282 15.283c19.893 4.931 41.077-3.911 54.736-18.36a75.489 75.489 0 0 0 19.879-60.952c-1.422-11.638-5.195-22.94-6.023-34.637-.72-10.178.637-21.974 7.975-29.688 6.151-6.497 15.216-8.897 22.994-12.887 8.009-4.113 14.784-10.612 15.474-20.072.693-9.937-5.75-19.089-13.042-25.149-7.882-6.48-18.098-10.177-28.039-12.115-21.31-4.214-43.063-1.34-64.55-2.308-10.397-.449-20.643-1.858-30.451-5.479a2.993 2.993 0 0 0-2.875.319 20.152 20.152 0 0 1-4.29-5.86c-2.36-4.648-4.17-9.85-8.072-13.528-8.174-7.718-20.269-6.053-29.598-1.532-9.287 4.534-16.469 12.679-26.197 16.312-10.058 3.771-20.416.222-28.778-5.782-18.065-12.948-25.367-35.571-42.207-49.722-16.792-14.135-39.752-15.457-60.06-9.17-40.815 12.609-68.472 50.452-82.436 89.08a218.84 218.84 0 0 0-12.959 63.545z" opacity=".2"/></g></g></svg>