<svg xmlns="http://www.w3.org/2000/svg" xmlns:xlink="http://www.w3.org/1999/xlink" width="86.174" height="86.174" viewBox="0 0 86.174 86.174">
  <defs>
    <filter id="Path_1289" x="0" y="0" width="86.174" height="86.174" filterUnits="userSpaceOnUse">
      <feOffset dx="4" dy="4" input="SourceAlpha"/>
      <feGaussianBlur stdDeviation="3" result="blur"/>
      <feFlood flood-opacity="0.161"/>
      <feComposite operator="in" in2="blur"/>
      <feComposite in="SourceGraphic"/>
    </filter>
  </defs>
  <g id="Group_103" data-name="Group 103" transform="translate(5 5)">
    <g id="_10257477141582779198" data-name="10257477141582779198" transform="translate(0 0)" opacity="0.5">
      <g transform="matrix(1, 0, 0, 1, -5, -5)" filter="url(#Path_1289)">
        <path id="Path_1289-2" data-name="Path 1289" d="M63.6,16.977A33.944,33.944,0,0,0,51.2,4.572,33.343,33.343,0,0,0,34.088,0a33.343,33.343,0,0,0-17.11,4.572,33.935,33.935,0,0,0-12.406,12.4A33.342,33.342,0,0,0,0,34.087,33.349,33.349,0,0,0,4.572,51.2,33.944,33.944,0,0,0,16.977,63.6a33.346,33.346,0,0,0,17.11,4.572A33.346,33.346,0,0,0,51.2,63.6,33.935,33.935,0,0,0,63.6,51.2a33.348,33.348,0,0,0,4.571-17.11A33.351,33.351,0,0,0,63.6,16.977Z" transform="translate(5 5)" fill="#1f75fe"/>
      </g>
    </g>
    <g id="Iconly_Bold_Profile" data-name="Iconly/Bold/Profile" transform="translate(18.896 14.964)">
      <g id="Profile" transform="translate(0 0)">
        <path id="Path_1290" data-name="Path 1290" d="M11.105,25.911a50.763,50.763,0,0,1,8.214,0,33.27,33.27,0,0,1,4.435.561c3.171.647,5.24,1.7,6.127,3.4a4.739,4.739,0,0,1,0,4.236c-.887,1.7-2.875,2.824-6.16,3.4a31.654,31.654,0,0,1-4.435.578,37.56,37.56,0,0,1-4.156.153H12.617a11.9,11.9,0,0,0-1.528-.1,30.188,30.188,0,0,1-4.435-.561c-3.171-.612-5.24-1.7-6.127-3.4A4.692,4.692,0,0,1,0,32.036,4.641,4.641,0,0,1,.51,29.876c.871-1.7,2.941-2.807,6.144-3.4A32.189,32.189,0,0,1,11.105,25.911ZM15.2,0a10.154,10.154,0,0,1,9.971,10.327A10.154,10.154,0,0,1,15.2,20.654,10.154,10.154,0,0,1,5.224,10.327,10.154,10.154,0,0,1,15.2,0Z" transform="translate(0 0)" fill="#5cdfff"/>
      </g>
    </g>
  </g>
</svg>
