<svg xmlns="http://www.w3.org/2000/svg" version="1.1" xmlns:xlink="http://www.w3.org/1999/xlink" xmlns:svgjs="http://svgjs.com/svgjs" width="1440" height="560" preserveAspectRatio="none" viewBox="0 0 1440 560"><g mask="url(&quot;#SvgjsMask1073&quot;)" fill="none"><rect width="1440" height="560" x="0" y="0" fill="#0e2a47"></rect><path d="M -671.2636156190854,367 C -575.26,296 -383.26,-16.8 -191.26361561908533,12 C 0.74,40.8 96.74,498 288.73638438091467,511 C 480.74,524 576.74,88.2 768.7363843809146,77 C 960.74,65.8 1114.48,431.6 1248.7363843809146,455 C 1382.99,478.4 1401.75,246.2 1440,194" stroke="rgba(51, 121, 194, 0.58)" stroke-width="2"></path><path d="M -595.019682227534,249 C -499.02,267.4 -307.02,389.6 -115.01968222753393,341 C 76.98,292.4 172.98,-29.2 364.98031777246604,6 C 556.98,41.2 652.98,467 844.980317772466,517 C 1036.98,567 1205.98,279.6 1324.9803177724662,256 C 1443.98,232.4 1417,370.4 1440,399" stroke="rgba(51, 121, 194, 0.58)" stroke-width="2"></path><path d="M -0.32646170386720996,268 C 95.67,310.2 287.67,488 479.6735382961328,479 C 671.67,470 767.67,213 959.6735382961328,223 C 1151.67,233 1247.67,566.2 1439.6735382961328,529 C 1631.67,491.8 1919.61,39.6 1919.6735382961328,37 C 1919.74,34.4 1535.93,420.2 1440,516" stroke="rgba(51, 121, 194, 0.58)" stroke-width="2"></path><path d="M -180.45027533418317,131 C -84.45,161.6 107.55,289.4 299.5497246658168,284 C 491.55,278.6 587.55,81.6 779.5497246658168,104 C 971.55,126.4 1067.55,386.4 1259.549724665817,396 C 1451.55,405.6 1703.46,120.4 1739.549724665817,152 C 1775.64,183.6 1499.91,473.6 1440,554" stroke="rgba(51, 121, 194, 0.58)" stroke-width="2"></path><path d="M -596.5851508208027,349 C -500.59,293 -308.59,80.8 -116.58515082080271,69 C 75.41,57.2 171.41,273 363.4148491791973,290 C 555.41,307 651.41,111.4 843.4148491791973,154 C 1035.41,196.6 1204.1,498.4 1323.4148491791973,503 C 1442.73,507.6 1416.68,242.2 1440,177" stroke="rgba(51, 121, 194, 0.58)" stroke-width="2"></path></g><defs><mask id="SvgjsMask1073"><rect width="1440" height="560" fill="#ffffff"></rect></mask></defs></svg>