<svg xmlns="http://www.w3.org/2000/svg" xmlns:xlink="http://www.w3.org/1999/xlink" width="200" height="200" viewBox="0 0 200 200">
  <defs>
    <filter id="Path_1282" x="43" y="35.917" width="122.85" height="141.232" filterUnits="userSpaceOnUse">
      <feOffset dx="4" dy="4" input="SourceAlpha"/>
      <feGaussianBlur stdDeviation="3" result="blur"/>
      <feFlood flood-opacity="0.161"/>
      <feComposite operator="in" in2="blur"/>
      <feComposite in="SourceGraphic"/>
    </filter>
    <clipPath id="clip-Chapters_Coverage">
      <rect width="200" height="200"/>
    </clipPath>
  </defs>
  <g id="Chapters_Coverage" data-name="Chapters Coverage" clip-path="url(#clip-Chapters_Coverage)">
    <g id="Group_100" data-name="Group 100" transform="translate(-3950 -546)">
      <g transform="matrix(1, 0, 0, 1, 3950, 546)" filter="url(#Path_1282)">
        <path id="Path_1282-2" data-name="Path 1282" d="M8.99,11.92,3,24.089v93.977c0,9.44,5.216,17.087,11.65,17.087H96.2c6.437,0,11.65-7.646,11.65-17.087V32.632L103.23,11.92Z" transform="translate(45 29)" fill="#24c9f2"/>
      </g>
      <path id="Path_1283" data-name="Path 1283" d="M3,1035.4v75.725a11.667,11.667,0,0,0,11.65,11.65H96.2a11.665,11.665,0,0,0,11.65-11.65V1035.4Z" transform="translate(3995 -418.45)" fill="#fff"/>
      <path id="Path_1284" data-name="Path 1284" d="M3,1034.4v75.725a11.667,11.667,0,0,0,11.65,11.65H96.2a11.666,11.666,0,0,0,11.65-11.65V1034.4Z" transform="translate(3995 -423.275)" fill="#5cdfff" opacity="0.5"/>
      <path id="Path_1285" data-name="Path 1285" d="M3,1033.4v75.725a11.667,11.667,0,0,0,11.65,11.65H96.2a11.665,11.665,0,0,0,11.65-11.65V1033.4Z" transform="translate(3995 -428.1)" fill="#fff"/>
      <path id="Path_1286" data-name="Path 1286" d="M14.65,1A11.65,11.65,0,0,0,3,12.65V117.5a11.648,11.648,0,0,0,11.65,11.65H26.3v-5.825H17.562a8.737,8.737,0,1,1,0-17.475H96.2A11.647,11.647,0,0,0,107.85,94.2V12.65A11.648,11.648,0,0,0,96.2,1H14.65Z" transform="translate(3995 581)" fill="#24c9f2"/>
      <path id="Path_1287" data-name="Path 1287" d="M8,1V105.85H72.075A11.647,11.647,0,0,0,83.725,94.2V12.65A11.648,11.648,0,0,0,72.075,1H8Z" transform="translate(4019.125 581)" fill="#5cdfff"/>
      <g id="Group_99" data-name="Group 99" transform="translate(4034.431 606.163)">
        <path id="Path_981" data-name="Path 981" d="M358.335-107.322s.052-.112.157-.328l.088-.181c.028-.069.051-.147.08-.231a3.389,3.389,0,0,0,.162-.592c.02-.115.048-.235.068-.363s.019-.267.03-.411a2.794,2.794,0,0,0,0-.451c-.011-.157,0-.321-.028-.49a9.241,9.241,0,0,0-.563-2.279,21.086,21.086,0,0,0-3.292-5.53,47.465,47.465,0,0,0-5.936-6.156,73.7,73.7,0,0,0-8.273-6.257,84.293,84.293,0,0,0-10.385-5.819c-1.9-.889-3.883-1.724-5.947-2.472a51.663,51.663,0,0,0-6.437-1.9,27.794,27.794,0,0,0-6.893-.747,11.711,11.711,0,0,0-3.477.6,6.649,6.649,0,0,0-1.575.815,4.815,4.815,0,0,0-1.2,1.3,4.821,4.821,0,0,0-.562,1.681,6.563,6.563,0,0,0,.048,1.774,11.618,11.618,0,0,0,1.157,3.334,27.758,27.758,0,0,0,3.992,5.67,51.649,51.649,0,0,0,4.782,4.713c1.655,1.444,3.345,2.775,5.044,4.006a84.381,84.381,0,0,0,10.123,6.266,73.528,73.528,0,0,0,9.482,4.207,47.426,47.426,0,0,0,8.26,2.211,21.1,21.1,0,0,0,6.433.2,9.2,9.2,0,0,0,2.265-.613,4.441,4.441,0,0,0,.443-.213,2.819,2.819,0,0,0,.393-.221l.343-.225c.1-.078.2-.161.286-.236a3.248,3.248,0,0,0,.44-.429l.164-.181.115-.165c.136-.2.21-.295.21-.295s-.065.1-.2.3l-.113.167-.162.185a3.224,3.224,0,0,1-.437.437c-.09.075-.182.159-.285.24l-.345.229a2.861,2.861,0,0,1-.393.225,4.635,4.635,0,0,1-.444.217,9.194,9.194,0,0,1-2.274.629,21.013,21.013,0,0,1-6.453-.178,47.167,47.167,0,0,1-8.282-2.2,73.5,73.5,0,0,1-9.5-4.2,84.2,84.2,0,0,1-10.144-6.265c-1.7-1.232-3.4-2.564-5.057-4.01a51.914,51.914,0,0,1-4.8-4.723,27.863,27.863,0,0,1-4.014-5.7,11.811,11.811,0,0,1-1.171-3.375,6.781,6.781,0,0,1-.048-1.814,4.955,4.955,0,0,1,.58-1.733,4.975,4.975,0,0,1,1.237-1.346,6.732,6.732,0,0,1,1.611-.835,11.831,11.831,0,0,1,3.518-.608,27.824,27.824,0,0,1,6.927.751,51.711,51.711,0,0,1,6.453,1.909c2.069.751,4.055,1.588,5.956,2.481a84.164,84.164,0,0,1,10.395,5.839,73.416,73.416,0,0,1,8.274,6.28,47.182,47.182,0,0,1,5.932,6.181,21.022,21.022,0,0,1,3.283,5.559,9.165,9.165,0,0,1,.551,2.294,4.519,4.519,0,0,1,.026.493,2.814,2.814,0,0,1-.007.454c-.012.144-.023.281-.034.412s-.049.25-.071.366a3.275,3.275,0,0,1-.17.593c-.03.084-.053.162-.082.231l-.093.18C358.395-107.43,358.335-107.322,358.335-107.322Z" transform="translate(-301.68 152.743)" fill="none" stroke="#faff6e" stroke-linecap="round" stroke-linejoin="round" stroke-width="1.5"/>
        <path id="Path_982" data-name="Path 982" d="M362.114-127.87s-.037-.117-.1-.347l-.054-.195c-.024-.069-.06-.143-.094-.224a3.284,3.284,0,0,0-.273-.55c-.061-.1-.12-.208-.192-.316l-.25-.326a2.789,2.789,0,0,0-.3-.339,4.685,4.685,0,0,0-.348-.347,9.217,9.217,0,0,0-1.936-1.328,21.1,21.1,0,0,0-6.139-1.935,47.372,47.372,0,0,0-8.527-.642,73.647,73.647,0,0,0-10.339.838,84.176,84.176,0,0,0-11.623,2.571c-2.01.6-4.046,1.3-6.084,2.114a51.666,51.666,0,0,0-6.07,2.868,27.735,27.735,0,0,0-5.64,4.03,11.7,11.7,0,0,0-2.195,2.764,6.608,6.608,0,0,0-.633,1.657,4.809,4.809,0,0,0-.027,1.772,4.813,4.813,0,0,0,.7,1.628,6.652,6.652,0,0,0,1.217,1.292,11.682,11.682,0,0,0,3.083,1.718,27.834,27.834,0,0,0,6.753,1.574,51.753,51.753,0,0,0,6.707.333c2.2-.023,4.344-.156,6.431-.368a84.269,84.269,0,0,0,11.726-2.061,73.648,73.648,0,0,0,9.875-3.172,47.373,47.373,0,0,0,7.637-3.849,21.087,21.087,0,0,0,4.935-4.132,9.149,9.149,0,0,0,1.283-1.966,4.592,4.592,0,0,0,.19-.453,3.04,3.04,0,0,0,.145-.426c.036-.139.072-.271.106-.4s.038-.25.057-.366a3.341,3.341,0,0,0,.042-.613c0-.089.006-.17,0-.244s-.016-.14-.024-.2c-.028-.237-.039-.361-.039-.361s.02.122.053.359c.007.06.016.127.027.2s0,.157,0,.245a3.2,3.2,0,0,1-.036.617c-.017.116-.029.24-.053.368l-.1.4a2.867,2.867,0,0,1-.143.43,4.778,4.778,0,0,1-.187.458,9.155,9.155,0,0,1-1.279,1.983,21,21,0,0,1-4.934,4.162,47.173,47.173,0,0,1-7.642,3.874,73.282,73.282,0,0,1-9.884,3.194,84.127,84.127,0,0,1-11.742,2.077c-2.09.215-4.242.349-6.442.374a51.585,51.585,0,0,1-6.723-.331,27.829,27.829,0,0,1-6.788-1.58,11.823,11.823,0,0,1-3.121-1.738,6.8,6.8,0,0,1-1.245-1.321,4.97,4.97,0,0,1-.719-1.68,4.971,4.971,0,0,1,.027-1.828,6.722,6.722,0,0,1,.647-1.694,11.8,11.8,0,0,1,2.22-2.8,27.856,27.856,0,0,1,5.67-4.05,51.708,51.708,0,0,1,6.086-2.872c2.043-.817,4.084-1.513,6.1-2.114a84.056,84.056,0,0,1,11.644-2.561,73.357,73.357,0,0,1,10.354-.822,47.2,47.2,0,0,1,8.542.663,21.055,21.055,0,0,1,6.15,1.964,9.132,9.132,0,0,1,1.939,1.345,4.718,4.718,0,0,1,.348.351,2.879,2.879,0,0,1,.3.343c.087.116.17.227.249.33s.13.22.19.321a3.186,3.186,0,0,1,.268.556c.033.082.069.157.092.228l.052.2C362.086-127.988,362.114-127.87,362.114-127.87Z" transform="translate(-301.082 151.361)" fill="none" stroke="#faff6e" stroke-linecap="round" stroke-linejoin="round" stroke-width="1.5"/>
        <path id="Path_983" data-name="Path 983" d="M349.28-154.912s-.115-.044-.337-.132l-.186-.077c-.07-.023-.15-.04-.236-.063a3.211,3.211,0,0,0-.6-.121c-.115-.013-.238-.033-.368-.043l-.412,0a2.8,2.8,0,0,0-.45.027,4.507,4.507,0,0,0-.487.062,9.176,9.176,0,0,0-2.235.718,21.072,21.072,0,0,0-5.291,3.665,47.511,47.511,0,0,0-5.732,6.346,73.744,73.744,0,0,0-5.672,8.684,84.166,84.166,0,0,0-5.089,10.761c-.757,1.956-1.454,3.992-2.057,6.1a51.736,51.736,0,0,0-1.453,6.554,27.8,27.8,0,0,0-.27,6.927,11.692,11.692,0,0,0,.839,3.428,6.651,6.651,0,0,0,.922,1.516,4.838,4.838,0,0,0,1.383,1.107,4.809,4.809,0,0,0,1.716.445,6.6,6.6,0,0,0,1.767-.17,11.706,11.706,0,0,0,3.247-1.383,27.756,27.756,0,0,0,5.381-4.373,51.509,51.509,0,0,0,4.372-5.1c1.328-1.75,2.538-3.529,3.65-5.307a84.479,84.479,0,0,0,5.555-10.531,73.549,73.549,0,0,0,3.542-9.748,47.4,47.4,0,0,0,1.638-8.393,21.083,21.083,0,0,0-.242-6.431,9.19,9.19,0,0,0-.767-2.219,4.428,4.428,0,0,0-.243-.426,2.735,2.735,0,0,0-.249-.377l-.247-.328c-.086-.1-.175-.183-.255-.268a3.239,3.239,0,0,0-.459-.408l-.193-.151-.171-.1c-.205-.124-.309-.19-.309-.19s.108.057.316.178l.175.1.194.148a3.32,3.32,0,0,1,.467.406c.081.086.171.17.258.268l.252.328a2.822,2.822,0,0,1,.253.377c.077.138.178.271.246.428a9.156,9.156,0,0,1,.783,2.226,21.022,21.022,0,0,1,.267,6.449,47.125,47.125,0,0,1-1.621,8.412,73.213,73.213,0,0,1-3.532,9.769,84.269,84.269,0,0,1-5.551,10.552c-1.111,1.783-2.324,3.566-3.652,5.32a51.612,51.612,0,0,1-4.382,5.111,27.83,27.83,0,0,1-5.407,4.4,11.77,11.77,0,0,1-3.286,1.4,6.773,6.773,0,0,1-1.806.174,4.973,4.973,0,0,1-1.77-.46,4.986,4.986,0,0,1-1.427-1.141,6.733,6.733,0,0,1-.943-1.55,11.82,11.82,0,0,1-.85-3.469,27.868,27.868,0,0,1,.274-6.962A51.868,51.868,0,0,1,320-119.02c.606-2.115,1.306-4.153,2.065-6.113a84.214,84.214,0,0,1,5.109-10.771,73.325,73.325,0,0,1,5.695-8.688,47.218,47.218,0,0,1,5.758-6.344,21.057,21.057,0,0,1,5.319-3.658,9.186,9.186,0,0,1,2.251-.709,4.748,4.748,0,0,1,.491-.059,2.828,2.828,0,0,1,.453-.024l.414,0c.13.011.253.032.37.046a3.249,3.249,0,0,1,.6.129c.086.024.165.042.236.067l.186.079C349.169-154.964,349.28-154.912,349.28-154.912Z" transform="translate(-304.376 155.387)" fill="none" stroke="#faff6e" stroke-linecap="round" stroke-linejoin="round" stroke-width="1.5"/>
        <path id="Path_990" data-name="Path 990" d="M343.094-121.255a5.612,5.612,0,0,1-4.413,6.6,5.613,5.613,0,0,1-6.6-4.412,5.613,5.613,0,0,1,4.413-6.6A5.613,5.613,0,0,1,343.094-121.255Z" transform="translate(-307.042 149.675)" fill="#fea81f"/>
      </g>
    </g>
  </g>
</svg>
