<svg xmlns="http://www.w3.org/2000/svg" xmlns:xlink="http://www.w3.org/1999/xlink" width="200" height="200" viewBox="0 0 200 200">
  <defs>
    <filter id="Path_582" x="125.18" y="51.997" width="28.522" height="26.41" filterUnits="userSpaceOnUse">
      <feOffset dy="3" input="SourceAlpha"/>
      <feGaussianBlur stdDeviation="3" result="blur"/>
      <feFlood flood-opacity="0.161"/>
      <feComposite operator="in" in2="blur"/>
      <feComposite in="SourceGraphic"/>
    </filter>
    <filter id="Path_1256" x="52.677" y="56.076" width="102.544" height="121.684" filterUnits="userSpaceOnUse">
      <feOffset dx="4" dy="4" input="SourceAlpha"/>
      <feGaussianBlur stdDeviation="3" result="blur-2"/>
      <feFlood flood-opacity="0.161"/>
      <feComposite operator="in" in2="blur-2"/>
      <feComposite in="SourceGraphic"/>
    </filter>
    <clipPath id="clip-In-depth">
      <rect width="200" height="200"/>
    </clipPath>
  </defs>
  <g id="In-depth" clip-path="url(#clip-In-depth)">
    <g id="Group_96" data-name="Group 96" transform="translate(-7.371 -10.83)">
      <g id="Group_85" data-name="Group 85" transform="translate(63.372 46.83)">
        <path id="Path_576" data-name="Path 576" d="M234.862-449.02l9.047,6.173a1.537,1.537,0,0,0,2.136-.4,1.537,1.537,0,0,0-.4-2.136L236.6-451.56a1.537,1.537,0,0,0-2.136.4A1.537,1.537,0,0,0,234.862-449.02Z" transform="translate(-234.191 474.226)" fill="#faff6e"/>
        <path id="Path_577" data-name="Path 577" d="M238.819-453.841l6.45,7.4a1.538,1.538,0,0,0,2.168.149,1.538,1.538,0,0,0,.149-2.168l-6.45-7.4a1.534,1.534,0,0,0-2.168-.149A1.538,1.538,0,0,0,238.819-453.841Z" transform="translate(-228.699 468.333)" fill="#faff6e"/>
        <path id="Path_578" data-name="Path 578" d="M245.067-458.151l4.419,8.882a1.538,1.538,0,0,0,2.061.69,1.536,1.536,0,0,0,.692-2.061l-4.419-8.88a1.536,1.536,0,0,0-2.061-.692A1.536,1.536,0,0,0,245.067-458.151Z" transform="translate(-220.346 463.184)" fill="#faff6e"/>
        <path id="Path_579" data-name="Path 579" d="M252.343-459.955l.711,10.292a1.537,1.537,0,0,0,1.641,1.426,1.534,1.534,0,0,0,1.426-1.639l-.711-10.292a1.541,1.541,0,0,0-1.641-1.428A1.537,1.537,0,0,0,252.343-459.955Z" transform="translate(-210.74 461.6)" fill="#faff6e"/>
        <path id="Path_580" data-name="Path 580" d="M261.916-459.5l-3.365,9.487a1.537,1.537,0,0,0,.935,1.962,1.538,1.538,0,0,0,1.962-.935l3.365-9.487a1.54,1.54,0,0,0-.935-1.962A1.536,1.536,0,0,0,261.916-459.5Z" transform="translate(-202.829 462.995)" fill="#faff6e"/>
        <path id="Path_581" data-name="Path 581" d="M270.161-456.551l-5.653,8.188a1.538,1.538,0,0,0,.392,2.139,1.536,1.536,0,0,0,2.139-.392l5.652-8.188a1.538,1.538,0,0,0-.392-2.139A1.538,1.538,0,0,0,270.161-456.551Z" transform="translate(-195.367 467.266)" fill="#faff6e"/>
        <g transform="matrix(1, 0, 0, 1, -56, -36)" filter="url(#Path_582)">
          <path id="Path_582-2" data-name="Path 582" d="M276.387-451.716l-7.447,5.336a1.537,1.537,0,0,0-.353,2.146,1.534,1.534,0,0,0,2.143.353l7.447-5.334a1.538,1.538,0,0,0,.355-2.146A1.54,1.54,0,0,0,276.387-451.716Z" transform="translate(-134.12 510)" fill="#faff6e"/>
        </g>
      </g>
      <g transform="matrix(1, 0, 0, 1, 7.37, 10.83)" filter="url(#Path_1256)">
        <path id="Path_1256-2" data-name="Path 1256" d="M1445.506,308.641c-1.8-4.115-.017-5.239,1.173-11.668.545-2.975,3.714-7.93,4.623-9.1s15.88-18.281,43.066-10.254,27.625,29.061,27.625,29.061a33.56,33.56,0,0,1-.248,7.9c-1.372,8.71-6.528,19.386-9.883,23.931s-4.991,7.883-5.14,10.875c-.446,8.627,1.422,17.006,6.76,29.765,0,0-44.458,0-48.392.017a14.757,14.757,0,0,0,1.884-6.132,29.5,29.5,0,0,0-1.19-11.569c-.677-2.049-3.14-3.471-5.52-3.5-3.9-.066-7.4,1.157-13.47.033-3.14-.578-2.975-5.239-2.182-8.512.777-3.256-1.8-3.95-1.769-5.289.016-.744-.3-1.306,1.57-2.429-3.421-1.851-2.231-3.57-1.62-4.942,2.231-4.876-.264-4.859-1.256-5.239-.992-.4-3.669-.892-3.95-3.058-.3-2.182,2.992-6.264,5.57-9.718C1445.737,315.335,1446.96,312.013,1445.506,308.641Z" transform="translate(-1379.89 -214.4)" fill="#5cdfff"/>
      </g>
      <g id="Group_84" data-name="Group 84" transform="translate(84.981 84.759)">
        <path id="Path_583" data-name="Path 583" d="M251.974-411.214l1.529-.17a5.1,5.1,0,0,0-1.345-2.936,14.87,14.87,0,0,0-2.865-2.139,3.229,3.229,0,0,1-.713-.6l-.11-.291.009-.121v0a5.547,5.547,0,0,0,.06-.816,10.474,10.474,0,0,0-1.045-4.011,7.827,7.827,0,0,1-.807-2.533l.076-.4a5.014,5.014,0,0,0,.378-2.056c-.016-1.577-.39-3.17-.376-4.369a3.181,3.181,0,0,1,.193-1.242,1.12,1.12,0,0,1,.559-.591,4.538,4.538,0,0,0,2.161-2.5c.474-1.359.474-2.542.717-3.147a1.155,1.155,0,0,1,.36-.571,2.195,2.195,0,0,1,1.119-.383,7.1,7.1,0,0,0,3.216-1.178,15.745,15.745,0,0,0,2.315-2.324,2.657,2.657,0,0,1,.807-.573,3.8,3.8,0,0,1,1.428-.289,13.053,13.053,0,0,0,4.538-1.116,7.552,7.552,0,0,1,2.453-.784,1.78,1.78,0,0,1,1.24.571,5.028,5.028,0,0,0,1.98,1.061,7.239,7.239,0,0,0,1.953.241c1.213-.007,2.3-.188,3.06-.181a1.9,1.9,0,0,1,.988.177c.112.085.275.19.445.864a4.538,4.538,0,0,0,1.974,3.016,4.605,4.605,0,0,0,2.02.61c.887.062,1.609.021,1.82.085l.048.014.158-.346-.307.213.149.133.158-.346-.307.213.138-.094-.158.055.021.039.138-.094-.158.055.023.115v0a6.2,6.2,0,0,0,1.2,2.675c.823,1.158,1.831,2.23,2.588,3.3a5.231,5.231,0,0,1,1.206,2.92,2.864,2.864,0,0,1-.16.942,7.726,7.726,0,0,0-.415,2.485,10.235,10.235,0,0,0,.61,3.255,7.2,7.2,0,0,1,.458,1.71l-.039.174a1.288,1.288,0,0,1-.435.374,3.849,3.849,0,0,0-1.481,1.611,4.243,4.243,0,0,0-.385,1.848,11.8,11.8,0,0,0,.215,1.919,9.045,9.045,0,0,1,.172,1.458,1.569,1.569,0,0,1-.181.837,1.984,1.984,0,0,1-.915.736,7.873,7.873,0,0,0-2.865,2.354c-.976,1.3-1.442,2.558-1.919,3.225a2,2,0,0,1-.644.653,2.111,2.111,0,0,1-1.087.229l-.371-.014c-.206-.016-.415-.025-.614-.025a10.309,10.309,0,0,0-5.258,1.673c-.658.38-1.231.724-1.712.944a2.725,2.725,0,0,1-1.146.316,1.744,1.744,0,0,1-.942-.3,7.986,7.986,0,0,0-4.273-1.068c-1.025,0-1.925.1-2.606.1a3,3,0,0,1-1.1-.147.955.955,0,0,1-.507-.47A4.2,4.2,0,0,0,257-408.179a12.71,12.71,0,0,0-1.579-.353,3.888,3.888,0,0,1-.738-.2,1.148,1.148,0,0,1-.6-.523,5.21,5.21,0,0,1-.575-2.132l-1.529.17-1.527.17a7.387,7.387,0,0,0,1.327,3.855,4.243,4.243,0,0,0,1.889,1.364,20.428,20.428,0,0,0,2.23.525,1.645,1.645,0,0,1,.511.211,1.1,1.1,0,0,1,.339.385,4.057,4.057,0,0,0,2.012,1.781,5.958,5.958,0,0,0,2.256.371c.926,0,1.8-.1,2.606-.1a4.92,4.92,0,0,1,2.675.621,4.854,4.854,0,0,0,2.54.75,5.822,5.822,0,0,0,2.439-.6c1.057-.5,1.955-1.116,2.867-1.572a6.1,6.1,0,0,1,2.81-.763l.387.016.6.023a4.9,4.9,0,0,0,3.289-1.109,6.313,6.313,0,0,0,1.336-1.68c.486-.85.843-1.648,1.313-2.313a4.8,4.8,0,0,1,1.925-1.671,5.047,5.047,0,0,0,2.219-1.944,4.649,4.649,0,0,0,.6-2.391,12.011,12.011,0,0,0-.213-1.969,8.609,8.609,0,0,1-.172-1.407,1.249,1.249,0,0,1,.085-.525.757.757,0,0,1,.328-.323l0,0a4.277,4.277,0,0,0,1.437-1.387,3.362,3.362,0,0,0,.486-1.77,8.832,8.832,0,0,0-.61-2.664,7.321,7.321,0,0,1-.458-2.3,4.58,4.58,0,0,1,.252-1.5,5.93,5.93,0,0,0,.323-1.93,7.02,7.02,0,0,0-.915-3.335,24.122,24.122,0,0,0-2.7-3.688,5.979,5.979,0,0,1-1.412-2.29,3.1,3.1,0,0,0-.665-1.591,2.708,2.708,0,0,0-1.16-.811,5.282,5.282,0,0,0-1.765-.252,4.24,4.24,0,0,1-1.522-.158l-.3-.245a2.3,2.3,0,0,1-.355-.883,4.279,4.279,0,0,0-1.779-2.755,4.819,4.819,0,0,0-2.65-.665c-1.137.007-2.191.186-3.06.181a4.227,4.227,0,0,1-1.125-.128,1.929,1.929,0,0,1-.786-.415,4.877,4.877,0,0,0-3.262-1.329,9.677,9.677,0,0,0-3.615,1.013,10.07,10.07,0,0,1-3.5.889,6.4,6.4,0,0,0-3.223.91,12.381,12.381,0,0,0-2.384,2.329,3.656,3.656,0,0,1-2.437,1.151,4.784,4.784,0,0,0-3.248,1.643,4.932,4.932,0,0,0-.914,1.987c-.216.938-.28,1.742-.454,2.278a1.478,1.478,0,0,1-.777,1.018,4.239,4.239,0,0,0-1.941,2.09,6.186,6.186,0,0,0-.442,2.459c.014,1.692.39,3.333.376,4.369a2.1,2.1,0,0,1-.11.8,4.018,4.018,0,0,0-.344,1.655,9.981,9.981,0,0,0,1.045,3.72,7.848,7.848,0,0,1,.807,2.824l-.028.369v0l-.041.573a3.463,3.463,0,0,0,.362,1.554,4.829,4.829,0,0,0,1.561,1.71c.841.6,1.666,1.034,2.221,1.51a2.207,2.207,0,0,1,.908,1.531Z" transform="translate(-243.612 449.425)" fill="#fea81f"/>
        <path id="Path_584" data-name="Path 584" d="M248.491-421.021l.582.009a9.794,9.794,0,0,0,3.072-.429,5.434,5.434,0,0,0,3.1-2.462,8.967,8.967,0,0,0,1.034-3.782,8.2,8.2,0,0,1,.717-3.4,2.625,2.625,0,0,1,.846-.85,7.7,7.7,0,0,1,1.919-.853c1.834-.587,3.784-.979,5.634-1.648a8.875,8.875,0,0,0,4.83-3.615h0c.873-1.444,2.054-3.122,3.01-4.424.477-.651.9-1.213,1.2-1.607s.479-.621.479-.624a1.538,1.538,0,0,0-.261-2.157,1.54,1.54,0,0,0-2.159.261c-.016.025-2.989,3.807-4.9,6.954v0a5.822,5.822,0,0,1-3.259,2.324c-1.531.564-3.473.963-5.51,1.609a10.573,10.573,0,0,0-2.686,1.219,5.7,5.7,0,0,0-2.292,2.918,14.668,14.668,0,0,0-.633,3.631,4.737,4.737,0,0,1-.97,2.955,2.527,2.527,0,0,1-1.066.633,6.786,6.786,0,0,1-2.109.273l-.47-.009a1.537,1.537,0,0,0-1.591,1.481A1.537,1.537,0,0,0,248.491-421.021Z" transform="translate(-239.219 452.317)" fill="#fea81f"/>
        <path id="Path_585" data-name="Path 585" d="M251.576-444.871a6.389,6.389,0,0,0,2.058,2.767c1.293,1.112,2.849,2.061,4.009,2.945a8.225,8.225,0,0,1,1.313,1.176l.248.376.034.112v.016a1.538,1.538,0,0,0,1.517,1.559,1.537,1.537,0,0,0,1.556-1.515l0-.06a3.482,3.482,0,0,0-.5-1.756,7.9,7.9,0,0,0-1.98-2.1c-1.142-.9-2.453-1.724-3.5-2.524A9.966,9.966,0,0,1,255.042-445a2.332,2.332,0,0,1-.536-.8,1.54,1.54,0,0,0-1.932-1A1.541,1.541,0,0,0,251.576-444.871Z" transform="translate(-233.415 452.72)" fill="#fea81f"/>
        <path id="Path_586" data-name="Path 586" d="M248.734-443.871l-.009.3a7.181,7.181,0,0,0,.944,3.358,19.2,19.2,0,0,0,4.518,5.194,1.538,1.538,0,0,0,2.157-.261,1.536,1.536,0,0,0-.261-2.159l-.037-.03a18.8,18.8,0,0,1-2.4-2.365,6.728,6.728,0,0,1-1.85-3.736l0-.124a1.536,1.536,0,0,0-1.446-1.623A1.534,1.534,0,0,0,248.734-443.871Z" transform="translate(-237.005 454.732)" fill="#fea81f"/>
        <path id="Path_587" data-name="Path 587" d="M246.779-439.847A5.8,5.8,0,0,0,247.9-437.5a9.818,9.818,0,0,0,2.547,2.1,18.636,18.636,0,0,1,2.485,1.747,1.537,1.537,0,0,0,2.168-.133,1.538,1.538,0,0,0-.133-2.171,33.642,33.642,0,0,0-3.626-2.535,4.827,4.827,0,0,1-1.034-.914,2.738,2.738,0,0,1-.53-1.125,1.536,1.536,0,0,0-1.843-1.151A1.537,1.537,0,0,0,246.779-439.847Z" transform="translate(-239.572 459.366)" fill="#fea81f"/>
        <path id="Path_588" data-name="Path 588" d="M256.308-421.77a10.573,10.573,0,0,1-.28-2.421,9.477,9.477,0,0,1,1.937-5.9,6.351,6.351,0,0,1,5.125-2.464,9.233,9.233,0,0,1,2.709.438,11.607,11.607,0,0,0,3.429.555,7.925,7.925,0,0,0,4.387-1.252,9.458,9.458,0,0,0,3.351-4.046,11.156,11.156,0,0,0,.8-2.4,1.537,1.537,0,0,0-1.226-1.795,1.537,1.537,0,0,0-1.795,1.226l.193.036-.193-.039v0l.193.036-.193-.039a8.647,8.647,0,0,1-1.2,2.8,5.544,5.544,0,0,1-1.669,1.669,4.831,4.831,0,0,1-2.65.717,8.6,8.6,0,0,1-2.528-.42,12.222,12.222,0,0,0-3.61-.573,9.464,9.464,0,0,0-7.523,3.613,12.543,12.543,0,0,0-2.615,7.821,13.589,13.589,0,0,0,.365,3.129,1.535,1.535,0,0,0,1.85,1.142A1.537,1.537,0,0,0,256.308-421.77Z" transform="translate(-231.543 460.219)" fill="#fea81f"/>
        <path id="Path_589" data-name="Path 589" d="M251.7-437.845a8.867,8.867,0,0,1,2.033.548,12.835,12.835,0,0,1,3.761,2.166,5.649,5.649,0,0,1,1.2,1.389,2.569,2.569,0,0,1,.387,1.3v.037a1.535,1.535,0,0,0,1.563,1.51,1.536,1.536,0,0,0,1.511-1.561l-1.158.018h1.158v-.018l-1.158.018h1.158v0a5.968,5.968,0,0,0-1.336-3.64,12.762,12.762,0,0,0-4.408-3.4A13.861,13.861,0,0,0,252-440.9a1.538,1.538,0,0,0-1.682,1.378A1.534,1.534,0,0,0,251.7-437.845Z" transform="translate(-234.951 460.428)" fill="#fea81f"/>
        <path id="Path_590" data-name="Path 590" d="M260.9-435.012a7.916,7.916,0,0,0-2.544-.385,14.929,14.929,0,0,0-9.373,3.722,1.537,1.537,0,0,0-.119,2.171,1.539,1.539,0,0,0,2.171.117,11.988,11.988,0,0,1,7.321-2.936,4.91,4.91,0,0,1,1.556.222,1.539,1.539,0,0,0,1.951-.96A1.538,1.538,0,0,0,260.9-435.012Z" transform="translate(-237.338 467.552)" fill="#fea81f"/>
        <path id="Path_591" data-name="Path 591" d="M266.573-444.774a11.766,11.766,0,0,0-6.017,3.424,13.68,13.68,0,0,0-3.4,7.67,1.537,1.537,0,0,0,1.316,1.731,1.538,1.538,0,0,0,1.731-1.316,10.621,10.621,0,0,1,2.6-5.987,8.722,8.722,0,0,1,4.461-2.526,1.535,1.535,0,0,0,1.153-1.841A1.535,1.535,0,0,0,266.573-444.774Z" transform="translate(-226.131 455.385)" fill="#fea81f"/>
        <path id="Path_592" data-name="Path 592" d="M261.379-425.175c-1.417-1.907-2.322-3.956-2.288-5.153a1.737,1.737,0,0,1,.358-1.158,2.964,2.964,0,0,1,1.579-.864,1.54,1.54,0,0,0,1.082-1.887,1.539,1.539,0,0,0-1.886-1.08,5.953,5.953,0,0,0-3.15,1.882,4.811,4.811,0,0,0-1.057,3.106c.032,2.414,1.3,4.759,2.877,6.966a1.539,1.539,0,0,0,2.15.335A1.538,1.538,0,0,0,261.379-425.175Z" transform="translate(-227.581 467.587)" fill="#fea81f"/>
      </g>
    </g>
  </g>
</svg>
