<svg xmlns="http://www.w3.org/2000/svg" xmlns:xlink="http://www.w3.org/1999/xlink" width="200" height="200" viewBox="0 0 200 200">
  <defs>
    <filter id="Rectangle_128" x="79.481" y="99.63" width="49.659" height="78.027" filterUnits="userSpaceOnUse">
      <feOffset dx="4" dy="4" input="SourceAlpha"/>
      <feGaussianBlur stdDeviation="3" result="blur"/>
      <feFlood flood-opacity="0.161"/>
      <feComposite operator="in" in2="blur"/>
      <feComposite in="SourceGraphic"/>
    </filter>
    <filter id="Rectangle_22" x="39" y="120.417" width="49.659" height="57.343" filterUnits="userSpaceOnUse">
      <feOffset dx="4" dy="4" input="SourceAlpha"/>
      <feGaussianBlur stdDeviation="3" result="blur-2"/>
      <feFlood flood-opacity="0.161"/>
      <feComposite operator="in" in2="blur-2"/>
      <feComposite in="SourceGraphic"/>
    </filter>
    <filter id="Rectangle_129" x="118.868" y="70.09" width="49.659" height="107.414" filterUnits="userSpaceOnUse">
      <feOffset dx="4" dy="4" input="SourceAlpha"/>
      <feGaussianBlur stdDeviation="3" result="blur-3"/>
      <feFlood flood-opacity="0.161"/>
      <feComposite operator="in" in2="blur-3"/>
      <feComposite in="SourceGraphic"/>
    </filter>
    <filter id="Path_1255" x="118.869" y="31" width="49.658" height="48.42" filterUnits="userSpaceOnUse">
      <feOffset dx="4" dy="4" input="SourceAlpha"/>
      <feGaussianBlur stdDeviation="3" result="blur-4"/>
      <feFlood flood-opacity="0.161"/>
      <feComposite operator="in" in2="blur-4"/>
      <feComposite in="SourceGraphic"/>
    </filter>
    <clipPath id="clip-National_Rank">
      <rect width="200" height="200"/>
    </clipPath>
  </defs>
  <g id="National_Rank" data-name="National Rank" clip-path="url(#clip-National_Rank)">
    <g id="Group_82" data-name="Group 82" transform="translate(-5.032 -5.156)">
      <g transform="matrix(1, 0, 0, 1, 5.03, 5.16)" filter="url(#Rectangle_128)">
        <rect id="Rectangle_128-2" data-name="Rectangle 128" width="31.659" height="60.027" rx="2" transform="translate(84.48 104.63)" fill="#fea81f"/>
      </g>
      <g transform="matrix(1, 0, 0, 1, 5.03, 5.16)" filter="url(#Rectangle_22)">
        <rect id="Rectangle_22-2" data-name="Rectangle 22" width="31.659" height="39.343" rx="2" transform="translate(44 125.42)" fill="#68e1fd"/>
      </g>
      <g transform="matrix(1, 0, 0, 1, 5.03, 5.16)" filter="url(#Rectangle_129)">
        <rect id="Rectangle_129-2" data-name="Rectangle 129" width="31.659" height="89.414" rx="2" transform="translate(123.87 75.09)" fill="#faff6e"/>
      </g>
      <g id="Group_81" data-name="Group 81" transform="translate(128.9 41.156)">
        <g id="Group_80" data-name="Group 80" transform="translate(0)">
          <g transform="matrix(1, 0, 0, 1, -123.87, -36)" filter="url(#Path_1255)">
            <path id="Path_1255-2" data-name="Path 1255" d="M340.64,104.2q-1.711,4.291-3.414,8.582c-.162.409-.324.809-.485,1.218.409-.315.817-.622,1.234-.937l-9.323.843c-.451.043-.894.077-1.345.119a1.294,1.294,0,0,0-1.166.783,1.267,1.267,0,0,0,.264,1.4q3.614,2.976,7.228,5.943c.349.289.7.57,1.047.86-.111-.417-.221-.826-.332-1.243q-1.06,4.508-2.129,9.016c-.1.426-.2.843-.3,1.269a1.289,1.289,0,0,0,1.873,1.439q3.819-2.452,7.629-4.9c.366-.23.732-.468,1.09-.7h-1.286q3.819,2.452,7.629,4.9c.366.23.732.468,1.09.7a1.288,1.288,0,0,0,1.873-1.439q-1.06-4.508-2.129-9.016c-.1-.426-.2-.843-.3-1.269-.111.417-.221.826-.332,1.243q3.614-2.976,7.228-5.943c.349-.289.7-.57,1.047-.86a1.267,1.267,0,0,0,.264-1.4,1.309,1.309,0,0,0-1.166-.783l-9.323-.843c-.451-.043-.894-.077-1.345-.119.409.315.817.622,1.235.937q-1.711-4.291-3.414-8.582c-.162-.409-.324-.809-.485-1.218a1.322,1.322,0,0,0-1.575-.894,1.289,1.289,0,0,0-.894,1.575q1.711,4.291,3.414,8.582c.162.409.324.809.485,1.218.23.57-1.873,7.484,1.235,7.765.451.043,10.217-5.909,10.668-5.866-.3-.724-.6-1.456-.9-2.18q-3.614,2.976-7.228,5.943c-.349.289-.7.57-1.047.86s-5.824,3.744-5.73,4.161c.707,3.005,6.82,3.093,7.526,6.1.1.426.2.843.3,1.269l1.873-1.439q-3.819-2.452-7.629-4.9c-.366-.23-.732-.468-1.09-.7a1.245,1.245,0,0,0-1.286,0q-3.819,2.452-7.629,4.9c-.366.23-.732.468-1.09.7l1.873,1.439q1.06-4.508,2.128-9.016c.1-.426.2-.843.3-1.269s.358-6.42,0-6.709c-2.41-1.984-5.151,1.507-7.561-.477-.349-.289-.7-.57-1.047-.86-.3.724-.6,1.456-.9,2.18l9.323-.843c.451-.043-1.88,14.923-1.65,14.353.468-1.173,14.552-7.109,13.34-9.747-1.552-3.378-6.369-12.556-5.7-14.244.162-.409.324-.809.485-1.218a1.289,1.289,0,0,0-.894-1.575A1.315,1.315,0,0,0,340.64,104.2Z" transform="translate(-202.17 -67.26)" fill="#faff6e"/>
          </g>
        </g>
      </g>
    </g>
  </g>
</svg>
