<svg xmlns="http://www.w3.org/2000/svg" xmlns:xlink="http://www.w3.org/1999/xlink" width="200" height="200" viewBox="0 0 200 200">
  <defs>
    <filter id="Rectangle_14" x="26" y="39.467" width="155.163" height="136.374" filterUnits="userSpaceOnUse">
      <feOffset dx="4" dy="4" input="SourceAlpha"/>
      <feGaussianBlur stdDeviation="3" result="blur"/>
      <feFlood flood-opacity="0.161"/>
      <feComposite operator="in" in2="blur"/>
      <feComposite in="SourceGraphic"/>
    </filter>
    <clipPath id="clip-Performance_Report">
      <rect width="200" height="200"/>
    </clipPath>
  </defs>
  <g id="Performance_Report" data-name="Performance Report" clip-path="url(#clip-Performance_Report)">
    <g id="Group_98" data-name="Group 98" transform="translate(-10.78 -9.009)">
      <g transform="matrix(1, 0, 0, 1, 10.78, 9.01)" filter="url(#Rectangle_14)">
        <rect id="Rectangle_14-2" data-name="Rectangle 14" width="137.163" height="118.374" transform="translate(31 44.47)" fill="#fff"/>
      </g>
      <g id="Group_89" data-name="Group 89" transform="translate(107.852 75.507)">
        <path id="Path_1108" data-name="Path 1108" d="M209.79,135.753H168.247a.947.947,0,0,1,0-1.893H209.79a.947.947,0,1,1,0,1.893Z" transform="translate(-151.02 -133.86)" fill="#faff6e"/>
        <path id="Path_1109" data-name="Path 1109" d="M201.091,142.043H168.247a.947.947,0,0,1,0-1.893h32.845a.947.947,0,1,1,0,1.893Z" transform="translate(-151.02 -134.196)" fill="#faff6e"/>
        <path id="Path_1110" data-name="Path 1110" d="M146.568,141.634a1.249,1.249,0,0,1-.265,0,1.429,1.429,0,0,1-.994-.748l-1.24-2.395a1.42,1.42,0,1,1,2.518-1.306l.416.8,2.84-2.47a1.432,1.432,0,0,1,1.893,2.149l-4.222,3.644a1.392,1.392,0,0,1-.947.322Z" transform="translate(-143.877 -133.93)" fill="#5cdfff"/>
        <path id="Path_1111" data-name="Path 1111" d="M209.79,154.993H168.247a.947.947,0,0,1,0-1.893H209.79a.947.947,0,1,1,0,1.893Z" transform="translate(-151.02 -134.889)" fill="#faff6e"/>
        <path id="Path_1112" data-name="Path 1112" d="M201.091,161.293H168.247a.947.947,0,0,1,0-1.893h32.845a.947.947,0,1,1,0,1.893Z" transform="translate(-151.02 -135.225)" fill="#faff6e"/>
        <path id="Path_1113" data-name="Path 1113" d="M146.568,160.834a1.257,1.257,0,0,1-.265,0,1.448,1.448,0,0,1-.994-.738l-1.24-2.4a1.42,1.42,0,1,1,2.518-1.306l.416.8,2.84-2.47a1.432,1.432,0,0,1,1.893,2.149l-4.222,3.644A1.4,1.4,0,0,1,146.568,160.834Z" transform="translate(-143.877 -134.956)" fill="#5cdfff"/>
      </g>
      <g id="Group_90" data-name="Group 90" transform="translate(53.819 125.921)">
        <path id="Path_1114" data-name="Path 1114" d="M227.124,132.32a17.1,17.1,0,0,0-1.656,1.656A17.786,17.786,0,0,0,221,144.644h7.828a10.109,10.109,0,0,1,2.139-5.13,9.8,9.8,0,0,1,1.656-1.656,10.061,10.061,0,0,1,5.13-2.13V127.89A17.88,17.88,0,0,0,227.124,132.32Z" transform="translate(-221 -127.89)" fill="#5cdfff"/>
        <path id="Path_1115" data-name="Path 1115" d="M256.883,144.987a17.833,17.833,0,0,0-4.42-10.668l-5.537,5.537a10.184,10.184,0,0,1,2.13,5.13c0,.388.066.776.066,1.174a6.924,6.924,0,0,1-.066,1.174,10.109,10.109,0,0,1-2.139,5.13,9.8,9.8,0,0,1-1.656,1.656,10.034,10.034,0,0,1-5.13,2.13,10.343,10.343,0,0,1-2.338,0,10.1,10.1,0,0,1-5.13-2.13A9.8,9.8,0,0,1,231,152.465a10.157,10.157,0,0,1-2.139-5.13H221A17.785,17.785,0,0,0,225.43,158a17.109,17.109,0,0,0,1.656,1.656,17.9,17.9,0,0,0,10.667,4.43h2.338a17.88,17.88,0,0,0,10.668-4.43A16.1,16.1,0,0,0,252.416,158a17.786,17.786,0,0,0,4.43-10.667v-1.174C256.845,145.764,256.912,145.376,256.883,144.987Z" transform="translate(-221 -128.234)" fill="#5cdfff"/>
        <path id="Path_1116" data-name="Path 1116" d="M251.887,132.32a17.908,17.908,0,0,0-10.677-4.43v7.837a10.1,10.1,0,0,1,5.14,2.13Z" transform="translate(-222.081 -127.89)" fill="#b1f0fe"/>
      </g>
      <g id="Group_88" data-name="Group 88" transform="translate(107.852 129.455)">
        <path id="Path_1119" data-name="Path 1119" d="M199.01,110.139H140.868a.788.788,0,0,1-.788-.788V78.088a.788.788,0,0,1,1.575,0v30.477H199.01a.788.788,0,0,1,0,1.575Z" transform="translate(-140.08 -77.3)" fill="#5cdfff"/>
        <path id="Path_1120" data-name="Path 1120" d="M145.207,107.83a.717.717,0,0,1-.323-.055.787.787,0,0,1-.346-1.055c.268-.52,6.568-12.774,14.813-15.333,4.725-1.481,6.387,1.236,7.82,3.63,1.292,2.166,2.41,4.032,5.639,3.8,3.52-.252,5.568-3.764,7.544-7.166s4.127-7.088,7.922-6.946a77.175,77.175,0,0,0,9.45,0,.791.791,0,1,1,.15,1.575,77.911,77.911,0,0,1-9.686,0c-2.835-.094-4.615,2.937-6.5,6.166-2.079,3.575-4.442,7.631-8.8,7.946-4.205.291-5.812-2.363-7.088-4.568-1.4-2.363-2.418-4.048-6-2.937-7.615,2.363-13.813,14.419-13.876,14.545A.788.788,0,0,1,145.207,107.83Z" transform="translate(-141.009 -78.873)" fill="#fea81f"/>
      </g>
      <path id="Path_1124" data-name="Path 1124" d="M158,70.636a2.537,2.537,0,0,1-2.31-1.685c-.947-2.177-2.518-8.2-2.395-9.465.142-1.514.871-1.893,1.3-1.893.947-.151,1.893.738,2.575,2.187a59.782,59.782,0,0,1,1.675,7.08.482.482,0,0,1-.947.18,63.191,63.191,0,0,0-1.619-6.881c-.521-1.2-1.24-1.685-1.562-1.628s-.435.454-.492,1.079c-.095.947,1.325,6.626,2.319,8.992a1.543,1.543,0,0,0,1.808,1.07c1.06-.284,2-1.723,1.694-4.307-.606-5.149-3.606-11.889-4.941-13.441a1.3,1.3,0,0,0-1.723-.426c-.947.568-1.467,2.385-.407,5.017a.475.475,0,1,1-.88.36c-1.268-3.171-.511-5.386.8-6.181a2.234,2.234,0,0,1,2.934.615c1.609,1.893,4.562,8.869,5.159,13.943.379,3.152-.947,4.95-2.385,5.338a2.329,2.329,0,0,1-.6.047Z" transform="translate(-87.057 -3.378)" fill="#5cdfff"/>
      <path id="User_Circle_1_" d="M10.151,0A10.155,10.155,0,0,0,3.119,17.477a10.042,10.042,0,0,0,6.546,2.8c.122.008.252.024.374.024h.114a10.151,10.151,0,0,0,0-20.3Zm6.83,16.51c-.374-1.324-2.144-2.038-3.476-2.566l-.455-.187c-.869-.357-.869-.69-.869-1.169a1.688,1.688,0,0,1,.479-1.121,3.537,3.537,0,0,0,1.2-2.745,3.656,3.656,0,0,0-3.711-3.849A3.585,3.585,0,0,0,6.513,8.722a3.494,3.494,0,0,0,1.145,2.745,1.605,1.605,0,0,1,.455,1.121c0,.341,0,.763-1.056,1.194-1.3.536-3.021,1.267-3.809,2.647a9.336,9.336,0,1,1,16.242-6.278A9.27,9.27,0,0,1,16.981,16.51Z" transform="translate(62.065 78.389)" fill="#fea81f"/>
    </g>
  </g>
</svg>
