<svg xmlns="http://www.w3.org/2000/svg" xmlns:xlink="http://www.w3.org/1999/xlink" width="200" height="200" viewBox="0 0 200 200">
  <defs>
    <filter id="Path_1219" x="30" y="59.93" width="148.695" height="118.53" filterUnits="userSpaceOnUse">
      <feOffset dx="4" dy="4" input="SourceAlpha"/>
      <feGaussianBlur stdDeviation="3" result="blur"/>
      <feFlood flood-color="#1a202e" flood-opacity="0.314"/>
      <feComposite operator="in" in2="blur"/>
      <feComposite in="SourceGraphic"/>
    </filter>
    <clipPath id="clip-Topic_Wise_Questions">
      <rect width="200" height="200"/>
    </clipPath>
  </defs>
  <g id="Topic_Wise_Questions" data-name="Topic Wise Questions" clip-path="url(#clip-Topic_Wise_Questions)">
    <g id="Group_71" data-name="Group 71" transform="translate(-13.302 -13.112)">
      <g transform="matrix(1, 0, 0, 1, 13.3, 13.11)" filter="url(#Path_1219)">
        <path id="Path_1219-2" data-name="Path 1219" d="M236.214,101.65l-3.29,11.73c-34.762,3.814-56.156,27.193-56.156,27.193s-22.759-24.861-59.446-27.488V101.65l-5.9,14.327v70.445s39.527-6.566,65.348,15.758c25.82-22.324,65.348-15.758,65.348-15.758V115.977Z" transform="translate(-76.42 -36.72)" fill="#5cdfff"/>
      </g>
      <path id="Path_1221" data-name="Path 1221" d="M178.866,194.6V129.235S155.8,99.593,119.42,101.615v76.133S155.347,170.718,178.866,194.6Z" transform="translate(-65.216 -23.573)" fill="#fff"/>
      <path id="Path_1223" data-name="Path 1223" d="M200,194.6V129.235s23.069-29.642,59.446-27.62v76.133S223.519,170.718,200,194.6Z" transform="translate(-86.35 -23.573)" fill="#fff"/>
      <path id="Path_1225" data-name="Path 1225" d="M174.208,140.239a.738.738,0,0,1-.5-.2C153.788,121.412,133.6,122.7,133.4,122.718a.74.74,0,1,1-.111-1.475c.207,0,20.988-1.38,41.431,17.705a.752.752,0,0,1-.509,1.291Z" transform="translate(-68.673 -28.741)" fill="#5cdfff" opacity="0.339"/>
      <path id="Path_1226" data-name="Path 1226" d="M174.208,157.879a.738.738,0,0,1-.5-.2c-19.919-18.628-40.11-17.337-40.309-17.322a.74.74,0,0,1-.111-1.475c.207,0,21-1.38,41.431,17.705a.752.752,0,0,1-.509,1.291Z" transform="translate(-68.673 -33.367)" fill="#5cdfff" opacity="0.339"/>
      <path id="Path_1227" data-name="Path 1227" d="M174.208,175.519a.738.738,0,0,1-.5-.2C153.788,156.7,133.6,157.983,133.4,158a.74.74,0,1,1-.111-1.475c.207,0,21-1.38,41.431,17.705a.752.752,0,0,1-.509,1.291Z" transform="translate(-68.673 -37.994)" fill="#5cdfff" opacity="0.339"/>
      <path id="Path_1228" data-name="Path 1228" d="M174.208,193.159a.738.738,0,0,1-.5-.2c-19.919-18.62-40.11-17.337-40.309-17.322a.74.74,0,0,1-.111-1.475c.207,0,21-1.379,41.431,17.705a.752.752,0,0,1-.509,1.291Z" transform="translate(-68.673 -42.62)" fill="#5cdfff" opacity="0.339"/>
      <path id="Path_1229" data-name="Path 1229" d="M210.732,140.235a.756.756,0,0,1-.539-1.276,66.377,66.377,0,0,1,28.417-16.1,42.983,42.983,0,0,1,13.013-1.616.736.736,0,1,1-.111,1.468c-.2,0-20.369-1.306-40.309,17.322A.738.738,0,0,1,210.732,140.235Z" transform="translate(-88.967 -28.737)" fill="#5cdfff" opacity="0.339"/>
      <path id="Path_1230" data-name="Path 1230" d="M210.732,157.876a.756.756,0,0,1-.539-1.276,66.267,66.267,0,0,1,28.417-16.09,43.154,43.154,0,0,1,13.013-1.623.736.736,0,1,1-.111,1.468c-.2,0-20.369-1.306-40.309,17.322A.738.738,0,0,1,210.732,157.876Z" transform="translate(-88.967 -33.365)" fill="#5cdfff" opacity="0.339"/>
      <path id="Path_1231" data-name="Path 1231" d="M210.732,175.516a.756.756,0,0,1-.539-1.276,66.266,66.266,0,0,1,28.417-16.09,43.155,43.155,0,0,1,13.013-1.623.736.736,0,1,1-.111,1.468c-.2,0-20.376-1.3-40.309,17.322A.737.737,0,0,1,210.732,175.516Z" transform="translate(-88.967 -37.992)" fill="#5cdfff" opacity="0.339"/>
      <path id="Path_1232" data-name="Path 1232" d="M210.732,193.156a.756.756,0,0,1-.539-1.276,66.267,66.267,0,0,1,28.417-16.09,43.156,43.156,0,0,1,13.013-1.623.736.736,0,1,1-.111,1.468c-.2,0-20.376-1.3-40.309,17.322A.738.738,0,0,1,210.732,193.156Z" transform="translate(-88.967 -42.618)" fill="#5cdfff" opacity="0.339"/>
      <ellipse id="Ellipse_18" data-name="Ellipse 18" cx="8.344" cy="5.85" rx="8.344" ry="5.85" transform="translate(105.771 121.429)" fill="#fea81f"/>
      <path id="Path_1236" data-name="Path 1236" d="M197.4,181.623c-5,0-9.074-2.951-9.074-6.588s4.072-6.6,9.074-6.6,9.081,2.951,9.081,6.6S202.413,181.623,197.4,181.623Zm0-11.708c-4.19,0-7.6,2.294-7.6,5.12s3.408,5.112,7.6,5.112,7.606-2.294,7.606-5.112S201.6,169.915,197.4,169.915Z" transform="translate(-83.289 -47.749)" fill="#fea81f"/>
      <path id="Path_1237" data-name="Path 1237" d="M216.384,103.9a24.662,24.662,0,1,0-43.054,16.429,27.864,27.864,0,0,1,7.149,16.082H202.95a26.4,26.4,0,0,1,6.8-15.706A24.529,24.529,0,0,0,216.384,103.9Z" transform="translate(-77.711 -17.729)" fill="#fea81f"/>
      <path id="Path_1239" data-name="Path 1239" d="M192.843,146.329a.738.738,0,0,1-.738-.738c0-.155,0-11.538-1.475-19.41a19.306,19.306,0,0,1-6.986-2.892c-2.213-1.527-3.438-3.312-3.394-4.884a3.5,3.5,0,0,1,2.346-3.534c2.213-.642,5.031,1.018,7.222,4.227a17.315,17.315,0,0,1,2.051,5.813,20.848,20.848,0,0,0,6.794-.059c1.512-5.813,3.652-10.232,5.754-10.653a4.663,4.663,0,0,1,5.164,3.239c.317,1.077.848,4.773-5.8,7.473a24.008,24.008,0,0,1-3.851,1.2,61.038,61.038,0,0,0-1.734,18.723.741.741,0,0,1-1.475.133,62.6,62.6,0,0,1,1.586-18.569,22.381,22.381,0,0,1-6.116.037A133.386,133.386,0,0,1,193.6,145.62.738.738,0,0,1,192.843,146.329Zm-9.258-30.121a1.992,1.992,0,0,0-.568.081c-1.07.31-1.262,1.475-1.284,2.162,0,1.033,1.025,2.427,2.759,3.63a17.4,17.4,0,0,0,5.821,2.523,14.244,14.244,0,0,0-1.7-4.67C186.815,117.3,184.9,116.207,183.584,116.207Zm21.593-.6a2.347,2.347,0,0,0-.457.044c-1.328.266-3.039,3.866-4.426,8.853a23.122,23.122,0,0,0,2.885-.952c3.689-1.475,5.548-3.63,4.935-5.681a3.268,3.268,0,0,0-2.966-2.265Z" transform="translate(-81.17 -26.885)" fill="#fff"/>
      <rect id="Rectangle_127" data-name="Rectangle 127" width="27.777" height="11.368" rx="2.47" transform="translate(99.761 115.946)" fill="#5cdfff"/>
      <path id="Path_1241" data-name="Path 1241" d="M211.356,163.745H183.613a.742.742,0,1,1,0-1.475h27.742a.742.742,0,1,1,0,1.475Z" transform="translate(-84.115 -41.377)" fill="#fff"/>
      <path id="Path_1243" data-name="Path 1243" d="M158.859,98.181a.679.679,0,0,1-.266-.052l-9.332-3.637a.739.739,0,1,1,.531-1.38l9.332,3.593a.738.738,0,0,1-.266,1.424Z" transform="translate(-72.918 -21.356)" fill="#faff6e" stroke="#faff6e" stroke-linecap="round" stroke-linejoin="round" stroke-width="2"/>
      <path id="Path_1244" data-name="Path 1244" d="M174.051,75.243a.738.738,0,0,1-.561-.258l-6.064-7.119a.738.738,0,1,1,1.1-.974l6.064,7.126a.738.738,0,0,1-.561,1.21Z" transform="translate(-77.744 -14.412)" fill="#faff6e" stroke="#faff6e" stroke-linecap="round" stroke-linejoin="round" stroke-width="2"/>
      <path id="Path_1245" data-name="Path 1245" d="M237.246,98.181a.75.75,0,1,1-.266-1.475l9.332-3.593a.739.739,0,0,1,.531,1.38l-9.332,3.615A.678.678,0,0,1,237.246,98.181Z" transform="translate(-95.887 -21.356)" fill="#faff6e" stroke="#faff6e" stroke-linecap="round" stroke-linejoin="round" stroke-width="2"/>
      <path id="Path_1246" data-name="Path 1246" d="M223.25,75.259a.738.738,0,0,1-.561-1.21l6.086-7.141a.738.738,0,0,1,1.121.959l-6.086,7.156A.738.738,0,0,1,223.25,75.259Z" transform="translate(-92.256 -14.428)" fill="#faff6e" stroke="#faff6e" stroke-linecap="round" stroke-linejoin="round" stroke-width="2"/>
      <path id="Path_1247" data-name="Path 1247" d="M199.738,70.338A.738.738,0,0,1,199,69.6V61.818a.738.738,0,0,1,1.475,0V69.6A.738.738,0,0,1,199.738,70.338Z" transform="translate(-86.088 -12.968)" fill="#faff6e" stroke="#faff6e" stroke-linecap="round" stroke-linejoin="round" stroke-width="2"/>
    </g>
  </g>
</svg>
